<?xml version="1.0" encoding="utf-8"?>
<!-- Generator: Adobe Illustrator 27.3.1, SVG Export Plug-In . SVG Version: 6.00 Build 0)  -->
<svg version="1.1" id="Layer_1" xmlns="http://www.w3.org/2000/svg" xmlns:xlink="http://www.w3.org/1999/xlink" x="0px" y="0px"
	 viewBox="0 0 237.9 268.6" style="enable-background:new 0 0 237.9 268.6;" xml:space="preserve">
<style type="text/css">
	.st0{clip-path:url(#SVGID_00000143578283236400675790000003997178572284146360_);}
	.st1{clip-path:url(#SVGID_00000096780469807346295350000012127568194870252173_);}
	.st2{fill:#BAD8E2;}
</style>
<g id="Layer_2_1_">
	<g id="Layer_4">
		<g>
			<g>
				<defs>
					<path id="SVGID_1_" d="M203.1,72.3c0-1,0-2.1,0.2-3.1l-72.4-42.1c-6.4,7.2-17.4,7.7-24.6,1.3c-0.5-0.4-0.9-0.9-1.3-1.3
						L32.6,69.2c0.1,0.7,0.2,1.3,0.2,2c0.3,8.2-5.2,15.6-13.1,17.7v85c9.4,2.5,15,12.2,12.5,21.6c-0.2,0.8-0.5,1.6-0.8,2.4
						l72.8,42.4c7.1-6.5,18.1-6,24.6,1.1c0.1,0.1,0.2,0.3,0.3,0.4l75.4-43.8c-3.8-9,0.4-19.4,9.3-23.2c0.8-0.3,1.6-0.6,2.4-0.8V89
						C208.6,86.8,203.3,80.1,203.1,72.3z"/>
				</defs>
				<clipPath id="SVGID_00000107583410540652306860000009218990381010618269_">
					<use xlink:href="#SVGID_1_"  style="overflow:visible;"/>
				</clipPath>
				<g style="clip-path:url(#SVGID_00000107583410540652306860000009218990381010618269_);">
					<g id="Nick">
						<g>
							<g>
								<defs>
									<rect id="SVGID_00000023979023243169646670000010132800589532833177_" x="20.7" y="24.1" width="199.9" height="214.6"/>
								</defs>
								<clipPath id="SVGID_00000125590174113205701260000013373201234950046103_">
									<use xlink:href="#SVGID_00000023979023243169646670000010132800589532833177_"  style="overflow:visible;"/>
								</clipPath>
								<g style="clip-path:url(#SVGID_00000125590174113205701260000013373201234950046103_);">
									
										<image style="overflow:visible;enable-background:new    ;" width="949" height="949" xlink:href="../../../../../../../../../Downloads/angelo.JPG"  transform="matrix(0.2465 0 0 0.2465 16.0942 18.6479)">
									</image>
								</g>
							</g>
						</g>
					</g>
				</g>
			</g>
		</g>
		<path class="st2" d="M134.3,250.7c0-1-0.2-2.1-0.4-3.1l76.1-43.9c7.6,5.8,18.5,4.4,24.3-3.2c5.8-7.6,4.4-18.5-3.2-24.3
			c-1.8-1.4-4-2.4-6.2-3V89.7c9.3-2.4,14.8-11.9,12.4-21.2c-2.4-9.3-11.9-14.8-21.2-12.4c-3.7,1-7,3.1-9.4,6.2l-71-41
			c2.2-9.3-3.5-18.7-12.9-20.9S104.3,4,102.1,13.3c-0.4,1.5-0.5,3-0.5,4.6c0,1.2,0.2,2.3,0.4,3.5l-71,41c-5.8-7.6-16.7-9-24.3-3.2
			s-9,16.7-3.2,24.3c2.4,3.1,5.7,5.3,9.5,6.3v83.5c-9.3,2.2-14.9,11.7-12.5,21s11.8,14.9,21.1,12.5c2.3-0.6,4.4-1.6,6.3-3.1l72.7,42
			c-3.1,9.1,1.7,18.9,10.8,22s18.9-1.7,22-10.8C134.1,254.9,134.4,252.8,134.3,250.7L134.3,250.7z M106.1,29
			c6.4,7.1,17.4,7.6,24.4,1.2c0.4-0.4,0.8-0.8,1.2-1.2l71.6,41.4c-0.1,1-0.2,2-0.2,3c0.3,7.7,5.5,14.3,13,16.2v83.5
			c-9.3,2.4-14.8,11.8-12.5,21.1c0.2,0.9,0.5,1.7,0.9,2.6l-74.5,43c-6.3-7.2-17.2-7.9-24.4-1.7c-0.1,0.1-0.2,0.1-0.2,0.2l-72-41.6
			c3.8-8.8-0.2-19-9-22.7c-0.8-0.4-1.7-0.7-2.6-0.9V89.7c7.8-2,13.2-9.2,13-17.3c0-0.7-0.1-1.3-0.2-2L106.1,29z"/>
	</g>
</g>
</svg>
