<?xml version="1.0" encoding="UTF-8"?>
<svg id="Layer_1" data-name="Layer 1" xmlns="http://www.w3.org/2000/svg" viewBox="0 0 754.17 846.48">
  <defs>
    <style>
      .cls-1 {
        fill: #7dd0e9;
      }
    </style>
  </defs>
  <path class="cls-1" d="m655.42,124.87l-5.06,8.62,72.31,41.19-76.49,37.23c-3.44,1.67-5.63,5.15-5.63,8.93v62.72c0,.83.13,1.79.35,2.59l75.86,277-178.51,180.71h-168.89l-135.33-55.05c-2.08-.85-4.32-.99-6.49-.41l-191,50.78L555.11,80.22h90.2v44.66c0,3.56,1.92,6.84,5.05,8.62l5.06-8.62h10.11v-54.61c0-2.62-1.08-5.19-2.96-7.04-1.88-1.85-4.49-2.92-7.15-2.92h-105.26c-3.14,0-6.06,1.41-7.99,3.86L2.12,750.43c-2.66,3.37-2.83,8.07-.43,11.62,2.4,3.55,6.86,5.21,11.05,4.09l216.75-57.63,134.01,54.51c1.24.51,2.51.75,3.86.75h175.16c2.74,0,5.33-1.08,7.24-3.01l185.5-187.79c2.5-2.53,3.45-6.14,2.52-9.54l-77.01-281.2v-55.21s87.78-42.73,87.78-42.73c3.35-1.63,5.5-4.92,5.62-8.6.12-3.68-1.81-7.1-5.04-8.95l-88.65-50.5-5.06,8.62h10.11-10.11Z"/>
  <path class="cls-1" d="m607.9,134.64c0,12.34-10.15,22.34-22.67,22.34s-22.67-10-22.67-22.34,10.15-22.34,22.67-22.34,22.67,10,22.67,22.34Z"/>
  <path class="cls-1" d="m405.85,756.53v78.8c0,5.5,4.52,9.96,10.11,9.96s10.11-4.46,10.11-9.96v-78.8c0-5.5-4.53-9.96-10.11-9.96s-10.11,4.46-10.11,9.96"/>
  <path class="cls-1" d="m483.8,756.53v78.8c0,5.5,4.52,9.96,10.11,9.96s10.11-4.46,10.11-9.96v-78.8c0-5.5-4.53-9.96-10.11-9.96s-10.11,4.46-10.11,9.96"/>
  <path class="cls-1" d="m643.51,276.52l-393.67,388.04,82.11-298.97,322.67-135.58c5.13-2.16,7.52-8.01,5.33-13.07-2.19-5.06-8.13-7.41-13.26-5.25l-327.18,137.48c-2.86,1.2-4.98,3.61-5.79,6.56l-93.3,339.7c-1.2,4.35.73,8.96,4.69,11.22,3.96,2.26,8.97,1.61,12.21-1.58l420.48-414.46c3.95-3.89,3.94-10.19,0-14.08-3.95-3.89-10.35-3.89-14.29,0h0Z"/>
  <path class="cls-1" d="m551.47,749.22l-117.18-221.22,292.06,47.86c5.51.9,10.71-2.76,11.63-8.19.92-5.42-2.8-10.55-8.31-11.46l-312.06-51.14c-3.78-.62-7.59.92-9.84,3.98-2.25,3.06-2.55,7.1-.78,10.45l126.55,238.93c2.58,4.88,8.69,6.77,13.64,4.22,4.95-2.54,6.87-8.56,4.29-13.43h0Z"/>
  <rect class="cls-1" x="595.32" y="60.3" width="20.21" height="19.91"/>
  <path class="cls-1" d="m626.32,0v19.92h-31.15v53.44h-20.22V9.8c0-5.41,4.45-9.8,9.95-9.8h41.42Z"/>
  <path class="cls-1" d="m488.28,845.96h35.42c2.47,0,4.48-4.52,4.48-10.11s-2-10.11-4.48-10.11h-35.42c-2.47,0-4.48,4.53-4.48,10.11s2,10.11,4.48,10.11"/>
  <path class="cls-1" d="m410.33,846.48h35.42c2.47,0,4.48-4.52,4.48-10.11s-2-10.11-4.48-10.11h-35.42c-2.47,0-4.48,4.53-4.48,10.11s2,10.11,4.48,10.11"/>
</svg>