<?xml version="1.0" encoding="UTF-8"?>
<svg id="Layer_1" data-name="Layer 1" xmlns="http://www.w3.org/2000/svg" viewBox="0 0 2000 2000">
  <defs>
    <style>
      .cls-1, .cls-2 {
        fill: #7dd0e9;
      }

      .cls-2 {
        opacity: .14;
      }
    </style>
  </defs>
  <g>
    <path class="cls-1" d="m1867.99,1351.5c-144.99,4.69-290.01,7.17-435,8.85-72.48,1.05-144.99,1.28-217.5,1.91l-217.5.63-217.5-.6-108.75-.83-54.38-.4-54.38-.68c-144.99-1.65-289.98-4.13-435-8.88,145.02-4.75,290.01-7.23,435-8.88l54.38-.68,54.38-.4,108.75-.83,217.5-.6,217.5.63c72.51.63,145.02.85,217.5,1.91,144.99,1.68,290.01,4.13,435,8.85Z"/>
    <g>
      <path class="cls-2" d="m1875.46,1351.5c-144.99-4.72-290.01-7.17-435-8.85-72.48-1.05-144.99-1.28-217.5-1.91l-217.5-.63-217.5.6-108.75.83-54.38.4-54.38.68c-144.99,1.65-289.98,4.13-435,8.88-10.02-119.89,4.39-241.4,43.6-354.55,38.78-113.26,101.91-217.93,183.28-305.92,81.61-87.8,181.58-158.81,291.95-206.63,55.13-23.98,112.71-42.48,171.7-54.68,58.94-12.26,119.2-18.32,179.47-18.26,60.27-.09,120.53,6,179.5,18.26,59,12.18,116.58,30.73,171.73,54.65,110.34,47.85,210.34,118.84,291.95,206.63,81.38,88.02,144.5,192.66,183.28,305.92,39.19,113.17,53.6,234.69,43.55,354.57Z"/>
      <g>
        <path class="cls-1" d="m1183.12,630.15l-5.06,8.62,72.31,41.19-76.49,37.23c-3.44,1.67-5.63,5.15-5.63,8.93v62.72c0,.83.13,1.79.35,2.59l75.86,277-178.51,180.71h-168.89l-135.33-55.05c-2.08-.85-4.32-.99-6.49-.41l-191,50.78,518.57-658.97h90.2v44.66c0,3.56,1.92,6.84,5.05,8.62l5.06-8.62h10.11v-54.61c0-2.62-1.08-5.19-2.96-7.04-1.88-1.85-4.49-2.92-7.15-2.92h-105.26c-3.14,0-6.06,1.41-7.99,3.86l-540.05,686.27c-2.66,3.37-2.83,8.07-.43,11.62,2.4,3.55,6.86,5.21,11.05,4.09l216.75-57.63,134.01,54.51c1.24.51,2.51.75,3.86.75h175.16c2.74,0,5.33-1.08,7.24-3.01l185.5-187.79c2.5-2.53,3.45-6.14,2.52-9.54l-77.01-281.2v-55.21s87.78-42.73,87.78-42.73c3.35-1.63,5.5-4.92,5.62-8.6.12-3.68-1.81-7.1-5.04-8.95l-88.65-50.5-5.06,8.62h10.11-10.11Z"/>
        <path class="cls-1" d="m1135.61,639.91c0,12.34-10.15,22.34-22.67,22.34s-22.67-10-22.67-22.34,10.15-22.34,22.67-22.34,22.67,10,22.67,22.34Z"/>
        <path class="cls-1" d="m933.56,1261.81v78.8c0,5.5,4.52,9.96,10.11,9.96s10.11-4.46,10.11-9.96v-78.8c0-5.5-4.53-9.96-10.11-9.96s-10.11,4.46-10.11,9.96"/>
        <path class="cls-1" d="m1011.5,1261.81v78.8c0,5.5,4.52,9.96,10.11,9.96s10.11-4.46,10.11-9.96v-78.8c0-5.5-4.53-9.96-10.11-9.96s-10.11,4.46-10.11,9.96"/>
        <path class="cls-1" d="m1171.21,781.79l-393.67,388.04,82.11-298.97,322.67-135.58c5.13-2.16,7.52-8.01,5.33-13.07-2.19-5.06-8.13-7.41-13.26-5.25l-327.18,137.48c-2.86,1.2-4.98,3.61-5.79,6.56l-93.3,339.7c-1.2,4.35.73,8.96,4.69,11.22,3.96,2.26,8.97,1.61,12.21-1.58l420.48-414.46c3.95-3.89,3.94-10.19,0-14.08-3.95-3.89-10.35-3.89-14.29,0h0Z"/>
        <path class="cls-1" d="m1079.18,1254.49l-117.18-221.22,292.06,47.86c5.51.9,10.71-2.76,11.63-8.19.92-5.42-2.8-10.55-8.31-11.46l-312.06-51.14c-3.78-.62-7.59.92-9.84,3.98-2.25,3.06-2.55,7.1-.78,10.45l126.55,238.93c2.58,4.88,8.69,6.77,13.64,4.22,4.95-2.54,6.87-8.56,4.29-13.43h0Z"/>
      </g>
      <path class="cls-1" d="m1867.99,1351.5c10.05-119.89-4.36-241.4-43.55-354.57-38.78-113.26-101.91-217.9-183.28-305.92-81.61-87.8-181.61-158.78-291.95-206.63-55.15-23.93-112.74-42.48-171.73-54.65-58.97-12.26-119.23-18.35-179.5-18.26-60.27-.06-120.53,6-179.47,18.26-59,12.21-116.58,30.7-171.7,54.68-110.37,47.82-210.34,118.84-291.95,206.63-81.38,88-144.5,192.66-183.28,305.92-39.22,113.15-53.62,234.66-43.6,354.55-15.13-119.41-3.87-242.45,32.8-358.02,18.39-57.75,43.08-113.63,73.38-166.43,30.29-52.83,66.45-102.39,107.31-147.91,40.77-45.58,86.86-86.57,136.67-122.53,49.78-35.96,103.41-66.83,159.75-91.89,112.74-50.04,236.42-75.93,360.1-76.02,123.71.11,247.39,25.98,360.1,76.05,56.34,25.04,109.96,55.93,159.75,91.89,49.81,35.93,95.87,76.96,136.67,122.53,40.83,45.52,77.01,95.08,107.31,147.91,30.29,52.8,54.98,108.65,73.35,166.43,36.7,115.54,47.96,238.58,32.83,357.99Z"/>
    </g>
    <g>
      <path class="cls-1" d="m616.54,1595.64c-11.16,9.77-25.82,15.67-39.25,15.67-18.18,0-34.5-11.2-46.07-30.33-43.18-.2-76.44-31.55-76.44-72.26s33.47-71.85,76.65-71.85,76.65,31.14,76.65,71.85c0,32.57-21.28,59.23-52.06,68.6,7.85,8.35,15.91,13.23,24.17,13.23,7.64,0,17.15-4.48,26.65-11.81l9.71,16.9Zm-84.92-36.23c28.31,0,51.45-22.39,51.45-50.68s-23.14-50.28-51.45-50.28-52.06,21.98-52.06,50.28,23.76,50.68,52.06,50.68Z"/>
      <path class="cls-1" d="m863.46,1520.93c0,37.25-23.76,60.05-62.81,60.05s-63.02-22.8-63.02-60.05v-83.46h24.38v83.46c0,24.02,15.08,38.47,38.84,38.47s38.22-14.25,38.22-38.47v-83.46h24.38v83.46Z"/>
      <path class="cls-1" d="m1026.08,1459.05v38.47h70.66v21.58h-70.66v39.28h81.4v21.58h-105.78v-142.49h103.3v21.58h-78.92Z"/>
      <path class="cls-1" d="m1327.54,1558.18v21.78h-86.98v-142.49h24.38v120.71h62.6Z"/>
      <path class="cls-1" d="m1541.19,1558.18v21.78h-86.98v-142.49h24.38v120.71h62.6Z"/>
    </g>
  </g>
  <rect class="cls-1" x="1123.02" y="565.58" width="20.21" height="19.91"/>
  <path class="cls-1" d="m1154.02,505.27v19.92h-31.15v53.44h-20.22v-63.56c0-5.41,4.45-9.8,9.95-9.8h41.42Z"/>
</svg>