<?xml version="1.0" encoding="UTF-8"?>
<svg id="Layer_1" data-name="Layer 1" xmlns="http://www.w3.org/2000/svg" viewBox="0 0 2000 2000">
  <defs>
    <style>
      .cls-1, .cls-2 {
        fill: #7dd0e9;
      }

      .cls-2 {
        opacity: .14;
      }
    </style>
  </defs>
  <g>
    <path class="cls-1" d="m1987.97,1400.09c-165.03,5.34-330.1,8.16-495.13,10.07-82.5,1.2-165.03,1.46-247.57,2.17l-247.57.71-247.57-.68-123.78-.94-61.89-.45-61.89-.78c-165.03-1.88-330.07-4.7-495.13-10.1,165.07-5.41,330.1-8.23,495.13-10.1l61.89-.78,61.89-.45,123.78-.94,247.57-.68,247.57.71c82.53.71,165.07.97,247.57,2.17,165.03,1.91,330.1,4.7,495.13,10.07Z"/>
    <g>
      <path class="cls-2" d="m1996.48,1400.09c-165.03-5.38-330.1-8.16-495.13-10.07-82.5-1.2-165.03-1.46-247.57-2.17l-247.57-.71-247.57.68-123.78.94-61.89.45-61.89.78c-165.03,1.88-330.07,4.7-495.13,10.1-11.41-136.46,5-274.77,49.63-403.56,44.14-128.92,115.99-248.05,208.62-348.21,92.89-99.93,206.68-180.76,332.3-235.2,62.75-27.3,128.29-48.35,195.44-62.24,67.08-13.96,135.68-20.85,204.28-20.79,68.6-.1,137.19,6.83,204.31,20.79,67.15,13.86,132.69,34.97,195.47,62.21,125.59,54.47,239.42,135.26,332.3,235.2,92.62,100.19,164.48,219.3,208.62,348.21,44.6,128.82,61,267.13,49.57,403.59Z"/>
      <g>
        <path class="cls-1" d="m1208.43,579.02l-5.76,9.81,82.3,46.88-87.06,42.38c-3.92,1.91-6.41,5.86-6.41,10.16v71.39c0,.95.15,2.04.4,2.95l86.35,315.29-203.19,205.69h-192.23l-154.03-62.66c-2.37-.96-4.92-1.12-7.39-.47l-217.4,57.8,590.25-750.06h102.67v50.83c0,4.05,2.19,7.79,5.75,9.81l5.76-9.81h11.5v-62.16c0-2.98-1.23-5.9-3.37-8.01-2.14-2.11-5.11-3.32-8.13-3.32h-119.81c-3.57,0-6.9,1.61-9.09,4.39l-614.71,781.14c-3.02,3.84-3.22,9.18-.48,13.23,2.73,4.05,7.81,5.93,12.57,4.66l246.72-65.6,152.53,62.05c1.41.58,2.86.86,4.39.86h199.37c3.12,0,6.07-1.23,8.24-3.43l211.14-213.75c2.84-2.88,3.92-6.98,2.86-10.86l-87.66-320.07v-62.84s99.91-48.64,99.91-48.64c3.82-1.86,6.26-5.6,6.4-9.79.14-4.19-2.06-8.08-5.74-10.18l-100.9-57.48-5.76,9.81h11.5-11.5Z"/>
        <path class="cls-1" d="m1154.35,590.13c0,14.04-11.55,25.42-25.8,25.42s-25.81-11.38-25.81-25.42,11.56-25.42,25.81-25.42,25.8,11.38,25.8,25.42Z"/>
        <path class="cls-1" d="m924.37,1298v89.69c0,6.26,5.15,11.33,11.5,11.33s11.5-5.07,11.5-11.33v-89.69c0-6.26-5.15-11.33-11.5-11.33s-11.5,5.07-11.5,11.33"/>
        <path class="cls-1" d="m1013.09,1298v89.69c0,6.26,5.15,11.33,11.5,11.33s11.5-5.07,11.5-11.33v-89.69c0-6.26-5.15-11.33-11.5-11.33s-11.5,5.07-11.5,11.33"/>
        <path class="cls-1" d="m1194.88,751.63l-448.09,441.68,93.46-340.3,367.28-154.32c5.84-2.46,8.56-9.11,6.07-14.87-2.49-5.76-9.25-8.43-15.09-5.98l-372.41,156.48c-3.25,1.37-5.67,4.1-6.59,7.47l-106.2,386.66c-1.36,4.96.83,10.2,5.34,12.77,4.51,2.57,10.22,1.83,13.9-1.8l478.61-471.76c4.49-4.43,4.49-11.6,0-16.03-4.49-4.43-11.78-4.42-16.27,0h0Z"/>
        <path class="cls-1" d="m1090.12,1289.67l-133.37-251.8,332.43,54.48c6.27,1.03,12.19-3.15,13.24-9.32,1.04-6.17-3.19-12.01-9.46-13.04l-355.19-58.21c-4.31-.71-8.64,1.04-11.2,4.53-2.56,3.48-2.91,8.08-.89,11.9l144.05,271.96c2.94,5.55,9.89,7.7,15.52,4.81,5.63-2.9,7.82-9.74,4.88-15.29h0Z"/>
      </g>
      <path class="cls-1" d="m1987.97,1400.09c11.44-136.46-4.96-274.77-49.57-403.59-44.14-128.92-115.99-248.02-208.62-348.21-92.89-99.93-206.71-180.73-332.3-235.2-62.78-27.23-128.32-48.35-195.47-62.21-67.12-13.96-135.71-20.89-204.31-20.79-68.6-.06-137.19,6.83-204.28,20.79-67.15,13.89-132.69,34.94-195.44,62.24-125.62,54.44-239.42,135.26-332.3,235.2-92.62,100.16-164.48,219.3-208.62,348.21C12.43,1125.32-3.97,1263.63,7.43,1400.09c-17.22-135.91-4.4-275.97,37.34-407.51,20.94-65.74,49.04-129.34,83.52-189.44,34.48-60.14,75.63-116.55,122.14-168.36,46.41-51.88,98.87-98.54,155.57-139.47,56.67-40.93,117.7-76.07,181.83-104.6,128.32-56.96,269.1-86.43,409.87-86.53,140.81.13,281.59,29.57,409.87,86.56,64.13,28.5,125.16,63.66,181.83,104.6,56.7,40.9,109.12,87.6,155.57,139.47,46.48,51.81,87.66,108.22,122.14,168.36,34.48,60.1,62.58,123.67,83.49,189.44,41.78,131.51,54.6,271.56,37.37,407.47Z"/>
    </g>
    <g>
      <path class="cls-1" d="m563.53,1677.97c-12.7,11.12-29.39,17.84-44.68,17.84-20.69,0-39.27-12.74-52.44-34.52-49.15-.23-87.01-35.91-87.01-82.25s38.1-81.79,87.24-81.79,87.25,35.45,87.25,81.79c0,37.07-24.22,67.42-59.26,78.08,8.94,9.5,18.11,15.06,27.51,15.06,8.7,0,19.52-5.1,30.34-13.44l11.05,19.23Zm-96.65-41.24c32.22,0,58.56-25.48,58.56-57.69s-26.34-57.23-58.56-57.23-59.26,25.02-59.26,57.23,27.04,57.69,59.26,57.69Z"/>
      <path class="cls-1" d="m844.59,1592.94c0,42.4-27.04,68.35-71.49,68.35s-71.73-25.95-71.73-68.35v-94.99h27.75v94.99c0,27.34,17.17,43.79,44.21,43.79s43.5-16.22,43.5-43.79v-94.99h27.75v94.99Z"/>
      <path class="cls-1" d="m1029.69,1522.51v43.79h80.43v24.56h-80.43v44.72h92.66v24.56h-120.4v-162.18h117.58v24.56h-89.83Z"/>
      <path class="cls-1" d="m1372.82,1635.34v24.79h-99v-162.18h27.75v137.39h71.25Z"/>
      <path class="cls-1" d="m1616,1635.34v24.79h-99v-162.18h27.75v137.39h71.25Z"/>
    </g>
  </g>
  <rect class="cls-1" x="1140.02" y="505.52" width="23.01" height="22.67"/>
  <path class="cls-1" d="m1175.31,436.89v22.67h-35.46v60.83h-23.01v-72.35c0-6.16,5.07-11.16,11.32-11.16h47.15Z"/>
</svg>