<svg width="97" height="18" viewBox="0 0 97 18" fill="none" xmlns="http://www.w3.org/2000/svg">
<path d="M40.3767 16.2219C39.3511 17.1199 38.0034 17.6626 36.7686 17.6626C35.0978 17.6626 33.5975 16.6338 32.5339 14.875C28.5649 14.8564 25.5076 11.9751 25.5076 8.233C25.5076 4.49089 28.5843 1.62817 32.5525 1.62817C36.5207 1.62817 39.5982 4.49089 39.5982 8.233C39.5982 11.2265 37.6424 13.6774 34.8128 14.5382C35.5347 15.3054 36.2752 15.7544 37.0343 15.7544C37.7369 15.7544 38.6106 15.3425 39.4844 14.669L40.3767 16.2219ZM32.5719 12.8917C35.1738 12.8917 37.3008 10.8341 37.3008 8.233C37.3008 5.63193 35.1738 3.61148 32.5719 3.61148C29.97 3.61148 27.7864 5.63193 27.7864 8.233C27.7864 10.8341 29.97 12.8917 32.5719 12.8917Z" fill="#7DD0E9"/>
<path d="M56.6109 9.29894C56.6109 12.7229 54.4273 14.8184 50.8379 14.8184C47.2484 14.8184 45.0454 12.7229 45.0454 9.29894V1.62817H47.2863V9.29894C47.2863 11.5067 48.6729 12.8351 50.8564 12.8351C53.04 12.8351 54.3692 11.5253 54.3692 9.29894V1.62817H56.6101V9.29894H56.6109Z" fill="#7DD0E9"/>
<path d="M63.567 3.61067V7.14687H70.062V9.13017H63.567V12.7415H71.0496V14.7248H61.3269V1.62817H70.8219V3.61148H63.5678L63.567 3.61067Z" fill="#7DD0E9"/>
<path d="M83.9748 12.7229V14.7248H75.9802V1.62817H78.2211V12.7229H83.9748Z" fill="#7DD0E9"/>
<path d="M97 12.7229V14.7248H89.0054V1.62817H91.2463V12.7229H97Z" fill="#7DD0E9"/>
<g clip-path="url(#clip0_90_19)">
<path d="M13.6779 2.64195L13.5723 2.82433L15.0814 3.69581L13.4851 4.48352C13.4133 4.51885 13.3676 4.59248 13.3676 4.67246V5.99947C13.3676 6.01703 13.3703 6.03734 13.3749 6.05427L14.958 11.915L11.2327 15.7384H7.70815L4.88395 14.5737C4.84054 14.5557 4.7938 14.5527 4.74851 14.565L0.762535 15.6394L11.5846 1.69725H13.4669V2.64216C13.4669 2.71748 13.507 2.78688 13.5723 2.82454L13.6779 2.64216H13.8889V1.48673C13.8889 1.4313 13.8664 1.37692 13.8271 1.33778C13.7879 1.29864 13.7334 1.276 13.6779 1.276H11.4813C11.4157 1.276 11.3548 1.30583 11.3145 1.35767L0.0442249 15.8774C-0.0112866 15.9487 -0.0148343 16.0481 0.0352512 16.1233C0.0853368 16.1984 0.178412 16.2335 0.265854 16.2098L4.78921 14.9905L7.58586 16.1438C7.61174 16.1546 7.63824 16.1596 7.66641 16.1596H11.3218C11.379 16.1596 11.4331 16.1368 11.4729 16.096L15.3441 12.1227C15.3963 12.0692 15.4161 11.9928 15.3967 11.9209L13.7896 5.97133V4.80321L15.6215 3.89914C15.6914 3.86465 15.7362 3.79504 15.7387 3.71718C15.7412 3.63932 15.701 3.56696 15.6336 3.52782L13.7835 2.45935L13.6779 2.64173V2.64195Z" fill="#7DD0E9"/>
<path d="M12.6862 2.84864C12.6862 3.10973 12.4744 3.32131 12.2131 3.32131C11.9518 3.32131 11.74 3.10973 11.74 2.84864C11.74 2.58755 11.9518 2.37598 12.2131 2.37598C12.4744 2.37598 12.6862 2.58755 12.6862 2.84864Z" fill="#7DD0E9"/>
<path d="M8.46973 16.0065V17.6737C8.46973 17.7901 8.56405 17.8845 8.68071 17.8845C8.79737 17.8845 8.8917 17.7901 8.8917 17.6737V16.0065C8.8917 15.8901 8.79716 15.7958 8.68071 15.7958C8.56426 15.7958 8.46973 15.8901 8.46973 16.0065Z" fill="#7DD0E9"/>
<path d="M10.0964 16.0065V17.6737C10.0964 17.7901 10.1908 17.8845 10.3074 17.8845C10.4241 17.8845 10.5184 17.7901 10.5184 17.6737V16.0065C10.5184 15.8901 10.4239 15.7958 10.3074 15.7958C10.191 15.7958 10.0964 15.8901 10.0964 16.0065Z" fill="#7DD0E9"/>
<path d="M13.4294 5.85055L5.21387 14.0606L6.92742 7.73507L13.6612 4.8665C13.7683 4.8208 13.8181 4.69703 13.7724 4.58997C13.7267 4.48291 13.6028 4.43319 13.4957 4.47889L6.66781 7.38766C6.60812 7.41305 6.56388 7.46404 6.54698 7.52646L4.5999 14.7138C4.57486 14.8058 4.61513 14.9033 4.69778 14.9511C4.78042 14.999 4.88497 14.9852 4.95259 14.9177L13.7276 6.14866C13.81 6.06636 13.8098 5.93307 13.7276 5.85076C13.6451 5.76846 13.5116 5.76846 13.4294 5.85076V5.85055Z" fill="#7DD0E9"/>
<path d="M11.5085 15.8518L9.06309 11.1712L15.1581 12.1839C15.2731 12.2029 15.3816 12.1255 15.4008 12.0106C15.42 11.8959 15.3424 11.7874 15.2274 11.7681L8.715 10.6861C8.63611 10.673 8.5566 10.7056 8.50965 10.7703C8.46269 10.835 8.45643 10.9205 8.49337 10.9914L11.1343 16.0466C11.1882 16.1499 11.3157 16.1899 11.419 16.1359C11.5223 16.0822 11.5624 15.9548 11.5085 15.8518Z" fill="#7DD0E9"/>
<path d="M12.8456 1.27576H12.4238V1.69701H12.8456V1.27576Z" fill="#7DD0E9"/>
<path d="M13.0706 0V0.421463H12.4205V1.55213H11.9985V0.207346C11.9985 0.0928826 12.0914 0 12.2062 0H13.0706Z" fill="#7DD0E9"/>
<path d="M10.1899 17.8986H10.9291C10.9807 17.8986 11.0226 17.803 11.0226 17.6847C11.0226 17.5665 10.9809 17.4708 10.9291 17.4708H10.1899C10.1384 17.4708 10.0964 17.5667 10.0964 17.6847C10.0964 17.8028 10.1382 17.8986 10.1899 17.8986Z" fill="#7DD0E9"/>
<path d="M8.56322 17.9096H9.3024C9.35395 17.9096 9.39589 17.814 9.39589 17.6957C9.39589 17.5774 9.35415 17.4818 9.3024 17.4818H8.56322C8.51167 17.4818 8.46973 17.5777 8.46973 17.6957C8.46973 17.8138 8.51146 17.9096 8.56322 17.9096Z" fill="#7DD0E9"/>
</g>
<defs>
<clipPath id="clip0_90_19">
<rect width="15.7388" height="17.9096" fill="white"/>
</clipPath>
</defs>
</svg>
