<svg width="388" height="392" viewBox="0 0 388 392" fill="none" xmlns="http://www.w3.org/2000/svg">
<path d="M18.092 290.36L32.4676 298.66L192.618 21.2804L178.242 12.9804L18.092 290.36Z" fill="#E535AB"/>
<path d="M335.1 268.2H14.8V284.8H335.1V268.2Z" fill="#E535AB"/>
<path d="M21.1379 277.526L181.348 370.026L189.648 355.65L29.4379 263.15L21.1379 277.526Z" fill="#E535AB"/>
<path d="M160.312 36.4465L320.522 128.947L328.822 114.571L168.612 22.0709L160.312 36.4465Z" fill="#E535AB"/>
<path d="M21.1823 114.508L29.4823 128.883L189.692 36.3833L181.392 22.0077L21.1823 114.508Z" fill="#E535AB"/>
<path d="M157.418 21.2833L317.568 298.663L331.944 290.363L171.794 12.9833L157.418 21.2833Z" fill="#E535AB"/>
<path d="M44.1 103.5H27.5V288.5H44.1V103.5Z" fill="#E535AB"/>
<path d="M322.5 103.5H305.9V288.5H322.5V103.5Z" fill="#E535AB"/>
<path d="M171.272 350.442L178.522 362.999L317.861 282.549L310.611 269.992L171.272 350.442Z" fill="#E535AB"/>
<path d="M344.5 293.9C334.9 310.6 313.5 316.3 296.8 306.7C280.1 297.1 274.4 275.7 284 259C293.6 242.3 315 236.6 331.7 246.2C348.5 255.9 354.2 277.2 344.5 293.9Z" fill="#E535AB"/>
<path d="M65.9 133C56.3 149.7 34.9 155.4 18.2 145.8C1.5 136.2 -4.2 114.8 5.4 98.1C15 81.4 36.4 75.7 53.1 85.3C69.8 95 75.5 116.3 65.9 133Z" fill="#E535AB"/>
<path d="M5.5 293.9C-4.1 277.2 1.6 255.9 18.3 246.2C35 236.6 56.3 242.3 66 259C75.6 275.7 69.9 297 53.2 306.7C36.4 316.3 15.1 310.6 5.5 293.9Z" fill="#E535AB"/>
<path d="M284.1 133C274.5 116.3 280.2 95 296.9 85.3C313.6 75.7 334.9 81.4 344.6 98.1C354.2 114.8 348.5 136.1 331.8 145.8C315.1 155.4 293.7 149.7 284.1 133Z" fill="#E535AB"/>
<path d="M175 391.8C155.7 391.8 140.1 376.2 140.1 356.9C140.1 337.6 155.7 322 175 322C194.3 322 209.9 337.6 209.9 356.9C209.9 376.1 194.3 391.8 175 391.8Z" fill="#E535AB"/>
<path d="M175 70C155.7 70 140.1 54.3999 140.1 35.0999C140.1 15.7999 155.7 0.199951 175 0.199951C194.3 0.199951 209.9 15.7999 209.9 35.0999C209.9 54.3999 194.3 70 175 70Z" fill="#E535AB"/>
<g clip-path="url(#clip0_188_156)">
<path d="M286.893 219.094V235.125H340.107V219.094C340.107 204.332 328.2 192.375 313.5 192.375C298.8 192.375 286.893 204.332 286.893 219.094ZM265.607 235.125V219.094C265.607 192.542 287.059 171 313.5 171C339.941 171 361.393 192.542 361.393 219.094V235.125H366.714C378.455 235.125 388 244.71 388 256.5V320.625C388 332.415 378.455 342 366.714 342H260.286C248.545 342 239 332.415 239 320.625V256.5C239 244.71 248.545 235.125 260.286 235.125H265.607Z" fill="#7DD0E9"/>
<g clip-path="url(#clip1_188_156)">
<path d="M333.834 260.326L333.365 261.039L340.076 264.445L332.977 267.524C332.657 267.662 332.454 267.95 332.454 268.262V273.449C332.454 273.518 332.466 273.597 332.487 273.663L339.528 296.57L322.959 311.514H307.283L294.722 306.961C294.529 306.891 294.321 306.879 294.12 306.927L276.392 311.127L324.524 256.634H332.896V260.327C332.896 260.621 333.074 260.893 333.365 261.04L333.834 260.327H334.773V255.811C334.773 255.594 334.672 255.382 334.498 255.229C334.323 255.076 334.081 254.987 333.834 254.987H324.064C323.773 254.987 323.502 255.104 323.323 255.307L273.197 312.057C272.95 312.336 272.934 312.724 273.157 313.018C273.38 313.312 273.794 313.449 274.182 313.356L294.301 308.59L306.739 313.098C306.854 313.14 306.972 313.16 307.097 313.16H323.355C323.61 313.16 323.85 313.071 324.027 312.911L341.245 297.382C341.477 297.173 341.565 296.874 341.479 296.593L334.331 273.339V268.773L342.478 265.24C342.789 265.105 342.989 264.833 343 264.529C343.011 264.224 342.832 263.942 342.532 263.789L334.304 259.612L333.834 260.325V260.326Z" fill="white"/>
<path d="M329.424 261.134C329.424 262.154 328.482 262.981 327.319 262.981C326.157 262.981 325.215 262.154 325.215 261.134C325.215 260.114 326.157 259.287 327.319 259.287C328.482 259.287 329.424 260.114 329.424 261.134Z" fill="white"/>
<path d="M310.67 312.561V319.078C310.67 319.533 311.089 319.901 311.608 319.901C312.127 319.901 312.547 319.533 312.547 319.078V312.561C312.547 312.107 312.126 311.738 311.608 311.738C311.09 311.738 310.67 312.107 310.67 312.561Z" fill="white"/>
<path d="M317.905 312.561V319.078C317.905 319.533 318.325 319.901 318.843 319.901C319.362 319.901 319.782 319.533 319.782 319.078V312.561C319.782 312.107 319.361 311.738 318.843 311.738C318.325 311.738 317.905 312.107 317.905 312.561Z" fill="white"/>
<path d="M332.729 272.867L296.189 304.956L303.811 280.233L333.76 269.021C334.236 268.842 334.458 268.358 334.255 267.94C334.051 267.522 333.5 267.327 333.024 267.506L302.656 278.875C302.391 278.974 302.194 279.173 302.119 279.417L293.459 307.509C293.347 307.869 293.527 308.25 293.894 308.437C294.262 308.624 294.727 308.57 295.027 308.306L334.055 274.032C334.422 273.71 334.421 273.189 334.055 272.868C333.689 272.546 333.095 272.546 332.729 272.868V272.867Z" fill="white"/>
<path d="M324.186 311.957L313.31 293.663L340.418 297.621C340.929 297.695 341.412 297.393 341.497 296.944C341.583 296.496 341.237 296.071 340.726 295.996L311.761 291.767C311.411 291.716 311.057 291.843 310.848 292.096C310.639 292.349 310.611 292.683 310.776 292.96L322.522 312.719C322.761 313.122 323.328 313.279 323.788 313.068C324.247 312.858 324.425 312.36 324.186 311.957Z" fill="white"/>
<path d="M330.132 254.987H328.256V256.633H330.132V254.987Z" fill="white"/>
<path d="M331.133 250V251.647H328.242V256.067H326.365V250.81C326.365 250.363 326.778 250 327.289 250H331.133Z" fill="white"/>
<path d="M318.321 319.957H321.608C321.838 319.957 322.024 319.583 322.024 319.121C322.024 318.658 321.839 318.285 321.608 318.285H318.321C318.092 318.285 317.905 318.659 317.905 319.121C317.905 319.582 318.091 319.957 318.321 319.957Z" fill="white"/>
<path d="M311.086 320H314.373C314.603 320 314.789 319.626 314.789 319.164C314.789 318.702 314.603 318.328 314.373 318.328H311.086C310.856 318.328 310.67 318.703 310.67 319.164C310.67 319.626 310.856 320 311.086 320Z" fill="white"/>
</g>
</g>
<defs>
<clipPath id="clip0_188_156">
<rect width="149" height="171" fill="white" transform="translate(239 171)"/>
</clipPath>
<clipPath id="clip1_188_156">
<rect width="70" height="70" fill="white" transform="translate(273 250)"/>
</clipPath>
</defs>
</svg>
