<svg width="467" height="303" viewBox="0 0 467 303" fill="none" xmlns="http://www.w3.org/2000/svg">
<path d="M312.377 256.222C311.351 257.12 310.003 257.663 308.769 257.663C307.098 257.663 305.597 256.634 304.534 254.875C300.565 254.856 297.508 251.975 297.508 248.233C297.508 244.491 300.584 241.628 304.553 241.628C308.521 241.628 311.598 244.491 311.598 248.233C311.598 251.227 309.642 253.677 306.813 254.538C307.535 255.305 308.275 255.754 309.034 255.754C309.737 255.754 310.611 255.343 311.484 254.669L312.377 256.222ZM304.572 252.892C307.174 252.892 309.301 250.834 309.301 248.233C309.301 245.632 307.174 243.611 304.572 243.611C301.97 243.611 299.786 245.632 299.786 248.233C299.786 250.834 301.97 252.892 304.572 252.892Z" fill="#7DD0E9"/>
<path d="M328.611 249.299C328.611 252.723 326.427 254.818 322.838 254.818C319.248 254.818 317.045 252.723 317.045 249.299V241.628H319.286V249.299C319.286 251.507 320.673 252.835 322.856 252.835C325.04 252.835 326.369 251.525 326.369 249.299V241.628H328.61V249.299H328.611Z" fill="#7DD0E9"/>
<path d="M335.567 243.611V247.147H342.062V249.13H335.567V252.741H343.05V254.725H333.327V241.628H342.822V243.611H335.568L335.567 243.611Z" fill="#7DD0E9"/>
<path d="M355.975 252.723V254.725H347.98V241.628H350.221V252.723H355.975Z" fill="#7DD0E9"/>
<path d="M369 252.723V254.725H361.005V241.628H363.246V252.723H369Z" fill="#7DD0E9"/>
<g clip-path="url(#clip0_97_43)">
<path d="M285.678 242.642L285.572 242.824L287.081 243.696L285.485 244.484C285.413 244.519 285.368 244.592 285.368 244.672V245.999C285.368 246.017 285.37 246.037 285.375 246.054L286.958 251.915L283.233 255.738H279.708L276.884 254.574C276.841 254.556 276.794 254.553 276.749 254.565L272.763 255.639L283.585 241.697H285.467V242.642C285.467 242.717 285.507 242.787 285.572 242.825L285.678 242.642H285.889V241.487C285.889 241.431 285.866 241.377 285.827 241.338C285.788 241.299 285.733 241.276 285.678 241.276H283.481C283.416 241.276 283.355 241.306 283.315 241.358L272.044 255.877C271.989 255.949 271.985 256.048 272.035 256.123C272.085 256.198 272.178 256.233 272.266 256.21L276.789 254.99L279.586 256.144C279.612 256.155 279.638 256.16 279.666 256.16H283.322C283.379 256.16 283.433 256.137 283.473 256.096L287.344 252.123C287.396 252.069 287.416 251.993 287.397 251.921L285.79 245.971V244.803L287.621 243.899C287.691 243.865 287.736 243.795 287.739 243.717C287.741 243.639 287.701 243.567 287.634 243.528L285.784 242.459L285.678 242.642V242.642Z" fill="#7DD0E9"/>
<path d="M284.686 242.849C284.686 243.11 284.474 243.321 284.213 243.321C283.952 243.321 283.74 243.11 283.74 242.849C283.74 242.588 283.952 242.376 284.213 242.376C284.474 242.376 284.686 242.588 284.686 242.849Z" fill="#7DD0E9"/>
<path d="M280.47 256.007V257.674C280.47 257.79 280.564 257.884 280.681 257.884C280.797 257.884 280.892 257.79 280.892 257.674V256.007C280.892 255.89 280.797 255.796 280.681 255.796C280.564 255.796 280.47 255.89 280.47 256.007Z" fill="#7DD0E9"/>
<path d="M282.096 256.007V257.674C282.096 257.79 282.191 257.884 282.307 257.884C282.424 257.884 282.518 257.79 282.518 257.674V256.007C282.518 255.89 282.424 255.796 282.307 255.796C282.191 255.796 282.096 255.89 282.096 256.007Z" fill="#7DD0E9"/>
<path d="M285.429 245.851L277.214 254.061L278.927 247.735L285.661 244.867C285.768 244.821 285.818 244.697 285.772 244.59C285.727 244.483 285.603 244.433 285.496 244.479L278.668 247.388C278.608 247.413 278.564 247.464 278.547 247.526L276.6 254.714C276.575 254.806 276.615 254.903 276.698 254.951C276.78 254.999 276.885 254.985 276.953 254.918L285.728 246.149C285.81 246.066 285.81 245.933 285.728 245.851C285.645 245.768 285.512 245.768 285.429 245.851V245.851Z" fill="#7DD0E9"/>
<path d="M283.509 255.852L281.063 251.171L287.158 252.184C287.273 252.203 287.382 252.125 287.401 252.011C287.42 251.896 287.342 251.787 287.227 251.768L280.715 250.686C280.636 250.673 280.557 250.706 280.51 250.77C280.463 250.835 280.456 250.921 280.493 250.991L283.134 256.047C283.188 256.15 283.316 256.19 283.419 256.136C283.522 256.082 283.562 255.955 283.509 255.852Z" fill="#7DD0E9"/>
<path d="M284.846 241.276H284.424V241.697H284.846V241.276Z" fill="#7DD0E9"/>
<path d="M285.071 240V240.421H284.421V241.552H283.999V240.207C283.999 240.093 284.091 240 284.206 240H285.071Z" fill="#7DD0E9"/>
<path d="M282.19 257.899H282.929C282.981 257.899 283.023 257.803 283.023 257.685C283.023 257.566 282.981 257.471 282.929 257.471H282.19C282.138 257.471 282.096 257.567 282.096 257.685C282.096 257.803 282.138 257.899 282.19 257.899Z" fill="#7DD0E9"/>
<path d="M280.563 257.91H281.302C281.354 257.91 281.396 257.814 281.396 257.696C281.396 257.577 281.354 257.482 281.302 257.482H280.563C280.512 257.482 280.47 257.578 280.47 257.696C280.47 257.814 280.511 257.91 280.563 257.91Z" fill="#7DD0E9"/>
</g>
<g filter="url(#filter0_d_97_43)">
<g filter="url(#filter1_d_97_43)">
<rect x="4" width="253.452" height="295" rx="5" fill="white"/>
</g>
<path d="M69.2578 66.2539V69.8711H69.3984C69.5885 69.8711 69.724 69.9076 69.8047 69.9805C69.888 70.056 69.9297 70.1536 69.9297 70.2734C69.9297 70.3906 69.8893 70.4857 69.8086 70.5586C69.7279 70.6341 69.5911 70.6719 69.3984 70.6719H67.9805C67.7878 70.6719 67.6497 70.6341 67.5664 70.5586C67.4857 70.4857 67.4453 70.3906 67.4453 70.2734C67.4453 70.1536 67.4857 70.056 67.5664 69.9805C67.6497 69.9076 67.7878 69.8711 67.9805 69.8711H68.457V68.5586C68.2617 68.6784 68.0625 68.7682 67.8594 68.8281C67.6589 68.888 67.4557 68.918 67.25 68.918C66.7734 68.918 66.3451 68.7747 65.9648 68.4883C65.5091 68.1445 65.2812 67.7083 65.2812 67.1797C65.2812 66.7005 65.474 66.276 65.8594 65.9062C66.2448 65.5339 66.7122 65.3477 67.2617 65.3477C67.4727 65.3477 67.6771 65.3789 67.875 65.4414C68.0755 65.5039 68.2695 65.599 68.457 65.7266V65.4531H69.3984C69.5885 65.4531 69.724 65.4909 69.8047 65.5664C69.888 65.6393 69.9297 65.7357 69.9297 65.8555C69.9297 65.9727 69.8893 66.069 69.8086 66.1445C69.7279 66.2174 69.5911 66.2539 69.3984 66.2539H69.2578ZM68.457 67.1836C68.457 67.0716 68.4128 66.9297 68.3242 66.7578C68.2357 66.5833 68.099 66.4388 67.9141 66.3242C67.7292 66.207 67.5143 66.1484 67.2695 66.1484C66.8685 66.1484 66.5521 66.2982 66.3203 66.5977C66.1615 66.8034 66.082 67.0013 66.082 67.1914C66.082 67.4076 66.1953 67.6159 66.4219 67.8164C66.651 68.0169 66.9336 68.1172 67.2695 68.1172C67.6081 68.1172 67.8906 68.0169 68.1172 67.8164C68.3438 67.6159 68.457 67.4049 68.457 67.1836ZM73.9062 65.4531V68.1992C74.0755 68.1992 74.2005 68.237 74.2812 68.3125C74.362 68.388 74.4023 68.4844 74.4023 68.6016C74.4023 68.7188 74.3607 68.8151 74.2773 68.8906C74.1966 68.9635 74.0599 69 73.8672 69H73.1055V68.8164C72.8763 68.9206 72.6576 68.9987 72.4492 69.0508C72.2409 69.1029 72.043 69.1289 71.8555 69.1289C71.5924 69.1289 71.3646 69.0742 71.1719 68.9648C70.9792 68.8529 70.8268 68.6992 70.7148 68.5039C70.6341 68.3633 70.5938 68.1875 70.5938 67.9766V66.2539H70.457C70.2643 66.2539 70.1263 66.2174 70.043 66.1445C69.9622 66.069 69.9219 65.9714 69.9219 65.8516C69.9219 65.7344 69.9622 65.6393 70.043 65.5664C70.1263 65.4909 70.2643 65.4531 70.457 65.4531H71.3945V67.8359C71.3945 68.0052 71.4349 68.1302 71.5156 68.2109C71.599 68.2891 71.7253 68.3281 71.8945 68.3281C72.056 68.3281 72.2292 68.2969 72.4141 68.2344C72.6016 68.1693 72.832 68.0534 73.1055 67.8867V66.2539H72.8164C72.6237 66.2539 72.4857 66.2174 72.4023 66.1445C72.3216 66.069 72.2812 65.9714 72.2812 65.8516C72.2812 65.7344 72.3216 65.6393 72.4023 65.5664C72.4857 65.4909 72.6237 65.4531 72.8164 65.4531H73.9062ZM79.0195 67.6328H75.7344C75.8177 67.8411 75.9648 68.0091 76.1758 68.1367C76.3893 68.2643 76.6771 68.3281 77.0391 68.3281C77.3359 68.3281 77.7305 68.2643 78.2227 68.1367C78.4258 68.0846 78.5664 68.0586 78.6445 68.0586C78.7513 68.0586 78.8411 68.0964 78.9141 68.1719C78.987 68.2474 79.0234 68.3424 79.0234 68.457C79.0234 68.5612 78.9844 68.6497 78.9062 68.7227C78.8021 68.819 78.5482 68.9115 78.1445 69C77.7409 69.0859 77.3529 69.1289 76.9805 69.1289C76.3398 69.1289 75.8268 68.9479 75.4414 68.5859C75.0586 68.224 74.8672 67.7786 74.8672 67.25C74.8672 66.6875 75.0742 66.2305 75.4883 65.8789C75.9049 65.5247 76.3841 65.3477 76.9258 65.3477C77.2513 65.3477 77.5495 65.4049 77.8203 65.5195C78.0938 65.6341 78.2969 65.7578 78.4297 65.8906C78.6172 66.0833 78.7721 66.3216 78.8945 66.6055C78.9779 66.8034 79.0195 67.0326 79.0195 67.293V67.6328ZM78.1328 66.832C78.0104 66.6029 77.8503 66.4323 77.6523 66.3203C77.4544 66.2057 77.2188 66.1484 76.9453 66.1484C76.6745 66.1484 76.4401 66.2057 76.2422 66.3203C76.0443 66.4323 75.8828 66.6029 75.7578 66.832H78.1328ZM81.6484 65.4531V65.9531C81.9844 65.7109 82.2487 65.5495 82.4414 65.4688C82.6367 65.388 82.819 65.3477 82.9883 65.3477C83.2487 65.3477 83.5013 65.444 83.7461 65.6367C83.9128 65.7669 83.9961 65.8997 83.9961 66.0352C83.9961 66.1497 83.9557 66.2474 83.875 66.3281C83.7969 66.4062 83.7018 66.4453 83.5898 66.4453C83.4909 66.4453 83.3867 66.3958 83.2773 66.2969C83.168 66.1979 83.0703 66.1484 82.9844 66.1484C82.8724 66.1484 82.7044 66.2188 82.4805 66.3594C82.2591 66.5 81.9818 66.7109 81.6484 66.9922V68.1992H82.7891C82.9818 68.1992 83.1185 68.237 83.1992 68.3125C83.2826 68.3854 83.3242 68.4818 83.3242 68.6016C83.3242 68.7188 83.2826 68.8151 83.1992 68.8906C83.1185 68.9635 82.9818 69 82.7891 69H80.3711C80.1784 69 80.0404 68.9635 79.957 68.8906C79.8763 68.8151 79.8359 68.7174 79.8359 68.5977C79.8359 68.4805 79.8763 68.3854 79.957 68.3125C80.0404 68.237 80.1784 68.1992 80.3711 68.1992H80.8477V66.2539H80.5586C80.3659 66.2539 80.2279 66.2174 80.1445 66.1445C80.0638 66.069 80.0234 65.9714 80.0234 65.8516C80.0234 65.7344 80.0638 65.6393 80.1445 65.5664C80.2279 65.4909 80.3659 65.4531 80.5586 65.4531H81.6484ZM86.1719 68.9727L84.7852 66.2539C84.6549 66.2383 84.556 66.194 84.4883 66.1211C84.4206 66.0482 84.3867 65.9596 84.3867 65.8555C84.3867 65.7357 84.4271 65.6393 84.5078 65.5664C84.5911 65.4909 84.7292 65.4531 84.9219 65.4531H85.6523C85.8451 65.4531 85.9818 65.4909 86.0625 65.5664C86.1458 65.6393 86.1875 65.7357 86.1875 65.8555C86.1875 65.9727 86.1458 66.069 86.0625 66.1445C85.9818 66.2174 85.8529 66.2539 85.6758 66.2539L86.6211 68.0938L87.5586 66.2539C87.3867 66.2539 87.2591 66.2174 87.1758 66.1445C87.0951 66.069 87.0547 65.9714 87.0547 65.8516C87.0547 65.7344 87.0951 65.6393 87.1758 65.5664C87.2591 65.4909 87.3971 65.4531 87.5898 65.4531H88.3438C88.5339 65.4531 88.6693 65.4909 88.75 65.5664C88.8333 65.6393 88.875 65.7357 88.875 65.8555C88.875 65.9622 88.8398 66.0534 88.7695 66.1289C88.6992 66.2018 88.5951 66.2435 88.457 66.2539L86.6211 69.8711C86.8216 69.8711 86.9531 69.8906 87.0156 69.9297C87.1406 70.0104 87.2031 70.125 87.2031 70.2734C87.2031 70.3906 87.1615 70.4857 87.0781 70.5586C86.9974 70.6341 86.8607 70.6719 86.668 70.6719H84.9219C84.7292 70.6719 84.5911 70.6341 84.5078 70.5586C84.4271 70.4857 84.3867 70.3906 84.3867 70.2734C84.3867 70.1536 84.4271 70.056 84.5078 69.9805C84.5911 69.9076 84.7292 69.8711 84.9219 69.8711H85.7188L86.1719 68.9727Z" fill="#6D1AAE"/>
<path d="M96.3906 67.0586C96.4844 67.1654 96.5482 67.2695 96.582 67.3711C96.6159 67.4701 96.6328 67.6315 96.6328 67.8555V69.1289C96.6328 69.2357 96.6523 69.3112 96.6914 69.3555C96.7331 69.4023 96.8086 69.4297 96.918 69.4375C97.0273 69.4479 97.1172 69.4909 97.1875 69.5664C97.2578 69.6419 97.293 69.7344 97.293 69.8438C97.293 69.9583 97.2526 70.0547 97.1719 70.1328C97.0938 70.2109 96.9935 70.25 96.8711 70.25C96.6966 70.25 96.5286 70.2031 96.3672 70.1094C96.2057 70.0182 96.0651 69.8685 95.9453 69.6602C95.8698 69.5247 95.832 69.3672 95.832 69.1875V67.7773C95.832 67.6654 95.8138 67.5885 95.7773 67.5469C95.7409 67.5052 95.6628 67.4779 95.543 67.4648C95.4232 67.4492 95.3307 67.4062 95.2656 67.3359C95.2031 67.2656 95.1719 67.1732 95.1719 67.0586C95.1719 66.9414 95.2031 66.8477 95.2656 66.7773C95.3307 66.707 95.4232 66.6654 95.543 66.6523C95.6654 66.6367 95.7396 66.612 95.7656 66.5781C95.8099 66.526 95.832 66.4453 95.832 66.3359V65C95.832 64.7135 95.9362 64.4661 96.1445 64.2578C96.3529 64.0469 96.5938 63.9414 96.8672 63.9414C96.9922 63.9414 97.0938 63.9805 97.1719 64.0586C97.2526 64.1367 97.293 64.2331 97.293 64.3477C97.293 64.4544 97.2578 64.5456 97.1875 64.6211C97.1172 64.6966 97.026 64.7396 96.9141 64.75C96.8021 64.7604 96.7318 64.7839 96.7031 64.8203C96.6562 64.875 96.6328 64.9557 96.6328 65.0625V66.3359C96.6328 66.5156 96.6146 66.6549 96.5781 66.7539C96.5443 66.8503 96.4818 66.9518 96.3906 67.0586ZM92.1445 80V79.8125C91.944 79.9193 91.7227 79.9987 91.4805 80.0508C91.2383 80.1055 91.0182 80.1328 90.8203 80.1328C90.3906 80.1328 90.0417 80.0195 89.7734 79.793C89.5052 79.5638 89.3711 79.3112 89.3711 79.0352C89.3711 78.6992 89.5417 78.388 89.8828 78.1016C90.2266 77.8125 90.7005 77.668 91.3047 77.668C91.5469 77.668 91.8268 77.694 92.1445 77.7461V77.5547C92.1445 77.4349 92.0924 77.3372 91.9883 77.2617C91.8867 77.1862 91.6914 77.1484 91.4023 77.1484C91.1654 77.1484 90.8581 77.1953 90.4805 77.2891C90.3398 77.3229 90.2305 77.3398 90.1523 77.3398C90.0456 77.3398 89.9544 77.3021 89.8789 77.2266C89.806 77.1484 89.7695 77.0495 89.7695 76.9297C89.7695 76.862 89.7826 76.8034 89.8086 76.7539C89.8346 76.7044 89.8711 76.6654 89.918 76.6367C89.9648 76.6055 90.0625 76.569 90.2109 76.5273C90.4089 76.4727 90.6107 76.4297 90.8164 76.3984C91.0221 76.3646 91.2083 76.3477 91.375 76.3477C91.8724 76.3477 92.2578 76.4557 92.5312 76.6719C92.8073 76.8854 92.9453 77.1784 92.9453 77.5508V79.1992H93.082C93.2747 79.1992 93.4115 79.237 93.4922 79.3125C93.5755 79.3854 93.6172 79.4818 93.6172 79.6016C93.6172 79.7188 93.5755 79.8151 93.4922 79.8906C93.4115 79.9635 93.2747 80 93.082 80H92.1445ZM92.1445 78.5664C91.8242 78.5039 91.5286 78.4727 91.2578 78.4727C90.9323 78.4727 90.6523 78.5521 90.418 78.7109C90.2721 78.8125 90.1992 78.9154 90.1992 79.0195C90.1992 79.0951 90.2344 79.1562 90.3047 79.2031C90.4349 79.2891 90.6133 79.332 90.8398 79.332C91.0326 79.332 91.25 79.2943 91.4922 79.2188C91.737 79.1432 91.9544 79.0404 92.1445 78.9102V78.5664ZM96.0625 76.4531V76.9531C96.3984 76.7109 96.6628 76.5495 96.8555 76.4688C97.0508 76.388 97.2331 76.3477 97.4023 76.3477C97.6628 76.3477 97.9154 76.444 98.1602 76.6367C98.3268 76.7669 98.4102 76.8997 98.4102 77.0352C98.4102 77.1497 98.3698 77.2474 98.2891 77.3281C98.2109 77.4062 98.1159 77.4453 98.0039 77.4453C97.9049 77.4453 97.8008 77.3958 97.6914 77.2969C97.582 77.1979 97.4844 77.1484 97.3984 77.1484C97.2865 77.1484 97.1185 77.2188 96.8945 77.3594C96.6732 77.5 96.3958 77.7109 96.0625 77.9922V79.1992H97.2031C97.3958 79.1992 97.5326 79.237 97.6133 79.3125C97.6966 79.3854 97.7383 79.4818 97.7383 79.6016C97.7383 79.7188 97.6966 79.8151 97.6133 79.8906C97.5326 79.9635 97.3958 80 97.2031 80H94.7852C94.5924 80 94.4544 79.9635 94.3711 79.8906C94.2904 79.8151 94.25 79.7174 94.25 79.5977C94.25 79.4805 94.2904 79.3854 94.3711 79.3125C94.4544 79.237 94.5924 79.1992 94.7852 79.1992H95.2617V77.2539H94.9727C94.7799 77.2539 94.6419 77.2174 94.5586 77.1445C94.4779 77.069 94.4375 76.9714 94.4375 76.8516C94.4375 76.7344 94.4779 76.6393 94.5586 76.5664C94.6419 76.4909 94.7799 76.4531 94.9727 76.4531H96.0625ZM100.836 77.2539V78.8594C100.836 79.0312 100.871 79.1445 100.941 79.1992C101.051 79.2852 101.246 79.3281 101.527 79.3281C101.936 79.3281 102.314 79.2409 102.66 79.0664C102.793 78.9987 102.897 78.9648 102.973 78.9648C103.077 78.9648 103.167 79.0039 103.242 79.082C103.32 79.1602 103.359 79.2552 103.359 79.3672C103.359 79.4714 103.318 79.5612 103.234 79.6367C103.107 79.7591 102.854 79.8724 102.477 79.9766C102.102 80.0781 101.785 80.1289 101.527 80.1289C101.03 80.1289 100.656 80.0221 100.406 79.8086C100.159 79.5924 100.035 79.3281 100.035 79.0156V77.2539H99.7461C99.5534 77.2539 99.4154 77.2174 99.332 77.1445C99.2513 77.069 99.2109 76.9714 99.2109 76.8516C99.2109 76.7344 99.2513 76.6393 99.332 76.5664C99.4154 76.4909 99.5534 76.4531 99.7461 76.4531H100.035V75.7305C100.035 75.5378 100.072 75.401 100.145 75.3203C100.22 75.237 100.318 75.1953 100.438 75.1953C100.555 75.1953 100.65 75.237 100.723 75.3203C100.798 75.401 100.836 75.5378 100.836 75.7305V76.4531H102.316C102.509 76.4531 102.646 76.4909 102.727 76.5664C102.81 76.6393 102.852 76.7357 102.852 76.8555C102.852 76.9727 102.81 77.069 102.727 77.1445C102.646 77.2174 102.509 77.2539 102.316 77.2539H100.836ZM106.125 74.9336V75.7812H105.172V74.9336H106.125ZM106.234 76.4531V79.1992H107.195C107.388 79.1992 107.525 79.237 107.605 79.3125C107.689 79.3854 107.73 79.4818 107.73 79.6016C107.73 79.7188 107.689 79.8151 107.605 79.8906C107.525 79.9635 107.388 80 107.195 80H104.473C104.28 80 104.142 79.9635 104.059 79.8906C103.978 79.8151 103.938 79.7174 103.938 79.5977C103.938 79.4805 103.978 79.3854 104.059 79.3125C104.142 79.237 104.28 79.1992 104.473 79.1992H105.434V77.2539H104.789C104.599 77.2539 104.462 77.2174 104.379 77.1445C104.296 77.069 104.254 76.9714 104.254 76.8516C104.254 76.7344 104.294 76.6393 104.375 76.5664C104.458 76.4909 104.596 76.4531 104.789 76.4531H106.234ZM111.508 77.3906C111.378 77.3099 111.241 77.25 111.098 77.2109C110.954 77.1693 110.805 77.1484 110.648 77.1484C110.339 77.1484 110.092 77.1992 109.91 77.3008C109.829 77.3451 109.789 77.3932 109.789 77.4453C109.789 77.5052 109.844 77.5638 109.953 77.6211C110.036 77.6628 110.223 77.7031 110.512 77.7422C111.043 77.8151 111.413 77.888 111.621 77.9609C111.895 78.0573 112.105 78.2005 112.254 78.3906C112.402 78.5807 112.477 78.7812 112.477 78.9922C112.477 79.2786 112.35 79.5182 112.098 79.7109C111.736 79.9896 111.266 80.1289 110.688 80.1289C110.456 80.1289 110.241 80.1081 110.043 80.0664C109.848 80.0273 109.668 79.9688 109.504 79.8906C109.465 79.9245 109.423 79.9505 109.379 79.9688C109.335 79.987 109.289 79.9961 109.242 79.9961C109.117 79.9961 109.017 79.9557 108.941 79.875C108.868 79.7917 108.832 79.6536 108.832 79.4609V79.1914C108.832 78.9987 108.868 78.862 108.941 78.7812C109.017 78.6979 109.115 78.6562 109.234 78.6562C109.331 78.6562 109.411 78.6836 109.477 78.7383C109.542 78.7904 109.592 78.8815 109.629 79.0117C109.751 79.1159 109.898 79.1953 110.07 79.25C110.242 79.3021 110.44 79.3281 110.664 79.3281C111.031 79.3281 111.316 79.2708 111.52 79.1562C111.616 79.099 111.664 79.0391 111.664 78.9766C111.664 78.8724 111.595 78.7865 111.457 78.7188C111.319 78.651 111.034 78.5938 110.602 78.5469C109.958 78.4792 109.529 78.349 109.312 78.1562C109.096 77.9661 108.988 77.7318 108.988 77.4531C108.988 77.1667 109.109 76.9284 109.352 76.7383C109.68 76.4779 110.109 76.3477 110.641 76.3477C110.826 76.3477 111.003 76.3659 111.172 76.4023C111.344 76.4362 111.508 76.4896 111.664 76.5625C111.714 76.526 111.759 76.4987 111.801 76.4805C111.845 76.4622 111.885 76.4531 111.922 76.4531C112.031 76.4531 112.122 76.4948 112.195 76.5781C112.268 76.6589 112.305 76.7956 112.305 76.9883V77.1836C112.305 77.3581 112.284 77.4766 112.242 77.5391C112.159 77.6589 112.046 77.7188 111.902 77.7188C111.806 77.7188 111.721 77.6888 111.648 77.6289C111.576 77.569 111.529 77.4896 111.508 77.3906ZM115.25 77.2539V78.8594C115.25 79.0312 115.285 79.1445 115.355 79.1992C115.465 79.2852 115.66 79.3281 115.941 79.3281C116.35 79.3281 116.728 79.2409 117.074 79.0664C117.207 78.9987 117.311 78.9648 117.387 78.9648C117.491 78.9648 117.581 79.0039 117.656 79.082C117.734 79.1602 117.773 79.2552 117.773 79.3672C117.773 79.4714 117.732 79.5612 117.648 79.6367C117.521 79.7591 117.268 79.8724 116.891 79.9766C116.516 80.0781 116.199 80.1289 115.941 80.1289C115.444 80.1289 115.07 80.0221 114.82 79.8086C114.573 79.5924 114.449 79.3281 114.449 79.0156V77.2539H114.16C113.967 77.2539 113.829 77.2174 113.746 77.1445C113.665 77.069 113.625 76.9714 113.625 76.8516C113.625 76.7344 113.665 76.6393 113.746 76.5664C113.829 76.4909 113.967 76.4531 114.16 76.4531H114.449V75.7305C114.449 75.5378 114.486 75.401 114.559 75.3203C114.634 75.237 114.732 75.1953 114.852 75.1953C114.969 75.1953 115.064 75.237 115.137 75.3203C115.212 75.401 115.25 75.5378 115.25 75.7305V76.4531H116.73C116.923 76.4531 117.06 76.4909 117.141 76.5664C117.224 76.6393 117.266 76.7357 117.266 76.8555C117.266 76.9727 117.224 77.069 117.141 77.1445C117.06 77.2174 116.923 77.2539 116.73 77.2539H115.25ZM120.414 78.0586C120.508 78.1654 120.572 78.2695 120.605 78.3711C120.639 78.4701 120.656 78.6315 120.656 78.8555V80.1289C120.656 80.2357 120.676 80.3112 120.715 80.3555C120.757 80.4023 120.832 80.4297 120.941 80.4375C121.051 80.4479 121.141 80.4909 121.211 80.5664C121.281 80.6419 121.316 80.7344 121.316 80.8438C121.316 80.9583 121.276 81.0547 121.195 81.1328C121.117 81.2109 121.017 81.25 120.895 81.25C120.72 81.25 120.552 81.2031 120.391 81.1094C120.229 81.0182 120.089 80.8685 119.969 80.6602C119.893 80.5247 119.855 80.3672 119.855 80.1875V78.7773C119.855 78.6654 119.837 78.5885 119.801 78.5469C119.764 78.5052 119.686 78.4779 119.566 78.4648C119.447 78.4492 119.354 78.4062 119.289 78.3359C119.227 78.2656 119.195 78.1732 119.195 78.0586C119.195 77.9414 119.227 77.8477 119.289 77.7773C119.354 77.707 119.447 77.6654 119.566 77.6523C119.689 77.6367 119.763 77.612 119.789 77.5781C119.833 77.526 119.855 77.4453 119.855 77.3359V76C119.855 75.7135 119.96 75.4661 120.168 75.2578C120.376 75.0469 120.617 74.9414 120.891 74.9414C121.016 74.9414 121.117 74.9805 121.195 75.0586C121.276 75.1367 121.316 75.2331 121.316 75.3477C121.316 75.4544 121.281 75.5456 121.211 75.6211C121.141 75.6966 121.049 75.7396 120.938 75.75C120.826 75.7604 120.755 75.7839 120.727 75.8203C120.68 75.875 120.656 75.9557 120.656 76.0625V77.3359C120.656 77.5156 120.638 77.6549 120.602 77.7539C120.568 77.8503 120.505 77.9518 120.414 78.0586ZM106.125 85.9336V86.7812H105.172V85.9336H106.125ZM106.234 87.4531V90.1992H107.195C107.388 90.1992 107.525 90.237 107.605 90.3125C107.689 90.3854 107.73 90.4818 107.73 90.6016C107.73 90.7188 107.689 90.8151 107.605 90.8906C107.525 90.9635 107.388 91 107.195 91H104.473C104.28 91 104.142 90.9635 104.059 90.8906C103.978 90.8151 103.938 90.7174 103.938 90.5977C103.938 90.4805 103.978 90.3854 104.059 90.3125C104.142 90.237 104.28 90.1992 104.473 90.1992H105.434V88.2539H104.789C104.599 88.2539 104.462 88.2174 104.379 88.1445C104.296 88.069 104.254 87.9714 104.254 87.8516C104.254 87.7344 104.294 87.6393 104.375 87.5664C104.458 87.4909 104.596 87.4531 104.789 87.4531H106.234ZM112.48 85.9336V90.1992H112.617C112.807 90.1992 112.944 90.237 113.027 90.3125C113.111 90.3854 113.152 90.4818 113.152 90.6016C113.152 90.7188 113.111 90.8151 113.027 90.8906C112.947 90.9635 112.81 91 112.617 91H111.68V90.8047C111.497 90.9115 111.306 90.9922 111.105 91.0469C110.908 91.1016 110.702 91.1289 110.488 91.1289C109.887 91.1289 109.402 90.9557 109.035 90.6094C108.668 90.2604 108.484 89.8268 108.484 89.3086C108.484 88.7669 108.677 88.3047 109.062 87.9219C109.448 87.5391 109.918 87.3477 110.473 87.3477C110.681 87.3477 110.885 87.3802 111.086 87.4453C111.286 87.5078 111.484 87.6029 111.68 87.7305V86.7344H111.543C111.35 86.7344 111.212 86.6979 111.129 86.625C111.048 86.5495 111.008 86.4531 111.008 86.3359C111.008 86.2161 111.048 86.1198 111.129 86.0469C111.212 85.9714 111.35 85.9336 111.543 85.9336H112.48ZM111.68 89.332C111.68 89.0013 111.564 88.7214 111.332 88.4922C111.1 88.263 110.816 88.1484 110.48 88.1484C110.147 88.1484 109.865 88.263 109.633 88.4922C109.401 88.7214 109.285 88.9974 109.285 89.3203C109.285 89.6146 109.389 89.8568 109.598 90.0469C109.806 90.2344 110.1 90.3281 110.48 90.3281C110.858 90.3281 111.152 90.2344 111.363 90.0469C111.574 89.8568 111.68 89.6185 111.68 89.332ZM105.027 98.4531V98.7227C105.173 98.5977 105.333 98.5039 105.508 98.4414C105.685 98.3789 105.876 98.3477 106.082 98.3477C106.556 98.3477 106.931 98.4948 107.207 98.7891C107.426 99.0234 107.535 99.3307 107.535 99.7109V101.199C107.704 101.199 107.829 101.237 107.91 101.312C107.991 101.385 108.031 101.482 108.031 101.602C108.031 101.719 107.99 101.815 107.906 101.891C107.826 101.964 107.689 102 107.496 102H106.773C106.581 102 106.443 101.964 106.359 101.891C106.279 101.815 106.238 101.717 106.238 101.598C106.238 101.48 106.279 101.385 106.359 101.312C106.44 101.237 106.565 101.199 106.734 101.199V99.6875C106.734 99.513 106.688 99.3854 106.594 99.3047C106.471 99.2005 106.288 99.1484 106.043 99.1484C105.858 99.1484 105.695 99.1849 105.555 99.2578C105.417 99.3281 105.241 99.4792 105.027 99.7109V101.199C105.233 101.199 105.366 101.219 105.426 101.258C105.553 101.336 105.617 101.451 105.617 101.602C105.617 101.719 105.576 101.815 105.492 101.891C105.411 101.964 105.275 102 105.082 102H104.172C103.979 102 103.841 101.964 103.758 101.891C103.677 101.815 103.637 101.717 103.637 101.598C103.637 101.452 103.699 101.339 103.824 101.258C103.887 101.219 104.021 101.199 104.227 101.199V99.2539C104.057 99.2539 103.932 99.2161 103.852 99.1406C103.771 99.0651 103.73 98.9688 103.73 98.8516C103.73 98.7344 103.771 98.6393 103.852 98.5664C103.935 98.4909 104.073 98.4531 104.266 98.4531H105.027ZM111.363 102V101.812C111.163 101.919 110.941 101.999 110.699 102.051C110.457 102.105 110.237 102.133 110.039 102.133C109.609 102.133 109.26 102.02 108.992 101.793C108.724 101.564 108.59 101.311 108.59 101.035C108.59 100.699 108.76 100.388 109.102 100.102C109.445 99.8125 109.919 99.668 110.523 99.668C110.766 99.668 111.046 99.694 111.363 99.7461V99.5547C111.363 99.4349 111.311 99.3372 111.207 99.2617C111.105 99.1862 110.91 99.1484 110.621 99.1484C110.384 99.1484 110.077 99.1953 109.699 99.2891C109.559 99.3229 109.449 99.3398 109.371 99.3398C109.264 99.3398 109.173 99.3021 109.098 99.2266C109.025 99.1484 108.988 99.0495 108.988 98.9297C108.988 98.862 109.001 98.8034 109.027 98.7539C109.053 98.7044 109.09 98.6654 109.137 98.6367C109.184 98.6055 109.281 98.569 109.43 98.5273C109.628 98.4727 109.829 98.4297 110.035 98.3984C110.241 98.3646 110.427 98.3477 110.594 98.3477C111.091 98.3477 111.477 98.4557 111.75 98.6719C112.026 98.8854 112.164 99.1784 112.164 99.5508V101.199H112.301C112.493 101.199 112.63 101.237 112.711 101.312C112.794 101.385 112.836 101.482 112.836 101.602C112.836 101.719 112.794 101.815 112.711 101.891C112.63 101.964 112.493 102 112.301 102H111.363ZM111.363 100.566C111.043 100.504 110.747 100.473 110.477 100.473C110.151 100.473 109.871 100.552 109.637 100.711C109.491 100.812 109.418 100.915 109.418 101.02C109.418 101.095 109.453 101.156 109.523 101.203C109.654 101.289 109.832 101.332 110.059 101.332C110.251 101.332 110.469 101.294 110.711 101.219C110.956 101.143 111.173 101.04 111.363 100.91V100.566ZM114.211 98.4531V98.6797C114.341 98.5521 114.458 98.4648 114.562 98.418C114.669 98.3685 114.792 98.3438 114.93 98.3438C115.047 98.3438 115.163 98.3724 115.277 98.4297C115.392 98.487 115.504 98.5729 115.613 98.6875C115.751 98.5729 115.891 98.4883 116.031 98.4336C116.174 98.3763 116.32 98.3477 116.469 98.3477C116.766 98.3477 117.007 98.4271 117.191 98.5859C117.436 98.7943 117.559 99.0677 117.559 99.4062V101.199C117.725 101.199 117.849 101.237 117.93 101.312C118.01 101.388 118.051 101.484 118.051 101.602C118.051 101.719 118.01 101.815 117.93 101.891C117.849 101.964 117.712 102 117.52 102H116.758V99.4727C116.758 99.3503 116.736 99.2656 116.691 99.2188C116.647 99.1719 116.579 99.1484 116.488 99.1484C116.4 99.1484 116.318 99.1719 116.242 99.2188C116.146 99.2839 116.029 99.4062 115.891 99.5859V101.199C116.057 101.199 116.181 101.237 116.262 101.312C116.342 101.388 116.383 101.484 116.383 101.602C116.383 101.719 116.342 101.815 116.262 101.891C116.181 101.964 116.044 102 115.852 102H115.09V99.4727C115.09 99.3529 115.066 99.2695 115.02 99.2227C114.975 99.1732 114.908 99.1484 114.816 99.1484C114.723 99.1484 114.63 99.1784 114.539 99.2383C114.448 99.2956 114.339 99.4115 114.211 99.5859V101.199C114.378 101.199 114.501 101.237 114.582 101.312C114.665 101.388 114.707 101.484 114.707 101.602C114.707 101.719 114.665 101.815 114.582 101.891C114.501 101.964 114.365 102 114.172 102H113.449C113.257 102 113.12 101.964 113.039 101.891C112.956 101.815 112.914 101.717 112.914 101.598C112.914 101.48 112.954 101.385 113.035 101.312C113.116 101.237 113.241 101.199 113.41 101.199V99.2539C113.241 99.2539 113.116 99.2161 113.035 99.1406C112.954 99.0651 112.914 98.9688 112.914 98.8516C112.914 98.7344 112.956 98.6393 113.039 98.5664C113.12 98.4909 113.257 98.4531 113.449 98.4531H114.211ZM122.262 100.633H118.977C119.06 100.841 119.207 101.009 119.418 101.137C119.632 101.264 119.919 101.328 120.281 101.328C120.578 101.328 120.973 101.264 121.465 101.137C121.668 101.085 121.809 101.059 121.887 101.059C121.993 101.059 122.083 101.096 122.156 101.172C122.229 101.247 122.266 101.342 122.266 101.457C122.266 101.561 122.227 101.65 122.148 101.723C122.044 101.819 121.79 101.911 121.387 102C120.983 102.086 120.595 102.129 120.223 102.129C119.582 102.129 119.069 101.948 118.684 101.586C118.301 101.224 118.109 100.779 118.109 100.25C118.109 99.6875 118.316 99.2305 118.73 98.8789C119.147 98.5247 119.626 98.3477 120.168 98.3477C120.493 98.3477 120.792 98.4049 121.062 98.5195C121.336 98.6341 121.539 98.7578 121.672 98.8906C121.859 99.0833 122.014 99.3216 122.137 99.6055C122.22 99.8034 122.262 100.033 122.262 100.293V100.633ZM121.375 99.832C121.253 99.6029 121.092 99.4323 120.895 99.3203C120.697 99.2057 120.461 99.1484 120.188 99.1484C119.917 99.1484 119.682 99.2057 119.484 99.3203C119.286 99.4323 119.125 99.6029 119 99.832H121.375ZM106.559 113V112.812C106.358 112.919 106.137 112.999 105.895 113.051C105.652 113.105 105.432 113.133 105.234 113.133C104.805 113.133 104.456 113.02 104.188 112.793C103.919 112.564 103.785 112.311 103.785 112.035C103.785 111.699 103.956 111.388 104.297 111.102C104.641 110.812 105.115 110.668 105.719 110.668C105.961 110.668 106.241 110.694 106.559 110.746V110.555C106.559 110.435 106.507 110.337 106.402 110.262C106.301 110.186 106.105 110.148 105.816 110.148C105.579 110.148 105.272 110.195 104.895 110.289C104.754 110.323 104.645 110.34 104.566 110.34C104.46 110.34 104.368 110.302 104.293 110.227C104.22 110.148 104.184 110.049 104.184 109.93C104.184 109.862 104.197 109.803 104.223 109.754C104.249 109.704 104.285 109.665 104.332 109.637C104.379 109.605 104.477 109.569 104.625 109.527C104.823 109.473 105.025 109.43 105.23 109.398C105.436 109.365 105.622 109.348 105.789 109.348C106.286 109.348 106.672 109.456 106.945 109.672C107.221 109.885 107.359 110.178 107.359 110.551V112.199H107.496C107.689 112.199 107.826 112.237 107.906 112.312C107.99 112.385 108.031 112.482 108.031 112.602C108.031 112.719 107.99 112.815 107.906 112.891C107.826 112.964 107.689 113 107.496 113H106.559ZM106.559 111.566C106.238 111.504 105.943 111.473 105.672 111.473C105.346 111.473 105.066 111.552 104.832 111.711C104.686 111.812 104.613 111.915 104.613 112.02C104.613 112.095 104.648 112.156 104.719 112.203C104.849 112.289 105.027 112.332 105.254 112.332C105.447 112.332 105.664 112.294 105.906 112.219C106.151 112.143 106.368 112.04 106.559 111.91V111.566ZM111.043 107.934V112.199H112.004C112.197 112.199 112.333 112.237 112.414 112.312C112.497 112.385 112.539 112.482 112.539 112.602C112.539 112.719 112.497 112.815 112.414 112.891C112.333 112.964 112.197 113 112.004 113H109.281C109.089 113 108.951 112.964 108.867 112.891C108.786 112.815 108.746 112.717 108.746 112.598C108.746 112.48 108.786 112.385 108.867 112.312C108.951 112.237 109.089 112.199 109.281 112.199H110.242V108.734H109.598C109.408 108.734 109.271 108.698 109.188 108.625C109.104 108.549 109.062 108.452 109.062 108.332C109.062 108.215 109.103 108.12 109.184 108.047C109.267 107.971 109.405 107.934 109.598 107.934H111.043ZM114.438 107.934V109.73C114.633 109.603 114.831 109.508 115.031 109.445C115.234 109.38 115.439 109.348 115.645 109.348C116.199 109.348 116.669 109.539 117.055 109.922C117.44 110.305 117.633 110.767 117.633 111.309C117.633 111.827 117.449 112.26 117.082 112.609C116.715 112.956 116.23 113.129 115.629 113.129C115.415 113.129 115.21 113.102 115.012 113.047C114.814 112.992 114.622 112.911 114.438 112.805V113H113.5C113.307 113 113.169 112.964 113.086 112.891C113.005 112.815 112.965 112.717 112.965 112.598C112.965 112.48 113.007 112.385 113.09 112.312C113.173 112.237 113.31 112.199 113.5 112.199H113.637V108.734H113.5C113.307 108.734 113.169 108.698 113.086 108.625C113.005 108.549 112.965 108.452 112.965 108.332C112.965 108.215 113.005 108.12 113.086 108.047C113.169 107.971 113.307 107.934 113.5 107.934H114.438ZM116.832 111.332C116.832 111.001 116.716 110.721 116.484 110.492C116.253 110.263 115.969 110.148 115.633 110.148C115.299 110.148 115.017 110.263 114.785 110.492C114.553 110.721 114.438 110.997 114.438 111.32C114.438 111.615 114.542 111.857 114.75 112.047C114.958 112.234 115.253 112.328 115.633 112.328C116.013 112.328 116.307 112.234 116.516 112.047C116.727 111.857 116.832 111.618 116.832 111.332ZM121.953 109.453V112.199C122.122 112.199 122.247 112.237 122.328 112.312C122.409 112.388 122.449 112.484 122.449 112.602C122.449 112.719 122.408 112.815 122.324 112.891C122.243 112.964 122.107 113 121.914 113H121.152V112.816C120.923 112.921 120.704 112.999 120.496 113.051C120.288 113.103 120.09 113.129 119.902 113.129C119.639 113.129 119.411 113.074 119.219 112.965C119.026 112.853 118.874 112.699 118.762 112.504C118.681 112.363 118.641 112.188 118.641 111.977V110.254H118.504C118.311 110.254 118.173 110.217 118.09 110.145C118.009 110.069 117.969 109.971 117.969 109.852C117.969 109.734 118.009 109.639 118.09 109.566C118.173 109.491 118.311 109.453 118.504 109.453H119.441V111.836C119.441 112.005 119.482 112.13 119.562 112.211C119.646 112.289 119.772 112.328 119.941 112.328C120.103 112.328 120.276 112.297 120.461 112.234C120.648 112.169 120.879 112.053 121.152 111.887V110.254H120.863C120.671 110.254 120.533 110.217 120.449 110.145C120.368 110.069 120.328 109.971 120.328 109.852C120.328 109.734 120.368 109.639 120.449 109.566C120.533 109.491 120.671 109.453 120.863 109.453H121.953ZM123.82 109.453V109.68C123.951 109.552 124.068 109.465 124.172 109.418C124.279 109.368 124.401 109.344 124.539 109.344C124.656 109.344 124.772 109.372 124.887 109.43C125.001 109.487 125.113 109.573 125.223 109.688C125.361 109.573 125.5 109.488 125.641 109.434C125.784 109.376 125.93 109.348 126.078 109.348C126.375 109.348 126.616 109.427 126.801 109.586C127.046 109.794 127.168 110.068 127.168 110.406V112.199C127.335 112.199 127.458 112.237 127.539 112.312C127.62 112.388 127.66 112.484 127.66 112.602C127.66 112.719 127.62 112.815 127.539 112.891C127.458 112.964 127.322 113 127.129 113H126.367V110.473C126.367 110.35 126.345 110.266 126.301 110.219C126.257 110.172 126.189 110.148 126.098 110.148C126.009 110.148 125.927 110.172 125.852 110.219C125.755 110.284 125.638 110.406 125.5 110.586V112.199C125.667 112.199 125.79 112.237 125.871 112.312C125.952 112.388 125.992 112.484 125.992 112.602C125.992 112.719 125.952 112.815 125.871 112.891C125.79 112.964 125.654 113 125.461 113H124.699V110.473C124.699 110.353 124.676 110.27 124.629 110.223C124.585 110.173 124.517 110.148 124.426 110.148C124.332 110.148 124.24 110.178 124.148 110.238C124.057 110.296 123.948 110.411 123.82 110.586V112.199C123.987 112.199 124.111 112.237 124.191 112.312C124.275 112.388 124.316 112.484 124.316 112.602C124.316 112.719 124.275 112.815 124.191 112.891C124.111 112.964 123.974 113 123.781 113H123.059C122.866 113 122.729 112.964 122.648 112.891C122.565 112.815 122.523 112.717 122.523 112.598C122.523 112.48 122.564 112.385 122.645 112.312C122.725 112.237 122.85 112.199 123.02 112.199V110.254C122.85 110.254 122.725 110.216 122.645 110.141C122.564 110.065 122.523 109.969 122.523 109.852C122.523 109.734 122.565 109.639 122.648 109.566C122.729 109.491 122.866 109.453 123.059 109.453H123.82ZM130.727 110.391C130.596 110.31 130.46 110.25 130.316 110.211C130.173 110.169 130.023 110.148 129.867 110.148C129.557 110.148 129.311 110.199 129.129 110.301C129.048 110.345 129.008 110.393 129.008 110.445C129.008 110.505 129.062 110.564 129.172 110.621C129.255 110.663 129.441 110.703 129.73 110.742C130.262 110.815 130.632 110.888 130.84 110.961C131.113 111.057 131.324 111.201 131.473 111.391C131.621 111.581 131.695 111.781 131.695 111.992C131.695 112.279 131.569 112.518 131.316 112.711C130.954 112.99 130.484 113.129 129.906 113.129C129.674 113.129 129.46 113.108 129.262 113.066C129.066 113.027 128.887 112.969 128.723 112.891C128.684 112.924 128.642 112.951 128.598 112.969C128.553 112.987 128.508 112.996 128.461 112.996C128.336 112.996 128.236 112.956 128.16 112.875C128.087 112.792 128.051 112.654 128.051 112.461V112.191C128.051 111.999 128.087 111.862 128.16 111.781C128.236 111.698 128.333 111.656 128.453 111.656C128.549 111.656 128.63 111.684 128.695 111.738C128.76 111.79 128.811 111.882 128.848 112.012C128.97 112.116 129.117 112.195 129.289 112.25C129.461 112.302 129.659 112.328 129.883 112.328C130.25 112.328 130.535 112.271 130.738 112.156C130.835 112.099 130.883 112.039 130.883 111.977C130.883 111.872 130.814 111.786 130.676 111.719C130.538 111.651 130.253 111.594 129.82 111.547C129.177 111.479 128.747 111.349 128.531 111.156C128.315 110.966 128.207 110.732 128.207 110.453C128.207 110.167 128.328 109.928 128.57 109.738C128.898 109.478 129.328 109.348 129.859 109.348C130.044 109.348 130.221 109.366 130.391 109.402C130.562 109.436 130.727 109.49 130.883 109.562C130.932 109.526 130.978 109.499 131.02 109.48C131.064 109.462 131.104 109.453 131.141 109.453C131.25 109.453 131.341 109.495 131.414 109.578C131.487 109.659 131.523 109.796 131.523 109.988V110.184C131.523 110.358 131.503 110.477 131.461 110.539C131.378 110.659 131.264 110.719 131.121 110.719C131.025 110.719 130.94 110.689 130.867 110.629C130.794 110.569 130.747 110.49 130.727 110.391ZM139.633 111.059C139.727 111.165 139.79 111.27 139.824 111.371C139.858 111.47 139.875 111.632 139.875 111.855V113.129C139.875 113.236 139.895 113.311 139.934 113.355C139.975 113.402 140.051 113.43 140.16 113.438C140.27 113.448 140.359 113.491 140.43 113.566C140.5 113.642 140.535 113.734 140.535 113.844C140.535 113.958 140.495 114.055 140.414 114.133C140.336 114.211 140.236 114.25 140.113 114.25C139.939 114.25 139.771 114.203 139.609 114.109C139.448 114.018 139.307 113.868 139.188 113.66C139.112 113.525 139.074 113.367 139.074 113.188V111.777C139.074 111.665 139.056 111.589 139.02 111.547C138.983 111.505 138.905 111.478 138.785 111.465C138.665 111.449 138.573 111.406 138.508 111.336C138.445 111.266 138.414 111.173 138.414 111.059C138.414 110.941 138.445 110.848 138.508 110.777C138.573 110.707 138.665 110.665 138.785 110.652C138.908 110.637 138.982 110.612 139.008 110.578C139.052 110.526 139.074 110.445 139.074 110.336V109C139.074 108.714 139.178 108.466 139.387 108.258C139.595 108.047 139.836 107.941 140.109 107.941C140.234 107.941 140.336 107.98 140.414 108.059C140.495 108.137 140.535 108.233 140.535 108.348C140.535 108.454 140.5 108.546 140.43 108.621C140.359 108.697 140.268 108.74 140.156 108.75C140.044 108.76 139.974 108.784 139.945 108.82C139.898 108.875 139.875 108.956 139.875 109.062V110.336C139.875 110.516 139.857 110.655 139.82 110.754C139.786 110.85 139.724 110.952 139.633 111.059ZM120.539 118.934V119.781H119.586V118.934H120.539ZM120.648 120.453V123.199H121.609C121.802 123.199 121.939 123.237 122.02 123.312C122.103 123.385 122.145 123.482 122.145 123.602C122.145 123.719 122.103 123.815 122.02 123.891C121.939 123.964 121.802 124 121.609 124H118.887C118.694 124 118.556 123.964 118.473 123.891C118.392 123.815 118.352 123.717 118.352 123.598C118.352 123.48 118.392 123.385 118.473 123.312C118.556 123.237 118.694 123.199 118.887 123.199H119.848V121.254H119.203C119.013 121.254 118.876 121.217 118.793 121.145C118.71 121.069 118.668 120.971 118.668 120.852C118.668 120.734 118.708 120.639 118.789 120.566C118.872 120.491 119.01 120.453 119.203 120.453H120.648ZM126.895 118.934V123.199H127.031C127.221 123.199 127.358 123.237 127.441 123.312C127.525 123.385 127.566 123.482 127.566 123.602C127.566 123.719 127.525 123.815 127.441 123.891C127.361 123.964 127.224 124 127.031 124H126.094V123.805C125.911 123.911 125.72 123.992 125.52 124.047C125.322 124.102 125.116 124.129 124.902 124.129C124.301 124.129 123.816 123.956 123.449 123.609C123.082 123.26 122.898 122.827 122.898 122.309C122.898 121.767 123.091 121.305 123.477 120.922C123.862 120.539 124.332 120.348 124.887 120.348C125.095 120.348 125.299 120.38 125.5 120.445C125.701 120.508 125.898 120.603 126.094 120.73V119.734H125.957C125.764 119.734 125.626 119.698 125.543 119.625C125.462 119.549 125.422 119.453 125.422 119.336C125.422 119.216 125.462 119.12 125.543 119.047C125.626 118.971 125.764 118.934 125.957 118.934H126.895ZM126.094 122.332C126.094 122.001 125.978 121.721 125.746 121.492C125.514 121.263 125.23 121.148 124.895 121.148C124.561 121.148 124.279 121.263 124.047 121.492C123.815 121.721 123.699 121.997 123.699 122.32C123.699 122.615 123.803 122.857 124.012 123.047C124.22 123.234 124.514 123.328 124.895 123.328C125.272 123.328 125.566 123.234 125.777 123.047C125.988 122.857 126.094 122.618 126.094 122.332ZM119.441 131.453V131.723C119.587 131.598 119.747 131.504 119.922 131.441C120.099 131.379 120.29 131.348 120.496 131.348C120.97 131.348 121.345 131.495 121.621 131.789C121.84 132.023 121.949 132.331 121.949 132.711V134.199C122.118 134.199 122.243 134.237 122.324 134.312C122.405 134.385 122.445 134.482 122.445 134.602C122.445 134.719 122.404 134.815 122.32 134.891C122.24 134.964 122.103 135 121.91 135H121.188C120.995 135 120.857 134.964 120.773 134.891C120.693 134.815 120.652 134.717 120.652 134.598C120.652 134.48 120.693 134.385 120.773 134.312C120.854 134.237 120.979 134.199 121.148 134.199V132.688C121.148 132.513 121.102 132.385 121.008 132.305C120.885 132.201 120.702 132.148 120.457 132.148C120.272 132.148 120.109 132.185 119.969 132.258C119.831 132.328 119.655 132.479 119.441 132.711V134.199C119.647 134.199 119.78 134.219 119.84 134.258C119.967 134.336 120.031 134.451 120.031 134.602C120.031 134.719 119.99 134.815 119.906 134.891C119.826 134.964 119.689 135 119.496 135H118.586C118.393 135 118.255 134.964 118.172 134.891C118.091 134.815 118.051 134.717 118.051 134.598C118.051 134.452 118.113 134.339 118.238 134.258C118.301 134.219 118.435 134.199 118.641 134.199V132.254C118.471 132.254 118.346 132.216 118.266 132.141C118.185 132.065 118.145 131.969 118.145 131.852C118.145 131.734 118.185 131.639 118.266 131.566C118.349 131.491 118.487 131.453 118.68 131.453H119.441ZM125.777 135V134.812C125.577 134.919 125.355 134.999 125.113 135.051C124.871 135.105 124.651 135.133 124.453 135.133C124.023 135.133 123.674 135.02 123.406 134.793C123.138 134.564 123.004 134.311 123.004 134.035C123.004 133.699 123.174 133.388 123.516 133.102C123.859 132.812 124.333 132.668 124.938 132.668C125.18 132.668 125.46 132.694 125.777 132.746V132.555C125.777 132.435 125.725 132.337 125.621 132.262C125.52 132.186 125.324 132.148 125.035 132.148C124.798 132.148 124.491 132.195 124.113 132.289C123.973 132.323 123.863 132.34 123.785 132.34C123.678 132.34 123.587 132.302 123.512 132.227C123.439 132.148 123.402 132.049 123.402 131.93C123.402 131.862 123.415 131.803 123.441 131.754C123.467 131.704 123.504 131.665 123.551 131.637C123.598 131.605 123.695 131.569 123.844 131.527C124.042 131.473 124.243 131.43 124.449 131.398C124.655 131.365 124.841 131.348 125.008 131.348C125.505 131.348 125.891 131.456 126.164 131.672C126.44 131.885 126.578 132.178 126.578 132.551V134.199H126.715C126.908 134.199 127.044 134.237 127.125 134.312C127.208 134.385 127.25 134.482 127.25 134.602C127.25 134.719 127.208 134.815 127.125 134.891C127.044 134.964 126.908 135 126.715 135H125.777ZM125.777 133.566C125.457 133.504 125.161 133.473 124.891 133.473C124.565 133.473 124.285 133.552 124.051 133.711C123.905 133.812 123.832 133.915 123.832 134.02C123.832 134.095 123.867 134.156 123.938 134.203C124.068 134.289 124.246 134.332 124.473 134.332C124.665 134.332 124.883 134.294 125.125 134.219C125.37 134.143 125.587 134.04 125.777 133.91V133.566ZM128.625 131.453V131.68C128.755 131.552 128.872 131.465 128.977 131.418C129.083 131.368 129.206 131.344 129.344 131.344C129.461 131.344 129.577 131.372 129.691 131.43C129.806 131.487 129.918 131.573 130.027 131.688C130.165 131.573 130.305 131.488 130.445 131.434C130.589 131.376 130.734 131.348 130.883 131.348C131.18 131.348 131.421 131.427 131.605 131.586C131.85 131.794 131.973 132.068 131.973 132.406V134.199C132.139 134.199 132.263 134.237 132.344 134.312C132.424 134.388 132.465 134.484 132.465 134.602C132.465 134.719 132.424 134.815 132.344 134.891C132.263 134.964 132.126 135 131.934 135H131.172V132.473C131.172 132.35 131.15 132.266 131.105 132.219C131.061 132.172 130.993 132.148 130.902 132.148C130.814 132.148 130.732 132.172 130.656 132.219C130.56 132.284 130.443 132.406 130.305 132.586V134.199C130.471 134.199 130.595 134.237 130.676 134.312C130.757 134.388 130.797 134.484 130.797 134.602C130.797 134.719 130.757 134.815 130.676 134.891C130.595 134.964 130.458 135 130.266 135H129.504V132.473C129.504 132.353 129.48 132.27 129.434 132.223C129.389 132.173 129.322 132.148 129.23 132.148C129.137 132.148 129.044 132.178 128.953 132.238C128.862 132.296 128.753 132.411 128.625 132.586V134.199C128.792 134.199 128.915 134.237 128.996 134.312C129.079 134.388 129.121 134.484 129.121 134.602C129.121 134.719 129.079 134.815 128.996 134.891C128.915 134.964 128.779 135 128.586 135H127.863C127.671 135 127.534 134.964 127.453 134.891C127.37 134.815 127.328 134.717 127.328 134.598C127.328 134.48 127.368 134.385 127.449 134.312C127.53 134.237 127.655 134.199 127.824 134.199V132.254C127.655 132.254 127.53 132.216 127.449 132.141C127.368 132.065 127.328 131.969 127.328 131.852C127.328 131.734 127.37 131.639 127.453 131.566C127.534 131.491 127.671 131.453 127.863 131.453H128.625ZM136.676 133.633H133.391C133.474 133.841 133.621 134.009 133.832 134.137C134.046 134.264 134.333 134.328 134.695 134.328C134.992 134.328 135.387 134.264 135.879 134.137C136.082 134.085 136.223 134.059 136.301 134.059C136.408 134.059 136.497 134.096 136.57 134.172C136.643 134.247 136.68 134.342 136.68 134.457C136.68 134.561 136.641 134.65 136.562 134.723C136.458 134.819 136.204 134.911 135.801 135C135.397 135.086 135.009 135.129 134.637 135.129C133.996 135.129 133.483 134.948 133.098 134.586C132.715 134.224 132.523 133.779 132.523 133.25C132.523 132.688 132.73 132.23 133.145 131.879C133.561 131.525 134.04 131.348 134.582 131.348C134.908 131.348 135.206 131.405 135.477 131.52C135.75 131.634 135.953 131.758 136.086 131.891C136.273 132.083 136.428 132.322 136.551 132.605C136.634 132.803 136.676 133.033 136.676 133.293V133.633ZM135.789 132.832C135.667 132.603 135.507 132.432 135.309 132.32C135.111 132.206 134.875 132.148 134.602 132.148C134.331 132.148 134.096 132.206 133.898 132.32C133.701 132.432 133.539 132.603 133.414 132.832H135.789Z" fill="#3E7BCC"/>
<path d="M92.2188 155.059C92.1276 154.952 92.0638 154.849 92.0273 154.75C91.9935 154.648 91.9766 154.51 91.9766 154.336V153.062C91.9766 152.956 91.9557 152.88 91.9141 152.836C91.875 152.789 91.8008 152.76 91.6914 152.75C91.582 152.74 91.4922 152.697 91.4219 152.621C91.3516 152.546 91.3164 152.454 91.3164 152.348C91.3164 152.233 91.3555 152.137 91.4336 152.059C91.5143 151.98 91.6159 151.941 91.7383 151.941C91.9128 151.941 92.0807 151.988 92.2422 152.082C92.4036 152.173 92.5443 152.323 92.6641 152.531C92.7396 152.667 92.7773 152.823 92.7773 153V154.336C92.7773 154.448 92.7956 154.526 92.832 154.57C92.8685 154.612 92.9466 154.639 93.0664 154.652C93.1862 154.665 93.2773 154.707 93.3398 154.777C93.4049 154.848 93.4375 154.941 93.4375 155.059C93.4375 155.173 93.4049 155.266 93.3398 155.336C93.2773 155.406 93.1849 155.449 93.0625 155.465C92.9427 155.478 92.8698 155.501 92.8438 155.535C92.7995 155.587 92.7773 155.668 92.7773 155.777V157.188C92.7773 157.477 92.6732 157.725 92.4648 157.934C92.2565 158.145 92.0156 158.25 91.7422 158.25C91.6172 158.25 91.5143 158.211 91.4336 158.133C91.3555 158.055 91.3164 157.958 91.3164 157.844C91.3164 157.737 91.3516 157.646 91.4219 157.57C91.4922 157.495 91.5833 157.452 91.6953 157.441C91.8073 157.431 91.8776 157.408 91.9062 157.371C91.9531 157.316 91.9766 157.236 91.9766 157.129V155.855C91.9766 155.632 91.9922 155.47 92.0234 155.371C92.0573 155.272 92.1224 155.168 92.2188 155.059Z" fill="#4A788D"/>
<path d="M106.219 144.059C106.128 143.952 106.064 143.849 106.027 143.75C105.993 143.648 105.977 143.51 105.977 143.336V142.062C105.977 141.956 105.956 141.88 105.914 141.836C105.875 141.789 105.801 141.76 105.691 141.75C105.582 141.74 105.492 141.697 105.422 141.621C105.352 141.546 105.316 141.454 105.316 141.348C105.316 141.233 105.355 141.137 105.434 141.059C105.514 140.98 105.616 140.941 105.738 140.941C105.913 140.941 106.081 140.988 106.242 141.082C106.404 141.173 106.544 141.323 106.664 141.531C106.74 141.667 106.777 141.823 106.777 142V143.336C106.777 143.448 106.796 143.526 106.832 143.57C106.868 143.612 106.947 143.639 107.066 143.652C107.186 143.665 107.277 143.707 107.34 143.777C107.405 143.848 107.438 143.941 107.438 144.059C107.438 144.173 107.405 144.266 107.34 144.336C107.277 144.406 107.185 144.449 107.062 144.465C106.943 144.478 106.87 144.501 106.844 144.535C106.799 144.587 106.777 144.668 106.777 144.777V146.188C106.777 146.477 106.673 146.725 106.465 146.934C106.257 147.145 106.016 147.25 105.742 147.25C105.617 147.25 105.514 147.211 105.434 147.133C105.355 147.055 105.316 146.958 105.316 146.844C105.316 146.737 105.352 146.646 105.422 146.57C105.492 146.495 105.583 146.452 105.695 146.441C105.807 146.431 105.878 146.408 105.906 146.371C105.953 146.316 105.977 146.236 105.977 146.129V144.855C105.977 144.632 105.992 144.47 106.023 144.371C106.057 144.272 106.122 144.168 106.219 144.059Z" fill="#4A788D"/>
<path d="M81.2188 165.059C81.1276 164.952 81.0638 164.849 81.0273 164.75C80.9935 164.648 80.9766 164.51 80.9766 164.336V163.062C80.9766 162.956 80.9557 162.88 80.9141 162.836C80.875 162.789 80.8008 162.76 80.6914 162.75C80.582 162.74 80.4922 162.697 80.4219 162.621C80.3516 162.546 80.3164 162.454 80.3164 162.348C80.3164 162.233 80.3555 162.137 80.4336 162.059C80.5143 161.98 80.6159 161.941 80.7383 161.941C80.9128 161.941 81.0807 161.988 81.2422 162.082C81.4036 162.173 81.5443 162.323 81.6641 162.531C81.7396 162.667 81.7773 162.823 81.7773 163V164.336C81.7773 164.448 81.7956 164.526 81.832 164.57C81.8685 164.612 81.9466 164.639 82.0664 164.652C82.1862 164.665 82.2773 164.707 82.3398 164.777C82.4049 164.848 82.4375 164.941 82.4375 165.059C82.4375 165.173 82.4049 165.266 82.3398 165.336C82.2773 165.406 82.1849 165.449 82.0625 165.465C81.9427 165.478 81.8698 165.501 81.8438 165.535C81.7995 165.587 81.7773 165.668 81.7773 165.777V167.188C81.7773 167.477 81.6732 167.725 81.4648 167.934C81.2565 168.145 81.0156 168.25 80.7422 168.25C80.6172 168.25 80.5143 168.211 80.4336 168.133C80.3555 168.055 80.3164 167.958 80.3164 167.844C80.3164 167.737 80.3516 167.646 80.4219 167.57C80.4922 167.495 80.5833 167.452 80.6953 167.441C80.8073 167.431 80.8776 167.408 80.9062 167.371C80.9531 167.316 80.9766 167.236 80.9766 167.129V165.855C80.9766 165.632 80.9922 165.47 81.0234 165.371C81.0573 165.272 81.1224 165.168 81.2188 165.059Z" fill="#4A788D"/>
<path d="M43.4569 25.677H44.5364L45.2964 26.6677L45.6551 27.1081L46.866 28.6883H45.7438L44.9342 27.6336L44.6572 27.2501L43.4569 25.677ZM47.1004 24.3985C47.1004 25.1751 46.9583 25.8427 46.6742 26.4014C46.3901 26.9577 46.0007 27.3862 45.5059 27.6869C45.0135 27.9852 44.4536 28.1343 43.8262 28.1343C43.1965 28.1343 42.6342 27.9852 42.1394 27.6869C41.647 27.3862 41.2587 26.9566 40.9747 26.3978C40.6906 25.8391 40.5485 25.1727 40.5485 24.3985C40.5485 23.622 40.6906 22.9556 40.9747 22.3993C41.2587 21.8405 41.647 21.412 42.1394 21.1137C42.6342 20.8131 43.1965 20.6628 43.8262 20.6628C44.4536 20.6628 45.0135 20.8131 45.5059 21.1137C46.0007 21.412 46.3901 21.8405 46.6742 22.3993C46.9583 22.9556 47.1004 23.622 47.1004 24.3985ZM46.0137 24.3985C46.0137 23.8067 45.9178 23.3083 45.7261 22.9035C45.5367 22.4963 45.2763 22.1886 44.9448 21.9802C44.6158 21.7695 44.2429 21.6642 43.8262 21.6642C43.4072 21.6642 43.0331 21.7695 42.7041 21.9802C42.375 22.1886 42.1146 22.4963 41.9228 22.9035C41.7334 23.3083 41.6387 23.8067 41.6387 24.3985C41.6387 24.9904 41.7334 25.4899 41.9228 25.8971C42.1146 26.302 42.375 26.6097 42.7041 26.8204C43.0331 27.0288 43.4072 27.1329 43.8262 27.1329C44.2429 27.1329 44.6158 27.0288 44.9448 26.8204C45.2763 26.6097 45.5367 26.302 45.7261 25.8971C45.9178 25.4899 46.0137 24.9904 46.0137 24.3985ZM51.8385 25.7728V22.5804H52.9038V28.0349H51.8598V27.0903H51.803C51.6775 27.3815 51.4763 27.6242 51.1993 27.8183C50.9246 28.0101 50.5825 28.1059 50.173 28.1059C49.8226 28.1059 49.5125 28.029 49.2426 27.8751C48.9751 27.7189 48.7644 27.488 48.6105 27.1826C48.459 26.8772 48.3832 26.4996 48.3832 26.0498V22.5804H49.445V25.922C49.445 26.2937 49.548 26.5896 49.754 26.8098C49.9599 27.0299 50.2274 27.14 50.5565 27.14C50.7554 27.14 50.9531 27.0903 51.1495 26.9909C51.3484 26.8914 51.5129 26.7411 51.6432 26.5399C51.7757 26.3387 51.8408 26.083 51.8385 25.7728ZM56.6813 28.145C56.1439 28.145 55.6811 28.0302 55.2928 27.8005C54.9069 27.5685 54.6086 27.243 54.3979 26.824C54.1896 26.4026 54.0854 25.909 54.0854 25.3432C54.0854 24.7844 54.1896 24.292 54.3979 23.8659C54.6086 23.4397 54.9022 23.1071 55.2786 22.868C55.6574 22.6289 56.1001 22.5093 56.6068 22.5093C56.9145 22.5093 57.2128 22.5602 57.5016 22.662C57.7905 22.7638 58.0497 22.9236 58.2793 23.1414C58.509 23.3592 58.6901 23.6422 58.8227 23.9902C58.9552 24.3358 59.0215 24.756 59.0215 25.2508V25.6272H54.6856V24.8318H57.981C57.981 24.5524 57.9242 24.305 57.8106 24.0896C57.697 23.8718 57.5372 23.7002 57.3312 23.5747C57.1276 23.4492 56.8885 23.3865 56.6139 23.3865C56.3156 23.3865 56.0551 23.4599 55.8326 23.6066C55.6124 23.7511 55.442 23.9405 55.3212 24.1748C55.2029 24.4068 55.1437 24.659 55.1437 24.9312V25.5527C55.1437 25.9173 55.2076 26.2274 55.3354 26.4831C55.4657 26.7387 55.6468 26.9341 55.8788 27.069C56.1108 27.2016 56.3819 27.2679 56.692 27.2679C56.8932 27.2679 57.0767 27.2395 57.2424 27.1826C57.4081 27.1235 57.5514 27.0359 57.6721 26.9199C57.7928 26.8039 57.8852 26.6606 57.9491 26.4902L58.9541 26.6713C58.8736 26.9672 58.7292 27.2264 58.5208 27.449C58.3149 27.6691 58.0556 27.8408 57.7431 27.9639C57.433 28.0846 57.0791 28.145 56.6813 28.145ZM60.1996 28.0349V22.5804H61.2259V23.4468H61.2827C61.3821 23.1533 61.5573 22.9225 61.8083 22.7544C62.0616 22.5839 62.3481 22.4987 62.6677 22.4987C62.7339 22.4987 62.8121 22.5011 62.902 22.5058C62.9944 22.5105 63.0666 22.5164 63.1187 22.5235V23.5392C63.076 23.5273 63.0003 23.5143 62.8914 23.5001C62.7825 23.4835 62.6736 23.4753 62.5647 23.4753C62.3137 23.4753 62.09 23.5285 61.8935 23.6351C61.6994 23.7392 61.5455 23.8848 61.4319 24.0718C61.3182 24.2565 61.2614 24.4672 61.2614 24.7039V28.0349H60.1996ZM64.0375 28.0349V22.5804H65.0993V28.0349H64.0375ZM64.5737 21.7387C64.3891 21.7387 64.2305 21.6772 64.0979 21.5541C63.9677 21.4286 63.9026 21.2795 63.9026 21.1066C63.9026 20.9315 63.9677 20.7823 64.0979 20.6592C64.2305 20.5337 64.3891 20.471 64.5737 20.471C64.7584 20.471 64.9158 20.5337 65.046 20.6592C65.1786 20.7823 65.2449 20.9315 65.2449 21.1066C65.2449 21.2795 65.1786 21.4286 65.046 21.5541C64.9158 21.6772 64.7584 21.7387 64.5737 21.7387ZM68.8786 28.145C68.3412 28.145 67.8784 28.0302 67.4901 27.8005C67.1042 27.5685 66.8059 27.243 66.5952 26.824C66.3869 26.4026 66.2827 25.909 66.2827 25.3432C66.2827 24.7844 66.3869 24.292 66.5952 23.8659C66.8059 23.4397 67.0995 23.1071 67.4759 22.868C67.8547 22.6289 68.2974 22.5093 68.804 22.5093C69.1118 22.5093 69.4101 22.5602 69.6989 22.662C69.9877 22.7638 70.247 22.9236 70.4766 23.1414C70.7062 23.3592 70.8874 23.6422 71.0199 23.9902C71.1525 24.3358 71.2188 24.756 71.2188 25.2508V25.6272H66.8829V24.8318H70.1783C70.1783 24.5524 70.1215 24.305 70.0079 24.0896C69.8942 23.8718 69.7344 23.7002 69.5285 23.5747C69.3249 23.4492 69.0857 23.3865 68.8111 23.3865C68.5128 23.3865 68.2524 23.4599 68.0299 23.6066C67.8097 23.7511 67.6392 23.9405 67.5185 24.1748C67.4001 24.4068 67.341 24.659 67.341 24.9312V25.5527C67.341 25.9173 67.4049 26.2274 67.5327 26.4831C67.6629 26.7387 67.844 26.9341 68.076 27.069C68.308 27.2016 68.5791 27.2679 68.8892 27.2679C69.0905 27.2679 69.274 27.2395 69.4397 27.1826C69.6054 27.1235 69.7486 27.0359 69.8694 26.9199C69.9901 26.8039 70.0824 26.6606 70.1464 26.4902L71.1513 26.6713C71.0708 26.9672 70.9264 27.2264 70.7181 27.449C70.5121 27.6691 70.2529 27.8408 69.9404 27.9639C69.6303 28.0846 69.2763 28.145 68.8786 28.145ZM76.4842 23.912L75.5219 24.0825C75.4816 23.9594 75.4177 23.8422 75.3301 23.7309C75.2449 23.6197 75.1289 23.5285 74.9821 23.4575C74.8353 23.3865 74.6519 23.351 74.4317 23.351C74.131 23.351 73.8801 23.4184 73.6788 23.5534C73.4776 23.686 73.377 23.8576 73.377 24.0683C73.377 24.2506 73.4445 24.3974 73.5794 24.5086C73.7144 24.6199 73.9322 24.711 74.2328 24.7821L75.0993 24.9809C75.6012 25.0969 75.9752 25.2757 76.2215 25.5172C76.4677 25.7586 76.5908 26.0723 76.5908 26.4582C76.5908 26.7849 76.4961 27.0761 76.3067 27.3318C76.1197 27.5851 75.8581 27.784 75.5219 27.9284C75.1881 28.0728 74.801 28.145 74.3607 28.145C73.7499 28.145 73.2515 28.0148 72.8656 27.7544C72.4797 27.4916 72.243 27.1187 72.1554 26.6358L73.1817 26.4795C73.2456 26.747 73.377 26.9494 73.5759 27.0868C73.7747 27.2217 74.034 27.2892 74.3536 27.2892C74.7016 27.2892 74.9797 27.217 75.1881 27.0726C75.3964 26.9258 75.5006 26.747 75.5006 26.5363C75.5006 26.3659 75.4367 26.2226 75.3088 26.1066C75.1833 25.9906 74.9904 25.903 74.73 25.8439L73.8067 25.6414C73.2977 25.5254 72.9213 25.3408 72.6774 25.0875C72.4359 24.8342 72.3152 24.5134 72.3152 24.1251C72.3152 23.8031 72.4052 23.5214 72.5851 23.2799C72.765 23.0385 73.0136 22.8503 73.3308 22.7153C73.6481 22.578 74.0115 22.5093 74.421 22.5093C75.0105 22.5093 75.4745 22.6372 75.8131 22.8929C76.1516 23.1462 76.3753 23.4859 76.4842 23.912Z" fill="#676464"/>
<line x1="39.9839" y1="38.75" x2="215.21" y2="38.75" stroke="#E1E1E1" stroke-width="0.5"/>
<path d="M69 74V164" stroke="#E1E1E1" stroke-width="0.5"/>
<line x1="92.25" y1="82.9949" x2="92.25" y2="147.001" stroke="#E1E1E1" stroke-width="0.5"/>
<path d="M80.5 74L80.5 157" stroke="#E1E1E1" stroke-width="0.5"/>
<line x1="106.25" y1="117" x2="106.25" y2="137" stroke="#E1E1E1" stroke-width="0.5"/>
<path d="M42.7925 64.9387V69.3215H43.6011C43.7938 69.3215 43.9305 69.3593 44.0112 69.4348C44.0946 69.5077 44.1362 69.6041 44.1362 69.7239C44.1362 69.8411 44.0946 69.9374 44.0112 70.0129C43.9305 70.0859 43.7938 70.1223 43.6011 70.1223H41.1831C40.9904 70.1223 40.8524 70.0859 40.769 70.0129C40.6883 69.9374 40.6479 69.8398 40.6479 69.72C40.6479 69.6028 40.6883 69.5077 40.769 69.4348C40.8524 69.3593 40.9904 69.3215 41.1831 69.3215H41.9917V65.9817L41.2769 66.1692C41.1623 66.2004 41.0763 66.2161 41.019 66.2161C40.9175 66.2161 40.8289 66.1757 40.7534 66.095C40.6805 66.0142 40.644 65.9153 40.644 65.7981C40.644 65.6913 40.6714 65.608 40.7261 65.5481C40.7808 65.4856 40.8953 65.4309 41.0698 65.384L42.7925 64.9387ZM41.6362 81.3215H43.3901C43.4865 81.2434 43.5776 81.2043 43.6636 81.2043C43.786 81.2043 43.8823 81.2447 43.9526 81.3254C44.0256 81.4062 44.062 81.5442 44.062 81.7395V82.1223H40.4136V81.2747C41.8563 80.0846 42.7274 79.3189 43.0269 78.9778C43.1779 78.8033 43.2534 78.6379 43.2534 78.4817C43.2534 78.2864 43.1675 78.1145 42.9956 77.9661C42.8263 77.815 42.5998 77.7395 42.3159 77.7395C42.0295 77.7395 41.7912 77.8228 41.6011 77.9895C41.5021 78.078 41.4227 78.2096 41.3628 78.384C41.3263 78.4934 41.2756 78.5715 41.2104 78.6184C41.1479 78.6653 41.0698 78.6887 40.9761 78.6887C40.8667 78.6887 40.7716 78.6497 40.6909 78.5715C40.6128 78.4934 40.5737 78.4023 40.5737 78.2981C40.5737 78.1418 40.6453 77.9465 40.7886 77.7122C40.9344 77.4778 41.1453 77.2903 41.4214 77.1497C41.7 77.009 42.0021 76.9387 42.3276 76.9387C42.8328 76.9387 43.2469 77.0924 43.5698 77.3997C43.8927 77.7043 44.0542 78.0741 44.0542 78.509C44.0542 78.7304 44.0073 78.9361 43.9136 79.1262C43.8224 79.3137 43.6011 79.5741 43.2495 79.9075C42.9735 80.1705 42.4357 80.6418 41.6362 81.3215ZM43.5269 91.4465C43.7638 91.608 43.9409 91.7955 44.0581 92.009C44.1753 92.22 44.2339 92.4569 44.2339 92.72C44.2339 93.0038 44.1558 93.2668 43.9995 93.509C43.8459 93.7486 43.6219 93.9309 43.3276 94.0559C43.0334 94.1783 42.6479 94.2395 42.1714 94.2395C41.5516 94.2395 41.0854 94.1431 40.7729 93.9504C40.5985 93.8411 40.5112 93.7109 40.5112 93.5598C40.5112 93.4452 40.549 93.3489 40.6245 93.2708C40.7026 93.19 40.7964 93.1497 40.9058 93.1497C40.9813 93.1497 41.0594 93.1757 41.1401 93.2278C41.2547 93.3059 41.3628 93.358 41.4644 93.384C41.6206 93.4205 41.8354 93.4387 42.1089 93.4387C42.575 93.4387 42.9123 93.3788 43.1206 93.259C43.3289 93.1366 43.4331 92.9648 43.4331 92.7434C43.4331 92.5793 43.3719 92.4218 43.2495 92.2708C43.1297 92.1171 42.9683 91.9986 42.7651 91.9153C42.6479 91.8684 42.45 91.8359 42.1714 91.8176C42.0386 91.8098 41.9357 91.7694 41.8628 91.6965C41.7925 91.621 41.7573 91.5286 41.7573 91.4192C41.7573 91.3046 41.7964 91.2083 41.8745 91.1301C41.9526 91.052 42.0516 91.0129 42.1714 91.0129C42.437 91.0129 42.5789 91.0116 42.5972 91.009C42.7013 90.9986 42.8055 90.9648 42.9097 90.9075C43.0138 90.8502 43.0972 90.7721 43.1597 90.6731C43.2248 90.5715 43.2573 90.4674 43.2573 90.3606C43.2573 90.1913 43.1818 90.0455 43.0308 89.9231C42.8823 89.7981 42.6584 89.7356 42.3589 89.7356C41.9735 89.7356 41.6792 89.8476 41.4761 90.0715C41.4162 90.1366 41.368 90.1783 41.3315 90.1965C41.2769 90.2252 41.2157 90.2395 41.1479 90.2395C41.0386 90.2395 40.9448 90.2004 40.8667 90.1223C40.7886 90.0442 40.7495 89.9478 40.7495 89.8333C40.7495 89.6536 40.8693 89.4791 41.1089 89.3098C41.4578 89.0624 41.894 88.9387 42.4175 88.9387C42.9123 88.9387 43.3094 89.0793 43.6089 89.3606C43.9084 89.6418 44.0581 89.9804 44.0581 90.3762C44.0581 90.5819 44.0138 90.7747 43.9253 90.9543C43.8368 91.1314 43.7039 91.2955 43.5269 91.4465ZM43.5581 101.068V104.2C43.7274 104.2 43.8524 104.238 43.9331 104.314C44.0138 104.387 44.0542 104.482 44.0542 104.599C44.0542 104.716 44.0125 104.812 43.9292 104.888C43.8485 104.963 43.7248 105.001 43.5581 105.001V105.322C43.7274 105.322 43.8524 105.359 43.9331 105.435C44.0138 105.51 44.0542 105.607 44.0542 105.724C44.0542 105.841 44.0125 105.937 43.9292 106.013C43.8485 106.086 43.7118 106.122 43.519 106.122H42.4448C42.2521 106.122 42.1141 106.086 42.0308 106.013C41.95 105.937 41.9097 105.84 41.9097 105.72C41.9097 105.603 41.95 105.508 42.0308 105.435C42.1141 105.359 42.2521 105.322 42.4448 105.322H42.7573V105.001H40.5815V104.333L42.4995 101.068H43.5581ZM42.7573 104.2V102.232L41.5972 104.2H42.7573ZM41.7104 113.868V114.822C42.0073 114.728 42.2769 114.681 42.519 114.681C43.0112 114.681 43.4201 114.849 43.7456 115.185C44.0711 115.521 44.2339 115.954 44.2339 116.486C44.2339 117.032 44.0685 117.462 43.7378 117.775C43.4097 118.085 42.9058 118.24 42.2261 118.24C41.6271 118.24 41.1532 118.126 40.8042 117.9C40.6011 117.769 40.4995 117.62 40.4995 117.45C40.4995 117.344 40.5386 117.251 40.6167 117.173C40.6974 117.092 40.7925 117.052 40.9019 117.052C40.993 117.052 41.092 117.096 41.1987 117.185C41.3055 117.271 41.4175 117.331 41.5347 117.365C41.7013 117.414 41.9149 117.439 42.1753 117.439C42.6597 117.439 42.9904 117.362 43.1675 117.208C43.3446 117.052 43.4331 116.814 43.4331 116.493C43.4331 116.178 43.3472 115.931 43.1753 115.751C43.006 115.572 42.7873 115.482 42.519 115.482C42.23 115.482 41.9006 115.575 41.5308 115.763C41.4474 115.807 41.3745 115.829 41.312 115.829C41.1974 115.829 41.1011 115.788 41.0229 115.704C40.9474 115.621 40.9097 115.513 40.9097 115.38V113.068H43.3589C43.5516 113.068 43.6883 113.105 43.769 113.181C43.8524 113.254 43.894 113.35 43.894 113.47C43.894 113.587 43.8524 113.684 43.769 113.759C43.6883 113.832 43.5516 113.868 43.3589 113.868H41.7104ZM41.6323 127.388C41.825 127.226 42.0086 127.109 42.1831 127.036C42.3576 126.961 42.5438 126.923 42.7417 126.923C43.161 126.923 43.5282 127.09 43.8433 127.423C44.1584 127.756 44.3159 128.174 44.3159 128.677C44.3159 129.143 44.1688 129.521 43.8745 129.81C43.5828 130.096 43.1857 130.24 42.6831 130.24C42.2638 130.24 41.9188 130.142 41.6479 129.947C41.3771 129.751 41.1727 129.45 41.0347 129.044C40.8966 128.638 40.8276 128.185 40.8276 127.685C40.8276 127.086 40.9644 126.588 41.2378 126.193C41.5112 125.794 41.8328 125.486 42.2026 125.267C42.5724 125.048 42.9631 124.939 43.3745 124.939C43.7 124.939 43.9526 125.003 44.1323 125.13C44.2495 125.216 44.3081 125.325 44.3081 125.458C44.3081 125.575 44.269 125.674 44.1909 125.755C44.1128 125.833 44.019 125.872 43.9097 125.872C43.8472 125.872 43.7573 125.841 43.6401 125.779C43.5698 125.742 43.5021 125.724 43.437 125.724C43.1818 125.724 42.9175 125.797 42.644 125.943C42.3706 126.086 42.1336 126.307 41.9331 126.607C41.7951 126.815 41.6948 127.075 41.6323 127.388ZM41.7495 128.626C41.8328 128.939 41.9448 129.152 42.0854 129.267C42.2287 129.381 42.4318 129.439 42.6948 129.439C42.9578 129.439 43.1597 129.37 43.3003 129.232C43.4435 129.094 43.5151 128.906 43.5151 128.669C43.5151 128.398 43.4331 128.173 43.269 127.993C43.1076 127.814 42.9253 127.724 42.7222 127.724C42.5607 127.724 42.3875 127.803 42.2026 127.962C42.0203 128.121 41.8693 128.342 41.7495 128.626ZM43.2104 137.868H41.3784C41.368 138.025 41.3276 138.138 41.2573 138.208C41.187 138.276 41.0946 138.31 40.98 138.31C40.8602 138.31 40.7625 138.269 40.687 138.189C40.6141 138.108 40.5776 137.971 40.5776 137.779V137.068H44.0542V137.868L42.7573 141.728C42.7026 141.889 42.6414 141.997 42.5737 142.052C42.5086 142.104 42.4292 142.13 42.3354 142.13C42.2235 142.13 42.1271 142.091 42.0464 142.013C41.9683 141.935 41.9292 141.845 41.9292 141.743C41.9292 141.686 41.95 141.595 41.9917 141.47L43.2104 137.868ZM43.519 151.564C43.7248 151.723 43.8784 151.904 43.98 152.107C44.0841 152.307 44.1362 152.529 44.1362 152.771C44.1362 153.039 44.0698 153.286 43.937 153.513C43.8068 153.737 43.6011 153.914 43.3198 154.044C43.0386 154.174 42.7261 154.24 42.3823 154.24C42.0386 154.24 41.7287 154.174 41.4526 154.044C41.1766 153.914 40.9722 153.736 40.8394 153.509C40.7091 153.282 40.644 153.036 40.644 152.771C40.644 152.529 40.6948 152.307 40.7964 152.107C40.9006 151.904 41.0555 151.723 41.2612 151.564C41.0815 151.397 40.9461 151.22 40.855 151.032C40.7638 150.845 40.7183 150.647 40.7183 150.439C40.7183 150.03 40.8745 149.678 41.187 149.384C41.4995 149.087 41.9006 148.939 42.3901 148.939C42.8797 148.939 43.2808 149.087 43.5933 149.384C43.9058 149.678 44.062 150.03 44.062 150.439C44.062 150.65 44.0164 150.849 43.9253 151.036C43.8368 151.224 43.7013 151.4 43.519 151.564ZM43.2417 150.454C43.2417 150.256 43.1636 150.088 43.0073 149.95C42.8537 149.81 42.6453 149.74 42.3823 149.74C42.1167 149.74 41.9058 149.81 41.7495 149.95C41.5959 150.088 41.519 150.256 41.519 150.454C41.519 150.655 41.5959 150.825 41.7495 150.966C41.9058 151.104 42.1167 151.173 42.3823 151.173C42.6453 151.173 42.8537 151.104 43.0073 150.966C43.1636 150.825 43.2417 150.655 43.2417 150.454ZM43.3354 152.81C43.3354 152.599 43.2443 152.409 43.062 152.24C42.8823 152.068 42.6584 151.982 42.3901 151.982C42.1219 151.982 41.8966 152.068 41.7144 152.24C41.5347 152.409 41.4448 152.601 41.4448 152.818C41.4448 152.984 41.5229 153.13 41.6792 153.255C41.8354 153.378 42.0724 153.439 42.3901 153.439C42.7104 153.439 42.9474 153.378 43.1011 153.255C43.2573 153.13 43.3354 152.982 43.3354 152.81ZM43.5112 164.021C43.3107 164.193 43.1271 164.315 42.9604 164.388C42.7938 164.458 42.618 164.493 42.4331 164.493C42.0034 164.493 41.6271 164.322 41.3042 163.978C40.9839 163.634 40.8237 163.207 40.8237 162.697C40.8237 162.298 40.9344 161.936 41.1558 161.611C41.4578 161.163 41.8836 160.939 42.4331 160.939C42.8263 160.939 43.1701 161.057 43.4644 161.294C43.7586 161.529 43.9748 161.868 44.1128 162.314C44.2508 162.756 44.3198 163.219 44.3198 163.7C44.3198 164.518 44.0034 165.174 43.3706 165.669C42.881 166.049 42.3446 166.24 41.7612 166.24C41.4383 166.24 41.1883 166.174 41.0112 166.044C40.8914 165.958 40.8315 165.845 40.8315 165.704C40.8315 165.59 40.8693 165.495 40.9448 165.419C41.0229 165.341 41.118 165.302 41.23 165.302C41.2925 165.302 41.3628 165.322 41.4409 165.361C41.5425 165.413 41.6493 165.439 41.7612 165.439C42.1649 165.439 42.5373 165.302 42.8784 165.029C43.2196 164.753 43.4305 164.417 43.5112 164.021ZM43.3979 162.759C43.312 162.389 43.1844 162.128 43.0151 161.974C42.8485 161.818 42.6571 161.74 42.4409 161.74C42.2144 161.74 42.0216 161.827 41.8628 162.001C41.7039 162.173 41.6245 162.402 41.6245 162.689C41.6245 162.988 41.7039 163.23 41.8628 163.415C42.0243 163.6 42.2078 163.693 42.4136 163.693C42.7756 163.693 43.1037 163.381 43.3979 162.759Z" fill="#C0BFBF"/>
</g>
<g filter="url(#filter2_d_97_43)">
<g filter="url(#filter3_d_97_43)">
<rect x="194" y="77" width="265" height="186" rx="6" fill="white"/>
</g>
<path d="M229.799 101V93.7273H234.309V94.6719H230.896V96.8878H233.986V97.8288H230.896V101H229.799ZM237.524 101.11C236.986 101.11 236.523 100.995 236.135 100.766C235.749 100.534 235.451 100.208 235.24 99.7891C235.032 99.3677 234.928 98.8741 234.928 98.3082C234.928 97.7495 235.032 97.2571 235.24 96.831C235.451 96.4048 235.744 96.0722 236.121 95.8331C236.5 95.594 236.942 95.4744 237.449 95.4744C237.757 95.4744 238.055 95.5253 238.344 95.6271C238.633 95.7289 238.892 95.8887 239.122 96.1065C239.351 96.3243 239.532 96.6072 239.665 96.9553C239.798 97.3009 239.864 97.7211 239.864 98.2159V98.5923H235.528V97.7969H238.823C238.823 97.5175 238.767 97.2701 238.653 97.0547C238.539 96.8369 238.379 96.6652 238.173 96.5398C237.97 96.4143 237.731 96.3516 237.456 96.3516C237.158 96.3516 236.897 96.425 236.675 96.5717C236.455 96.7161 236.284 96.9055 236.164 97.1399C236.045 97.3719 235.986 97.6241 235.986 97.8963V98.5178C235.986 98.8823 236.05 99.1925 236.178 99.4482C236.308 99.7038 236.489 99.8991 236.721 100.034C236.953 100.167 237.224 100.233 237.534 100.233C237.735 100.233 237.919 100.205 238.085 100.148C238.25 100.089 238.394 100.001 238.514 99.8849C238.635 99.7689 238.727 99.6257 238.791 99.4553L239.796 99.6364C239.716 99.9323 239.571 100.192 239.363 100.414C239.157 100.634 238.898 100.806 238.585 100.929C238.275 101.05 237.921 101.11 237.524 101.11ZM243.588 95.5455V96.3977H240.609V95.5455H243.588ZM241.408 94.2386H242.469V99.3984C242.469 99.6044 242.5 99.7595 242.562 99.8636C242.623 99.9654 242.703 100.035 242.8 100.073C242.899 100.109 243.007 100.126 243.123 100.126C243.208 100.126 243.283 100.121 243.347 100.109C243.411 100.097 243.46 100.087 243.496 100.08L243.688 100.957C243.626 100.981 243.538 101.005 243.425 101.028C243.311 101.054 243.169 101.069 242.999 101.071C242.719 101.076 242.459 101.026 242.217 100.922C241.976 100.818 241.781 100.657 241.631 100.439C241.482 100.221 241.408 99.9477 241.408 99.6186V94.2386ZM247.002 101.11C246.474 101.11 246.019 100.991 245.638 100.751C245.259 100.51 244.968 100.177 244.764 99.7536C244.561 99.3298 244.459 98.8445 244.459 98.2976C244.459 97.7436 244.563 97.2547 244.771 96.831C244.98 96.4048 245.273 96.0722 245.652 95.8331C246.031 95.594 246.477 95.4744 246.991 95.4744C247.405 95.4744 247.775 95.5514 248.099 95.7053C248.423 95.8568 248.685 96.0698 248.884 96.3445C249.085 96.6191 249.204 96.9399 249.242 97.3068H248.209C248.152 97.0511 248.022 96.831 247.818 96.6463C247.617 96.4616 247.347 96.3693 247.009 96.3693C246.713 96.3693 246.454 96.4474 246.231 96.6037C246.011 96.7576 245.839 96.9777 245.716 97.2642C245.593 97.5483 245.531 97.8845 245.531 98.2727C245.531 98.6705 245.592 99.0137 245.713 99.3026C245.833 99.5914 246.004 99.8151 246.224 99.9737C246.446 100.132 246.708 100.212 247.009 100.212C247.21 100.212 247.392 100.175 247.556 100.102C247.721 100.026 247.86 99.9181 247.971 99.7784C248.085 99.6387 248.164 99.4706 248.209 99.2741H249.242C249.204 99.6269 249.09 99.9418 248.898 100.219C248.706 100.496 248.449 100.714 248.127 100.872C247.808 101.031 247.432 101.11 247.002 101.11ZM251.44 97.7614V101H250.378V93.7273H251.425V96.4332H251.493C251.621 96.1397 251.816 95.9065 252.079 95.7337C252.342 95.5608 252.685 95.4744 253.109 95.4744C253.483 95.4744 253.809 95.5514 254.089 95.7053C254.371 95.8591 254.588 96.0888 254.742 96.3942C254.898 96.6972 254.977 97.076 254.977 97.5305V101H253.915V97.6584C253.915 97.2583 253.812 96.9482 253.606 96.728C253.4 96.5054 253.113 96.3942 252.746 96.3942C252.496 96.3942 252.271 96.4474 252.072 96.554C251.875 96.6605 251.72 96.8168 251.607 97.0227C251.495 97.2263 251.44 97.4725 251.44 97.7614ZM263.092 95.6378C263.054 95.3016 262.898 95.0412 262.623 94.8565C262.348 94.6695 262.003 94.576 261.586 94.576C261.288 94.576 261.03 94.6233 260.812 94.718C260.594 94.8104 260.425 94.9382 260.304 95.1016C260.186 95.2625 260.127 95.446 260.127 95.652C260.127 95.8248 260.167 95.974 260.247 96.0994C260.33 96.2249 260.438 96.3303 260.57 96.4155C260.705 96.4983 260.85 96.5682 261.004 96.625C261.158 96.6795 261.306 96.7244 261.448 96.7599L262.158 96.9446C262.39 97.0014 262.628 97.0784 262.872 97.1754C263.115 97.2725 263.342 97.4003 263.55 97.5589C263.758 97.7176 263.926 97.9141 264.054 98.1484C264.184 98.3828 264.249 98.6634 264.249 98.9901C264.249 99.402 264.143 99.7678 263.93 100.087C263.719 100.407 263.413 100.659 263.01 100.844C262.61 101.028 262.126 101.121 261.558 101.121C261.013 101.121 260.542 101.034 260.144 100.862C259.747 100.689 259.435 100.444 259.21 100.126C258.985 99.8068 258.861 99.428 258.838 98.9901H259.938C259.96 99.2528 260.045 99.4718 260.194 99.647C260.346 99.8198 260.539 99.9489 260.773 100.034C261.01 100.117 261.269 100.158 261.551 100.158C261.861 100.158 262.137 100.11 262.378 100.013C262.622 99.9134 262.814 99.776 262.953 99.6009C263.093 99.4233 263.163 99.2161 263.163 98.9794C263.163 98.764 263.101 98.5876 262.978 98.4503C262.857 98.313 262.693 98.1993 262.485 98.1094C262.279 98.0194 262.045 97.9401 261.785 97.8714L260.926 97.6371C260.343 97.4785 259.882 97.2453 259.541 96.9375C259.202 96.6297 259.033 96.2225 259.033 95.7159C259.033 95.2969 259.146 94.9311 259.374 94.6186C259.601 94.3061 259.909 94.0634 260.297 93.8906C260.685 93.7154 261.123 93.6278 261.611 93.6278C262.103 93.6278 262.538 93.7143 262.914 93.8871C263.293 94.0599 263.591 94.2978 263.809 94.6009C264.027 94.9015 264.141 95.2472 264.15 95.6378H263.092ZM265.475 103.045V95.5455H266.512V96.4297H266.601C266.663 96.3161 266.752 96.1847 266.868 96.0355C266.984 95.8864 267.145 95.7562 267.35 95.6449C267.556 95.5312 267.829 95.4744 268.167 95.4744C268.608 95.4744 269.001 95.5857 269.346 95.8082C269.692 96.0308 269.963 96.3516 270.159 96.7706C270.358 97.1896 270.458 97.6939 270.458 98.2834C270.458 98.8729 270.359 99.3783 270.163 99.7997C269.967 100.219 269.697 100.542 269.353 100.769C269.01 100.994 268.618 101.107 268.178 101.107C267.846 101.107 267.575 101.051 267.365 100.94C267.156 100.828 266.993 100.698 266.875 100.549C266.756 100.4 266.665 100.267 266.601 100.151H266.537V103.045H265.475ZM266.516 98.2727C266.516 98.6562 266.572 98.9924 266.683 99.2812C266.794 99.5701 266.955 99.7962 267.166 99.9595C267.377 100.121 267.635 100.201 267.94 100.201C268.257 100.201 268.522 100.117 268.735 99.9489C268.949 99.7784 269.109 99.5476 269.218 99.2564C269.33 98.9652 269.385 98.6373 269.385 98.2727C269.385 97.9129 269.331 97.5897 269.222 97.3033C269.115 97.0168 268.954 96.7907 268.739 96.625C268.526 96.4593 268.26 96.3764 267.94 96.3764C267.632 96.3764 267.372 96.4557 267.159 96.6143C266.948 96.773 266.788 96.9943 266.679 97.2784C266.57 97.5625 266.516 97.8939 266.516 98.2727ZM273.998 101.11C273.461 101.11 272.998 100.995 272.61 100.766C272.224 100.534 271.926 100.208 271.715 99.7891C271.507 99.3677 271.402 98.8741 271.402 98.3082C271.402 97.7495 271.507 97.2571 271.715 96.831C271.926 96.4048 272.219 96.0722 272.596 95.8331C272.974 95.594 273.417 95.4744 273.924 95.4744C274.231 95.4744 274.53 95.5253 274.819 95.6271C275.107 95.7289 275.367 95.8887 275.596 96.1065C275.826 96.3243 276.007 96.6072 276.14 96.9553C276.272 97.3009 276.338 97.7211 276.338 98.2159V98.5923H272.002V97.7969H275.298C275.298 97.5175 275.241 97.2701 275.127 97.0547C275.014 96.8369 274.854 96.6652 274.648 96.5398C274.444 96.4143 274.205 96.3516 273.931 96.3516C273.632 96.3516 273.372 96.425 273.15 96.5717C272.929 96.7161 272.759 96.9055 272.638 97.1399C272.52 97.3719 272.461 97.6241 272.461 97.8963V98.5178C272.461 98.8823 272.525 99.1925 272.652 99.4482C272.783 99.7038 272.964 99.8991 273.196 100.034C273.428 100.167 273.699 100.233 274.009 100.233C274.21 100.233 274.394 100.205 274.559 100.148C274.725 100.089 274.868 100.001 274.989 99.8849C275.11 99.7689 275.202 99.6257 275.266 99.4553L276.271 99.6364C276.19 99.9323 276.046 100.192 275.838 100.414C275.632 100.634 275.373 100.806 275.06 100.929C274.75 101.05 274.396 101.11 273.998 101.11ZM279.867 101.11C279.33 101.11 278.867 100.995 278.479 100.766C278.093 100.534 277.795 100.208 277.584 99.7891C277.376 99.3677 277.271 98.8741 277.271 98.3082C277.271 97.7495 277.376 97.2571 277.584 96.831C277.795 96.4048 278.088 96.0722 278.465 95.8331C278.843 95.594 279.286 95.4744 279.793 95.4744C280.101 95.4744 280.399 95.5253 280.688 95.6271C280.977 95.7289 281.236 95.8887 281.465 96.1065C281.695 96.3243 281.876 96.6072 282.009 96.9553C282.141 97.3009 282.208 97.7211 282.208 98.2159V98.5923H277.872V97.7969H281.167C281.167 97.5175 281.11 97.2701 280.997 97.0547C280.883 96.8369 280.723 96.6652 280.517 96.5398C280.314 96.4143 280.075 96.3516 279.8 96.3516C279.502 96.3516 279.241 96.425 279.019 96.5717C278.798 96.7161 278.628 96.9055 278.507 97.1399C278.389 97.3719 278.33 97.6241 278.33 97.8963V98.5178C278.33 98.8823 278.394 99.1925 278.521 99.4482C278.652 99.7038 278.833 99.8991 279.065 100.034C279.297 100.167 279.568 100.233 279.878 100.233C280.079 100.233 280.263 100.205 280.428 100.148C280.594 100.089 280.737 100.001 280.858 99.8849C280.979 99.7689 281.071 99.6257 281.135 99.4553L282.14 99.6364C282.06 99.9323 281.915 100.192 281.707 100.414C281.501 100.634 281.242 100.806 280.929 100.929C280.619 101.05 280.265 101.11 279.867 101.11ZM285.428 101.107C284.987 101.107 284.594 100.994 284.249 100.769C283.905 100.542 283.635 100.219 283.439 99.7997C283.245 99.3783 283.148 98.8729 283.148 98.2834C283.148 97.6939 283.246 97.1896 283.442 96.7706C283.641 96.3516 283.914 96.0308 284.259 95.8082C284.605 95.5857 284.997 95.4744 285.435 95.4744C285.773 95.4744 286.045 95.5312 286.251 95.6449C286.46 95.7562 286.621 95.8864 286.734 96.0355C286.85 96.1847 286.94 96.3161 287.004 96.4297H287.068V93.7273H288.13V101H287.093V100.151H287.004C286.94 100.267 286.848 100.4 286.727 100.549C286.609 100.698 286.446 100.828 286.237 100.94C286.029 101.051 285.759 101.107 285.428 101.107ZM285.662 100.201C285.967 100.201 286.225 100.121 286.436 99.9595C286.649 99.7962 286.81 99.5701 286.919 99.2812C287.03 98.9924 287.086 98.6562 287.086 98.2727C287.086 97.8939 287.031 97.5625 286.923 97.2784C286.814 96.9943 286.654 96.773 286.443 96.6143C286.232 96.4557 285.972 96.3764 285.662 96.3764C285.342 96.3764 285.076 96.4593 284.863 96.625C284.65 96.7907 284.489 97.0168 284.38 97.3033C284.273 97.5897 284.22 97.9129 284.22 98.2727C284.22 98.6373 284.275 98.9652 284.384 99.2564C284.492 99.5476 284.653 99.7784 284.866 99.9489C285.082 100.117 285.347 100.201 285.662 100.201ZM293.733 96.8771L292.77 97.0476C292.73 96.9245 292.666 96.8073 292.579 96.696C292.493 96.5848 292.377 96.4936 292.231 96.4226C292.084 96.3516 291.9 96.3161 291.68 96.3161C291.38 96.3161 291.129 96.3835 290.927 96.5185C290.726 96.651 290.626 96.8227 290.626 97.0334C290.626 97.2157 290.693 97.3625 290.828 97.4737C290.963 97.585 291.181 97.6761 291.481 97.7472L292.348 97.946C292.85 98.062 293.224 98.2408 293.47 98.4822C293.716 98.7237 293.839 99.0374 293.839 99.4233C293.839 99.75 293.745 100.041 293.555 100.297C293.368 100.55 293.107 100.749 292.77 100.893C292.437 101.038 292.05 101.11 291.609 101.11C290.998 101.11 290.5 100.98 290.114 100.719C289.728 100.457 289.492 100.084 289.404 99.6009L290.43 99.4446C290.494 99.7121 290.626 99.9145 290.824 100.052C291.023 100.187 291.282 100.254 291.602 100.254C291.95 100.254 292.228 100.182 292.437 100.038C292.645 99.8909 292.749 99.7121 292.749 99.5014C292.749 99.331 292.685 99.1877 292.557 99.0717C292.432 98.9557 292.239 98.8681 291.979 98.8089L291.055 98.6065C290.546 98.4905 290.17 98.3059 289.926 98.0526C289.684 97.7992 289.564 97.4785 289.564 97.0902C289.564 96.7682 289.654 96.4865 289.834 96.245C290.014 96.0036 290.262 95.8153 290.579 95.6804C290.897 95.5431 291.26 95.4744 291.67 95.4744C292.259 95.4744 292.723 95.6023 293.062 95.858C293.4 96.1113 293.624 96.451 293.733 96.8771Z" fill="#676464"/>
<line x1="229" y1="112.75" x2="420" y2="112.75" stroke="#E1E1E1" stroke-width="0.5"/>
</g>
<rect x="229" y="137" width="44" height="108" fill="#7DD0E9"/>
<rect x="300" y="192" width="44" height="52" fill="#7DD0E9"/>
<rect x="371" y="214" width="44" height="31" fill="#7DD0E9"/>
<defs>
<filter id="filter0_d_97_43" x="0" y="0" width="261.452" height="303" filterUnits="userSpaceOnUse" color-interpolation-filters="sRGB">
<feFlood flood-opacity="0" result="BackgroundImageFix"/>
<feColorMatrix in="SourceAlpha" type="matrix" values="0 0 0 0 0 0 0 0 0 0 0 0 0 0 0 0 0 0 127 0" result="hardAlpha"/>
<feOffset dy="4"/>
<feGaussianBlur stdDeviation="2"/>
<feComposite in2="hardAlpha" operator="out"/>
<feColorMatrix type="matrix" values="0 0 0 0 0 0 0 0 0 0 0 0 0 0 0 0 0 0 0.25 0"/>
<feBlend mode="normal" in2="BackgroundImageFix" result="effect1_dropShadow_97_43"/>
<feBlend mode="normal" in="SourceGraphic" in2="effect1_dropShadow_97_43" result="shape"/>
</filter>
<filter id="filter1_d_97_43" x="0" y="0" width="261.452" height="303" filterUnits="userSpaceOnUse" color-interpolation-filters="sRGB">
<feFlood flood-opacity="0" result="BackgroundImageFix"/>
<feColorMatrix in="SourceAlpha" type="matrix" values="0 0 0 0 0 0 0 0 0 0 0 0 0 0 0 0 0 0 127 0" result="hardAlpha"/>
<feOffset dy="4"/>
<feGaussianBlur stdDeviation="2"/>
<feComposite in2="hardAlpha" operator="out"/>
<feColorMatrix type="matrix" values="0 0 0 0 0 0 0 0 0 0 0 0 0 0 0 0 0 0 0.25 0"/>
<feBlend mode="normal" in2="BackgroundImageFix" result="effect1_dropShadow_97_43"/>
<feBlend mode="normal" in="SourceGraphic" in2="effect1_dropShadow_97_43" result="shape"/>
</filter>
<filter id="filter2_d_97_43" x="194" y="77" width="273" height="194" filterUnits="userSpaceOnUse" color-interpolation-filters="sRGB">
<feFlood flood-opacity="0" result="BackgroundImageFix"/>
<feColorMatrix in="SourceAlpha" type="matrix" values="0 0 0 0 0 0 0 0 0 0 0 0 0 0 0 0 0 0 127 0" result="hardAlpha"/>
<feOffset dx="4" dy="4"/>
<feGaussianBlur stdDeviation="2"/>
<feComposite in2="hardAlpha" operator="out"/>
<feColorMatrix type="matrix" values="0 0 0 0 0 0 0 0 0 0 0 0 0 0 0 0 0 0 0.25 0"/>
<feBlend mode="normal" in2="BackgroundImageFix" result="effect1_dropShadow_97_43"/>
<feBlend mode="normal" in="SourceGraphic" in2="effect1_dropShadow_97_43" result="shape"/>
</filter>
<filter id="filter3_d_97_43" x="190" y="77" width="273" height="194" filterUnits="userSpaceOnUse" color-interpolation-filters="sRGB">
<feFlood flood-opacity="0" result="BackgroundImageFix"/>
<feColorMatrix in="SourceAlpha" type="matrix" values="0 0 0 0 0 0 0 0 0 0 0 0 0 0 0 0 0 0 127 0" result="hardAlpha"/>
<feOffset dy="4"/>
<feGaussianBlur stdDeviation="2"/>
<feComposite in2="hardAlpha" operator="out"/>
<feColorMatrix type="matrix" values="0 0 0 0 0 0 0 0 0 0 0 0 0 0 0 0 0 0 0.3 0"/>
<feBlend mode="normal" in2="BackgroundImageFix" result="effect1_dropShadow_97_43"/>
<feBlend mode="normal" in="SourceGraphic" in2="effect1_dropShadow_97_43" result="shape"/>
</filter>
<clipPath id="clip0_97_43">
<rect width="15.7388" height="17.9096" fill="white" transform="translate(272 240)"/>
</clipPath>
</defs>
</svg>
