<svg width="561" height="300" viewBox="0 0 561 300" fill="none" xmlns="http://www.w3.org/2000/svg">
<rect x="136" width="425" height="245" rx="5" fill="#D9D9D9"/>
<rect x="136" y="28" width="425" height="217" rx="5" fill="white"/>
<circle cx="153" cy="14" r="7" fill="#EF6B62"/>
<circle cx="177" cy="14" r="7" fill="#F6BF5C"/>
<circle cx="201" cy="14" r="7" fill="#34A853"/>
<rect x="136" y="28" width="280" height="33" fill="white"/>
<path d="M459.42 167.062C441.039 167.657 422.654 167.971 404.273 168.184C395.084 168.318 385.892 168.347 376.698 168.426L349.124 168.505L321.55 168.429L307.763 168.324L300.87 168.274L293.976 168.187C275.595 167.978 257.213 167.664 238.829 167.062C257.214 166.46 275.595 166.146 293.976 165.938L300.87 165.851L307.763 165.801L321.55 165.696L349.124 165.62L376.698 165.699C385.891 165.778 395.084 165.807 404.273 165.941C422.654 166.154 441.039 166.464 459.42 167.062Z" fill="#7DD0E9"/>
<path opacity="0.14" d="M460.368 167.063C441.987 166.463 423.602 166.154 405.221 165.941C396.032 165.807 386.84 165.778 377.646 165.699L350.072 165.62L322.497 165.696L308.711 165.801L301.817 165.851L294.924 165.938C276.543 166.147 258.161 166.461 239.776 167.063C238.506 151.864 240.333 136.459 245.304 122.114C250.221 107.755 258.223 94.4862 268.54 83.3304C278.887 72.2001 291.56 63.1973 305.552 57.1338C312.541 54.0931 319.841 51.7485 327.32 50.2015C334.792 48.6466 342.432 47.8792 350.073 47.8859C357.714 47.8747 365.353 48.6466 372.829 50.2015C380.308 51.7452 387.608 54.0964 394.6 57.1304C408.589 63.1973 421.267 72.1957 431.612 83.327C441.928 94.4862 449.932 107.753 454.848 122.111C459.816 136.459 461.642 151.864 460.369 167.063H460.368Z" fill="#7DD0E9"/>
<path d="M372.595 75.6117L371.954 76.7044L381.12 81.9259L371.423 86.6462C370.987 86.8589 370.709 87.2989 370.709 87.7778V95.7292C370.709 95.835 370.726 95.9564 370.754 96.0578L380.372 131.175L357.74 154.085H336.33L319.174 147.106C318.91 146.999 318.626 146.981 318.351 147.053L294.137 153.491L359.879 69.9492H371.314V75.6106C371.314 76.0617 371.558 76.4783 371.955 76.7033L372.596 75.6106H373.877V68.6872C373.877 68.3553 373.74 68.0301 373.502 67.7951C373.263 67.5601 372.933 67.4253 372.596 67.4253H359.252C358.854 67.4253 358.483 67.6046 358.239 67.9143L289.773 154.918C289.436 155.345 289.414 155.94 289.719 156.391C290.023 156.842 290.589 157.052 291.119 156.91L318.599 149.604L335.588 156.515C335.745 156.58 335.906 156.611 336.077 156.611H358.283C358.63 156.611 358.959 156.474 359.201 156.229L382.717 132.421C383.034 132.1 383.154 131.644 383.036 131.212L373.272 95.5621V88.563L384.4 83.1455C384.826 82.9383 385.098 82.5218 385.113 82.0551C385.129 81.5884 384.884 81.1551 384.474 80.9212L373.236 74.5191L372.594 75.6117H372.595Z" fill="#7DD0E9"/>
<path d="M366.572 76.8489C366.572 78.4126 365.285 79.6801 363.698 79.6801C362.111 79.6801 360.823 78.4126 360.823 76.8489C360.823 75.2851 362.111 74.0176 363.698 74.0176C365.285 74.0176 366.572 75.2851 366.572 76.8489Z" fill="#7DD0E9"/>
<path d="M340.956 155.692V165.681C340.956 166.379 341.53 166.943 342.237 166.943C342.945 166.943 343.518 166.379 343.518 165.681V155.692C343.518 154.994 342.945 154.43 342.237 154.43C341.53 154.43 340.956 154.994 340.956 155.692Z" fill="#7DD0E9"/>
<path d="M350.838 155.692V165.681C350.838 166.379 351.412 166.943 352.119 166.943C352.826 166.943 353.4 166.379 353.4 165.681V155.692C353.4 154.994 352.826 154.43 352.119 154.43C351.412 154.43 350.838 154.994 350.838 155.692Z" fill="#7DD0E9"/>
<path d="M371.086 94.8371L321.178 144.031L331.587 106.129L372.495 88.9406C373.145 88.6666 373.448 87.926 373.171 87.2844C372.894 86.6429 372.141 86.3455 371.49 86.6184L330.011 104.047C329.649 104.2 329.38 104.504 329.277 104.879L317.449 147.945C317.297 148.498 317.541 149.081 318.043 149.368C318.546 149.654 319.182 149.572 319.592 149.167L372.899 96.6225C373.399 96.1291 373.399 95.3305 372.899 94.8371C372.399 94.3437 371.587 94.3448 371.087 94.8371H371.086Z" fill="#7DD0E9"/>
<path d="M359.418 154.764L344.563 126.719L381.589 132.787C382.287 132.901 382.947 132.436 383.064 131.749C383.18 131.061 382.708 130.411 382.01 130.296L342.449 123.813C341.969 123.734 341.487 123.929 341.202 124.317C340.916 124.705 340.877 125.217 341.102 125.643L357.147 155.934C357.474 156.552 358.248 156.791 358.875 156.469C359.502 156.146 359.746 155.385 359.419 154.766L359.418 154.764Z" fill="#7DD0E9"/>
<path d="M459.42 167.063C460.695 151.864 458.868 136.459 453.899 122.111C448.983 107.752 440.98 94.4862 430.663 83.327C420.317 72.1968 407.64 63.1973 393.652 57.1304C386.659 54.0975 379.359 51.7452 371.88 50.2015C364.404 48.6466 356.765 47.8747 349.124 47.8859C341.483 47.8792 333.844 48.6466 326.371 50.2015C318.892 51.7485 311.592 54.0931 304.603 57.1338C290.612 63.1973 277.936 72.199 267.591 83.3304C257.275 94.4862 249.272 107.756 244.355 122.114C239.384 136.459 237.558 151.864 238.828 167.063C236.91 151.925 238.337 136.325 242.986 121.674C245.319 114.352 248.449 107.268 252.289 100.574C256.129 93.8758 260.713 87.5929 265.893 81.8223C271.062 76.0439 276.905 70.8469 283.22 66.2881C289.532 61.7293 296.33 57.8154 303.473 54.6377C317.765 48.2935 333.445 45.0111 349.124 45C364.807 45.0145 380.487 48.2935 394.775 54.6411C401.918 57.8154 408.716 61.7315 415.028 66.2914C421.343 70.8469 427.181 76.0483 432.355 81.8256C437.532 87.5962 442.119 93.8792 445.959 100.578C449.799 107.272 452.929 114.352 455.258 121.677C459.912 136.325 461.339 151.924 459.42 167.061V167.063Z" fill="#7DD0E9"/>
<path d="M300.766 198.013C299.352 199.251 297.493 200 295.79 200C293.485 200 291.416 198.581 289.949 196.155C284.474 196.129 280.258 192.155 280.258 186.994C280.258 181.833 284.501 177.884 289.974 177.884C295.448 177.884 299.692 181.833 299.692 186.994C299.692 191.123 296.995 194.503 293.092 195.691C294.088 196.749 295.109 197.368 296.156 197.368C297.125 197.368 298.33 196.8 299.535 195.871L300.766 198.013ZM290.001 193.42C293.59 193.42 296.524 190.582 296.524 186.994C296.524 183.407 293.59 180.62 290.001 180.62C286.412 180.62 283.401 183.407 283.401 186.994C283.401 190.582 286.412 193.42 290.001 193.42Z" fill="#7DD0E9"/>
<path d="M332.071 188.542C332.071 193.265 329.059 196.155 324.108 196.155C319.157 196.155 316.119 193.265 316.119 188.542V177.962H319.209V188.542C319.209 191.588 321.122 193.42 324.134 193.42C327.145 193.42 328.979 191.613 328.979 188.542V177.962H332.069V188.542H332.071Z" fill="#7DD0E9"/>
<path d="M352.687 180.698V185.575H361.645V188.311H352.687V193.292H363.007V196.027H349.597V177.963H362.693V180.699H352.688L352.687 180.698Z" fill="#7DD0E9"/>
<path d="M390.905 193.265V196.026H379.878V177.962H382.969V193.265H390.905Z" fill="#7DD0E9"/>
<path d="M417.99 193.265V196.026H406.964V177.962H410.054V193.265H417.99Z" fill="#7DD0E9"/>
<rect y="205" width="280" height="95" rx="5" fill="#D9D9D9"/>
<rect y="233" width="280" height="67" rx="5" fill="white"/>
<circle cx="17" cy="219" r="7" fill="#EF6B62"/>
<circle cx="41" cy="219" r="7" fill="#F6BF5C"/>
<circle cx="65" cy="219" r="7" fill="#34A853"/>
<rect y="233" width="280" height="33" fill="white"/>
<path d="M36.6543 266.036V261.654H36.5244C36.2145 261.654 36.0003 261.618 35.8818 261.545C35.7679 261.472 35.7109 261.344 35.7109 261.162C35.7109 260.993 35.7588 260.873 35.8545 260.8C35.9502 260.722 36.1051 260.684 36.3193 260.684H36.6406H37.2969C37.4199 260.684 37.5156 260.709 37.584 260.759C37.6523 260.809 37.6865 260.877 37.6865 260.964V261.429C38.0192 261.119 38.3473 260.891 38.6709 260.745C38.999 260.595 39.3385 260.52 39.6895 260.52C40.3776 260.52 40.9176 260.734 41.3096 261.162C41.7061 261.59 41.9043 262.183 41.9043 262.939V266.036H42.2256C42.4535 266.036 42.6175 266.075 42.7178 266.152C42.818 266.225 42.8682 266.344 42.8682 266.508C42.8682 266.686 42.8135 266.813 42.7041 266.891C42.5993 266.964 42.4102 267 42.1367 267H40.626C40.3343 267 40.1475 266.966 40.0654 266.897C39.9834 266.829 39.9424 266.699 39.9424 266.508C39.9424 266.33 39.9902 266.207 40.0859 266.139C40.1816 266.07 40.3617 266.036 40.626 266.036H40.8652V263.192C40.8652 262.659 40.7445 262.254 40.5029 261.976C40.2614 261.693 39.9105 261.552 39.4502 261.552C38.9854 261.552 38.5752 261.709 38.2197 262.023C37.8643 262.338 37.6865 262.728 37.6865 263.192V266.036H37.9258C38.1992 266.036 38.3838 266.07 38.4795 266.139C38.5752 266.207 38.623 266.33 38.623 266.508C38.623 266.699 38.582 266.829 38.5 266.897C38.418 266.966 38.2174 267 37.8984 267H36.6543H36.2852C36.0983 267 35.957 266.961 35.8613 266.884C35.7702 266.802 35.7246 266.676 35.7246 266.508C35.7246 266.326 35.777 266.202 35.8818 266.139C35.9912 266.07 36.2008 266.036 36.5107 266.036H36.6543ZM45.8418 268.75H47.4824C47.6556 268.75 47.7855 268.791 47.8721 268.873C47.9587 268.955 48.002 269.078 48.002 269.242C48.002 269.42 47.9587 269.545 47.8721 269.618C47.79 269.691 47.6419 269.728 47.4277 269.728H44.4131C44.2308 269.728 44.0918 269.687 43.9961 269.604C43.9049 269.522 43.8594 269.402 43.8594 269.242C43.8594 269.06 43.9163 268.932 44.0303 268.859C44.1488 268.786 44.3652 268.75 44.6797 268.75H44.8096V261.654H44.6797C44.3652 261.654 44.1488 261.618 44.0303 261.545C43.9163 261.472 43.8594 261.344 43.8594 261.162C43.8594 261.003 43.9049 260.884 43.9961 260.807C44.0918 260.725 44.2308 260.684 44.4131 260.684H45.4521C45.5889 260.684 45.6868 260.706 45.7461 260.752C45.8099 260.798 45.8418 260.868 45.8418 260.964V261.627C46.1517 261.308 46.4935 261.069 46.8672 260.909C47.2454 260.75 47.651 260.67 48.084 260.67C49 260.67 49.7656 260.98 50.3809 261.6C50.9961 262.219 51.3037 262.996 51.3037 263.931C51.3037 264.828 51.012 265.567 50.4287 266.146C49.8454 266.724 49.1003 267.014 48.1934 267.014C47.7103 267.014 47.266 266.929 46.8604 266.761C46.4548 266.588 46.1152 266.341 45.8418 266.022V268.75ZM47.9609 266.009C48.5944 266.009 49.1139 265.811 49.5195 265.414C49.9251 265.013 50.1279 264.496 50.1279 263.862C50.1279 263.243 49.9229 262.732 49.5127 262.331C49.1071 261.925 48.5898 261.723 47.9609 261.723C47.332 261.723 46.8171 261.923 46.416 262.324C46.015 262.725 45.8145 263.238 45.8145 263.862C45.8145 264.491 46.0127 265.006 46.4092 265.407C46.8102 265.808 47.3275 266.009 47.9609 266.009ZM58.5498 263.192C58.5498 262.55 58.4906 262.117 58.3721 261.894C58.2581 261.666 58.0599 261.552 57.7773 261.552C57.4401 261.552 57.1712 261.698 56.9707 261.989C56.7747 262.281 56.6768 262.682 56.6768 263.192V266.036H56.7998C57.0778 266.036 57.2624 266.07 57.3535 266.139C57.4492 266.202 57.4971 266.326 57.4971 266.508C57.4971 266.672 57.4583 266.795 57.3809 266.877C57.3034 266.959 57.1849 267 57.0254 267H56.1572C55.9613 267 55.8268 266.954 55.7539 266.863C55.6855 266.772 55.6514 266.576 55.6514 266.275V266.077V263.192V262.659C55.6514 262.317 55.5739 262.049 55.4189 261.853C55.264 261.652 55.0521 261.552 54.7832 261.552C54.5781 261.552 54.389 261.613 54.2158 261.736C54.0472 261.855 53.9014 262.033 53.7783 262.27V266.036H54.0312C54.3047 266.036 54.4893 266.07 54.585 266.139C54.6807 266.207 54.7285 266.33 54.7285 266.508C54.7285 266.695 54.6898 266.825 54.6123 266.897C54.5348 266.966 54.3867 267 54.168 267H52.3496C52.1719 267 52.0397 266.961 51.9531 266.884C51.8711 266.802 51.8301 266.676 51.8301 266.508C51.8301 266.326 51.8825 266.202 51.9873 266.139C52.0967 266.07 52.3063 266.036 52.6162 266.036H52.7529V261.654H52.6299C52.3109 261.654 52.0921 261.618 51.9736 261.545C51.8597 261.472 51.8027 261.344 51.8027 261.162C51.8027 261.003 51.8483 260.884 51.9395 260.807C52.0306 260.725 52.1673 260.684 52.3496 260.684H53.3955C53.5459 260.684 53.6439 260.711 53.6895 260.766C53.7396 260.816 53.7692 260.925 53.7783 261.094C53.9652 260.893 54.1657 260.745 54.3799 260.649C54.5941 260.554 54.8356 260.506 55.1045 260.506C55.4235 260.506 55.6855 260.576 55.8906 260.718C56.1003 260.854 56.2552 261.064 56.3555 261.347C56.5469 261.06 56.7679 260.848 57.0186 260.711C57.2692 260.574 57.5563 260.506 57.8799 260.506C58.4678 260.506 58.8962 260.697 59.165 261.08C59.4385 261.463 59.5752 262.083 59.5752 262.939V266.036H59.6846C59.9671 266.036 60.1562 266.07 60.252 266.139C60.3477 266.207 60.3955 266.33 60.3955 266.508C60.3955 266.672 60.3545 266.795 60.2725 266.877C60.1904 266.959 60.0697 267 59.9102 267H59.083C58.9007 267 58.7663 266.945 58.6797 266.836C58.5931 266.727 58.5498 266.553 58.5498 266.316V263.192ZM72.2012 258.715C72.2012 258.223 72.2445 257.913 72.3311 257.785C72.4222 257.658 72.6136 257.594 72.9053 257.594C73.1878 257.594 73.3747 257.648 73.4658 257.758C73.557 257.863 73.6025 258.116 73.6025 258.517C73.6025 258.909 73.5592 259.152 73.4727 259.248C73.3906 259.339 73.2015 259.385 72.9053 259.385C72.6136 259.385 72.4222 259.341 72.3311 259.255C72.2445 259.168 72.2012 258.988 72.2012 258.715ZM73.4658 266.036H75.6602C75.8379 266.036 75.9678 266.075 76.0498 266.152C76.1364 266.225 76.1797 266.344 76.1797 266.508C76.1797 266.695 76.1387 266.825 76.0566 266.897C75.9792 266.966 75.8333 267 75.6191 267H70.3145C70.1322 267 69.9954 266.959 69.9043 266.877C69.8132 266.795 69.7676 266.672 69.7676 266.508C69.7676 266.348 69.8154 266.23 69.9111 266.152C70.0068 266.075 70.1504 266.036 70.3418 266.036H72.4268V261.654H71.0938C70.9069 261.654 70.7633 261.613 70.6631 261.531C70.5674 261.445 70.5195 261.322 70.5195 261.162C70.5195 261.003 70.5651 260.884 70.6562 260.807C70.7474 260.725 70.8841 260.684 71.0664 260.684H73.0693C73.1924 260.684 73.2881 260.709 73.3564 260.759C73.4294 260.809 73.4658 260.877 73.4658 260.964V266.036ZM78.6953 266.036V261.654H78.5654C78.2555 261.654 78.0413 261.618 77.9229 261.545C77.8089 261.472 77.752 261.344 77.752 261.162C77.752 260.993 77.7998 260.873 77.8955 260.8C77.9912 260.722 78.1462 260.684 78.3604 260.684H78.6816H79.3379C79.4609 260.684 79.5566 260.709 79.625 260.759C79.6934 260.809 79.7275 260.877 79.7275 260.964V261.429C80.0602 261.119 80.3883 260.891 80.7119 260.745C81.04 260.595 81.3796 260.52 81.7305 260.52C82.4186 260.52 82.9587 260.734 83.3506 261.162C83.7471 261.59 83.9453 262.183 83.9453 262.939V266.036H84.2666C84.4945 266.036 84.6585 266.075 84.7588 266.152C84.859 266.225 84.9092 266.344 84.9092 266.508C84.9092 266.686 84.8545 266.813 84.7451 266.891C84.6403 266.964 84.4512 267 84.1777 267H82.667C82.3753 267 82.1885 266.966 82.1064 266.897C82.0244 266.829 81.9834 266.699 81.9834 266.508C81.9834 266.33 82.0312 266.207 82.127 266.139C82.2227 266.07 82.4027 266.036 82.667 266.036H82.9062V263.192C82.9062 262.659 82.7855 262.254 82.5439 261.976C82.3024 261.693 81.9515 261.552 81.4912 261.552C81.0264 261.552 80.6162 261.709 80.2607 262.023C79.9053 262.338 79.7275 262.728 79.7275 263.192V266.036H79.9668C80.2402 266.036 80.4248 266.07 80.5205 266.139C80.6162 266.207 80.6641 266.33 80.6641 266.508C80.6641 266.699 80.623 266.829 80.541 266.897C80.459 266.966 80.2585 267 79.9395 267H78.6953H78.3262C78.1393 267 77.998 266.961 77.9023 266.884C77.8112 266.802 77.7656 266.676 77.7656 266.508C77.7656 266.326 77.818 266.202 77.9229 266.139C78.0322 266.07 78.2419 266.036 78.5518 266.036H78.6953ZM86.666 266.508V265.291C86.666 265.09 86.7025 264.947 86.7754 264.86C86.8529 264.774 86.9759 264.73 87.1445 264.73C87.3314 264.73 87.4795 264.858 87.5889 265.113C87.6618 265.268 87.7279 265.384 87.7871 265.462C87.9785 265.708 88.2611 265.906 88.6348 266.057C89.0085 266.202 89.4209 266.275 89.8721 266.275C90.3551 266.275 90.7425 266.177 91.0342 265.981C91.3258 265.785 91.4717 265.528 91.4717 265.209C91.4717 264.885 91.3532 264.655 91.1162 264.519C90.8838 264.382 90.4827 264.313 89.9131 264.313H89.5371C88.6074 264.313 87.8988 264.152 87.4111 263.828C86.9235 263.505 86.6797 263.035 86.6797 262.42C86.6797 261.818 86.9167 261.351 87.3906 261.019C87.8691 260.686 88.5391 260.52 89.4004 260.52C89.7513 260.52 90.109 260.57 90.4736 260.67C90.8382 260.766 91.0296 260.813 91.0479 260.813C91.098 260.813 91.1937 260.77 91.335 260.684C91.4762 260.592 91.6152 260.547 91.752 260.547C91.9069 260.547 92.0208 260.604 92.0938 260.718C92.1712 260.832 92.21 261.003 92.21 261.23V262.03C92.21 262.272 92.1735 262.447 92.1006 262.557C92.0277 262.661 91.9115 262.714 91.752 262.714C91.6152 262.714 91.4466 262.598 91.2461 262.365C91.1048 262.206 90.9886 262.085 90.8975 262.003C90.6559 261.78 90.3984 261.62 90.125 261.524C89.8516 261.424 89.5303 261.374 89.1611 261.374C88.7327 261.374 88.3864 261.47 88.1221 261.661C87.8623 261.848 87.7324 262.087 87.7324 262.379C87.7324 262.666 87.8669 262.871 88.1357 262.994C88.4046 263.117 88.9834 263.188 89.8721 263.206C90.82 263.229 91.5127 263.395 91.9502 263.705C92.3877 264.01 92.6064 264.484 92.6064 265.127C92.6064 265.742 92.3649 266.234 91.8818 266.604C91.3988 266.973 90.7471 267.157 89.9268 267.157C89.667 267.157 89.3776 267.132 89.0586 267.082C88.7396 267.036 88.3385 266.957 87.8555 266.843C87.696 266.948 87.5592 267.025 87.4453 267.075C87.3314 267.13 87.2357 267.157 87.1582 267.157C86.9987 267.157 86.8757 267.103 86.7891 266.993C86.707 266.879 86.666 266.717 86.666 266.508ZM99.9209 261.066C100.144 261.066 100.306 261.105 100.406 261.183C100.511 261.26 100.563 261.383 100.563 261.552C100.563 261.711 100.516 261.832 100.42 261.914C100.324 261.992 100.181 262.03 99.9893 262.03H97.2207V264.313C97.2207 265.061 97.3164 265.553 97.5078 265.79C97.7038 266.027 98.0365 266.146 98.5059 266.146C98.9206 266.146 99.4173 266.025 99.9961 265.783C100.575 265.542 100.933 265.421 101.069 265.421C101.197 265.421 101.304 265.466 101.391 265.558C101.482 265.649 101.527 265.76 101.527 265.893C101.527 266.043 101.47 266.175 101.356 266.289C101.247 266.398 101.058 266.506 100.789 266.61C100.342 266.788 99.9391 266.918 99.5791 267C99.2236 267.082 98.8887 267.123 98.5742 267.123C98.041 267.123 97.5921 267.039 97.2275 266.87C96.8675 266.697 96.5986 266.442 96.4209 266.104C96.3298 265.945 96.2637 265.756 96.2227 265.537C96.1862 265.318 96.168 264.981 96.168 264.525V264.313V262.03H95.0059C94.8145 262.03 94.6755 261.994 94.5889 261.921C94.5023 261.843 94.459 261.72 94.459 261.552C94.459 261.365 94.5182 261.237 94.6367 261.169C94.7552 261.101 95.0081 261.066 95.3955 261.066H96.168V259.665V259.303C96.168 259.107 96.209 258.963 96.291 258.872C96.3776 258.776 96.5098 258.729 96.6875 258.729C96.888 258.729 97.027 258.785 97.1045 258.899C97.182 259.013 97.2207 259.273 97.2207 259.679V261.066H99.9209ZM107.98 263.979C107.73 263.896 107.486 263.837 107.249 263.801C107.017 263.76 106.784 263.739 106.552 263.739C105.85 263.739 105.296 263.858 104.891 264.095C104.485 264.332 104.282 264.651 104.282 265.052C104.282 265.362 104.408 265.617 104.658 265.817C104.913 266.018 105.237 266.118 105.629 266.118C106.208 266.118 106.743 265.968 107.235 265.667C107.732 265.362 107.98 265.045 107.98 264.717V263.979ZM108.035 266.132C107.661 266.469 107.254 266.727 106.812 266.904C106.374 267.082 105.923 267.171 105.458 267.171C104.779 267.171 104.23 266.982 103.811 266.604C103.396 266.225 103.188 265.733 103.188 265.127C103.188 264.407 103.464 263.849 104.016 263.452C104.572 263.056 105.351 262.857 106.354 262.857C106.618 262.857 106.884 262.876 107.153 262.912C107.422 262.944 107.698 262.996 107.98 263.069V263.021C107.98 262.497 107.855 262.11 107.604 261.859C107.354 261.609 106.964 261.483 106.436 261.483C106.08 261.483 105.684 261.579 105.246 261.771C104.809 261.962 104.519 262.058 104.378 262.058C104.246 262.058 104.136 262.005 104.05 261.9C103.963 261.791 103.92 261.652 103.92 261.483C103.92 261.215 104.171 260.987 104.672 260.8C105.178 260.613 105.823 260.52 106.606 260.52C107.409 260.52 108.015 260.725 108.425 261.135C108.835 261.54 109.04 262.142 109.04 262.939V266.036H109.375C109.699 266.036 109.915 266.07 110.024 266.139C110.134 266.207 110.188 266.33 110.188 266.508C110.188 266.672 110.143 266.795 110.052 266.877C109.961 266.959 109.824 267 109.642 267H108.568C108.441 267 108.336 266.961 108.254 266.884C108.172 266.806 108.117 266.695 108.09 266.549L108.035 266.132ZM114.413 259.036H113.251C112.809 259.036 112.531 259.002 112.417 258.934C112.308 258.861 112.253 258.731 112.253 258.544C112.253 258.38 112.299 258.257 112.39 258.175C112.485 258.093 112.622 258.052 112.8 258.052H115.056C115.179 258.052 115.274 258.077 115.343 258.127C115.411 258.177 115.445 258.245 115.445 258.332V266.036H117.592C117.765 266.036 117.89 266.075 117.968 266.152C118.05 266.225 118.091 266.344 118.091 266.508C118.091 266.695 118.052 266.825 117.975 266.897C117.897 266.966 117.751 267 117.537 267H112.492C112.314 267 112.178 266.959 112.082 266.877C111.991 266.795 111.945 266.672 111.945 266.508C111.945 266.348 111.993 266.23 112.089 266.152C112.185 266.075 112.328 266.036 112.52 266.036H114.413V259.036ZM122.821 259.036H121.659C121.217 259.036 120.939 259.002 120.825 258.934C120.716 258.861 120.661 258.731 120.661 258.544C120.661 258.38 120.707 258.257 120.798 258.175C120.894 258.093 121.03 258.052 121.208 258.052H123.464C123.587 258.052 123.683 258.077 123.751 258.127C123.819 258.177 123.854 258.245 123.854 258.332V266.036H126C126.173 266.036 126.299 266.075 126.376 266.152C126.458 266.225 126.499 266.344 126.499 266.508C126.499 266.695 126.46 266.825 126.383 266.897C126.305 266.966 126.16 267 125.945 267H120.9C120.723 267 120.586 266.959 120.49 266.877C120.399 266.795 120.354 266.672 120.354 266.508C120.354 266.348 120.401 266.23 120.497 266.152C120.593 266.075 120.736 266.036 120.928 266.036H122.821V259.036ZM141.374 260.629V260.465C141.374 259.831 141.269 259.346 141.06 259.009C140.85 258.672 140.554 258.503 140.171 258.503C139.597 258.503 139.148 258.852 138.824 259.549C138.505 260.246 138.346 261.228 138.346 262.495C138.346 263.94 138.53 265.027 138.899 265.756C139.273 266.48 139.827 266.843 140.561 266.843C140.766 266.843 141.005 266.799 141.278 266.713C141.552 266.626 141.727 266.583 141.805 266.583C141.891 266.583 141.964 266.617 142.023 266.686C142.083 266.749 142.112 266.831 142.112 266.932C142.112 267.155 141.957 267.342 141.647 267.492C141.338 267.647 140.952 267.725 140.492 267.725C139.503 267.725 138.742 267.287 138.209 266.412C137.676 265.537 137.409 264.282 137.409 262.646C137.409 261.055 137.655 259.825 138.147 258.954C138.64 258.084 139.332 257.648 140.226 257.648C140.941 257.648 141.465 257.91 141.798 258.435C142.131 258.954 142.297 259.788 142.297 260.937V263.726C142.397 263.853 142.463 263.951 142.495 264.02C142.532 264.088 142.55 264.152 142.55 264.211C142.55 264.361 142.493 264.496 142.379 264.614C142.265 264.728 142.135 264.785 141.989 264.785C141.912 264.785 141.832 264.762 141.75 264.717C141.673 264.667 141.579 264.582 141.47 264.464C141.283 264.55 141.105 264.612 140.937 264.648C140.768 264.685 140.597 264.703 140.424 264.703C139.973 264.703 139.597 264.528 139.296 264.177C139 263.821 138.852 263.368 138.852 262.816C138.852 262.137 139.057 261.602 139.467 261.21C139.877 260.813 140.433 260.615 141.135 260.615C141.162 260.615 141.201 260.618 141.251 260.622C141.306 260.627 141.347 260.629 141.374 260.629ZM141.374 263.685V261.415C141.338 261.41 141.301 261.408 141.265 261.408C141.228 261.404 141.176 261.401 141.107 261.401C140.688 261.401 140.355 261.524 140.109 261.771C139.868 262.017 139.747 262.352 139.747 262.775C139.747 263.117 139.829 263.382 139.993 263.568C140.162 263.755 140.396 263.849 140.697 263.849C140.775 263.849 140.87 263.835 140.984 263.808C141.098 263.78 141.228 263.739 141.374 263.685ZM146.029 263.89C146.029 264.509 146.23 265.018 146.631 265.414C147.032 265.811 147.549 266.009 148.183 266.009C148.816 266.009 149.333 265.808 149.734 265.407C150.14 265.002 150.343 264.487 150.343 263.862C150.343 263.243 150.14 262.732 149.734 262.331C149.333 261.925 148.816 261.723 148.183 261.723C147.545 261.723 147.025 261.925 146.624 262.331C146.228 262.737 146.029 263.256 146.029 263.89ZM150.315 268.75V266.022C150.033 266.341 149.689 266.588 149.283 266.761C148.878 266.929 148.431 267.014 147.943 267.014C147.046 267.014 146.303 266.724 145.715 266.146C145.132 265.567 144.84 264.828 144.84 263.931C144.84 262.992 145.147 262.215 145.763 261.6C146.382 260.98 147.153 260.67 148.073 260.67C148.502 260.67 148.903 260.75 149.276 260.909C149.65 261.069 149.996 261.308 150.315 261.627V260.964C150.315 260.868 150.345 260.798 150.404 260.752C150.468 260.706 150.568 260.684 150.705 260.684H151.737C151.92 260.684 152.054 260.722 152.141 260.8C152.227 260.877 152.271 260.998 152.271 261.162C152.271 261.344 152.214 261.472 152.1 261.545C151.99 261.618 151.783 261.654 151.478 261.654H151.348V268.75H151.478C151.787 268.75 151.999 268.786 152.113 268.859C152.227 268.932 152.284 269.06 152.284 269.242C152.284 269.402 152.239 269.522 152.147 269.604C152.056 269.687 151.92 269.728 151.737 269.728H148.716C148.502 269.728 148.351 269.691 148.265 269.618C148.183 269.545 148.142 269.42 148.142 269.242C148.142 269.078 148.187 268.955 148.278 268.873C148.369 268.791 148.502 268.75 148.675 268.75H150.315ZM155.21 264.478C155.21 265.052 155.331 265.471 155.572 265.735C155.814 266 156.197 266.132 156.721 266.132C157.217 266.132 157.641 265.975 157.992 265.66C158.348 265.346 158.525 264.951 158.525 264.478V261.654H157.589C157.411 261.654 157.281 261.618 157.199 261.545C157.122 261.467 157.083 261.349 157.083 261.189C157.083 261.016 157.126 260.889 157.213 260.807C157.299 260.725 157.438 260.684 157.63 260.684H159.086C159.259 260.684 159.38 260.722 159.448 260.8C159.521 260.873 159.558 261.055 159.558 261.347V266.036H159.872C160.095 266.036 160.255 266.073 160.351 266.146C160.451 266.218 160.501 266.339 160.501 266.508C160.501 266.672 160.453 266.795 160.357 266.877C160.266 266.959 160.132 267 159.954 267H158.915C158.792 267 158.696 266.975 158.628 266.925C158.56 266.875 158.525 266.806 158.525 266.72V266.255C158.088 266.592 157.712 266.825 157.397 266.952C157.088 267.075 156.759 267.137 156.413 267.137C155.661 267.137 155.096 266.938 154.718 266.542C154.344 266.141 154.157 265.537 154.157 264.73V261.654H154.014C153.704 261.654 153.492 261.618 153.378 261.545C153.264 261.472 153.207 261.344 153.207 261.162C153.207 261.003 153.25 260.884 153.337 260.807C153.428 260.725 153.567 260.684 153.754 260.684H154.786C154.946 260.684 155.055 260.715 155.114 260.779C155.178 260.843 155.21 260.984 155.21 261.203V264.478ZM163.01 264.143C163.046 264.799 163.267 265.307 163.673 265.667C164.083 266.022 164.641 266.2 165.348 266.2C165.881 266.2 166.462 266.059 167.091 265.776C167.72 265.489 168.1 265.346 168.232 265.346C168.369 265.346 168.483 265.389 168.574 265.476C168.665 265.562 168.711 265.669 168.711 265.797C168.711 265.929 168.663 266.05 168.567 266.159C168.472 266.269 168.319 266.376 168.109 266.48C167.654 266.704 167.182 266.875 166.694 266.993C166.211 267.112 165.73 267.171 165.252 267.171C164.213 267.171 163.381 266.872 162.757 266.275C162.132 265.674 161.82 264.879 161.82 263.89C161.82 262.882 162.151 262.067 162.812 261.442C163.472 260.818 164.334 260.506 165.396 260.506C166.357 260.506 167.155 260.798 167.788 261.381C168.422 261.964 168.738 262.671 168.738 263.5C168.738 263.755 168.684 263.926 168.574 264.013C168.469 264.099 168.18 264.143 167.706 264.143H167.604H163.01ZM163.044 263.247H167.494C167.426 262.705 167.198 262.27 166.811 261.941C166.428 261.609 165.956 261.442 165.396 261.442C164.789 261.442 164.279 261.602 163.864 261.921C163.45 262.24 163.176 262.682 163.044 263.247ZM173.271 259.036H172.108C171.666 259.036 171.388 259.002 171.274 258.934C171.165 258.861 171.11 258.731 171.11 258.544C171.11 258.38 171.156 258.257 171.247 258.175C171.343 258.093 171.479 258.052 171.657 258.052H173.913C174.036 258.052 174.132 258.077 174.2 258.127C174.269 258.177 174.303 258.245 174.303 258.332V266.036H176.449C176.622 266.036 176.748 266.075 176.825 266.152C176.907 266.225 176.948 266.344 176.948 266.508C176.948 266.695 176.91 266.825 176.832 266.897C176.755 266.966 176.609 267 176.395 267H171.35C171.172 267 171.035 266.959 170.939 266.877C170.848 266.795 170.803 266.672 170.803 266.508C170.803 266.348 170.851 266.23 170.946 266.152C171.042 266.075 171.186 266.036 171.377 266.036H173.271V259.036ZM181.679 259.036H180.517C180.075 259.036 179.797 259.002 179.683 258.934C179.573 258.861 179.519 258.731 179.519 258.544C179.519 258.38 179.564 258.257 179.655 258.175C179.751 258.093 179.888 258.052 180.065 258.052H182.321C182.444 258.052 182.54 258.077 182.608 258.127C182.677 258.177 182.711 258.245 182.711 258.332V266.036H184.857C185.031 266.036 185.156 266.075 185.233 266.152C185.315 266.225 185.356 266.344 185.356 266.508C185.356 266.695 185.318 266.825 185.24 266.897C185.163 266.966 185.017 267 184.803 267H179.758C179.58 267 179.443 266.959 179.348 266.877C179.257 266.795 179.211 266.672 179.211 266.508C179.211 266.348 179.259 266.23 179.354 266.152C179.45 266.075 179.594 266.036 179.785 266.036H181.679V259.036ZM189.007 267.185C188.907 267.412 188.811 267.567 188.72 267.649C188.633 267.731 188.528 267.772 188.405 267.772C188.278 267.772 188.166 267.725 188.07 267.629C187.975 267.538 187.927 267.426 187.927 267.294C187.927 267.257 187.934 267.214 187.947 267.164C187.961 267.118 187.979 267.068 188.002 267.014L192.268 257.819C192.382 257.582 192.482 257.423 192.568 257.341C192.655 257.254 192.76 257.211 192.883 257.211C193.02 257.211 193.136 257.257 193.231 257.348C193.327 257.439 193.375 257.548 193.375 257.676C193.375 257.712 193.368 257.753 193.354 257.799C193.345 257.844 193.329 257.888 193.307 257.929L189.007 267.185ZM201.011 261.094V261.066C201.011 260.916 201.054 260.807 201.141 260.738C201.227 260.665 201.362 260.629 201.544 260.629C201.731 260.629 201.858 260.684 201.927 260.793C202 260.902 202.036 261.128 202.036 261.47V262.741C202.036 262.91 201.993 263.037 201.906 263.124C201.82 263.206 201.69 263.247 201.517 263.247C201.394 263.247 201.286 263.213 201.195 263.145C201.109 263.072 201.002 262.924 200.874 262.7C200.655 262.331 200.389 262.053 200.074 261.866C199.764 261.675 199.407 261.579 199.001 261.579C198.29 261.579 197.711 261.789 197.265 262.208C196.823 262.627 196.602 263.17 196.602 263.835C196.602 264.514 196.813 265.07 197.237 265.503C197.666 265.931 198.215 266.146 198.885 266.146C199.19 266.146 199.479 266.104 199.753 266.022C200.031 265.936 200.293 265.808 200.539 265.64C200.626 265.585 200.742 265.501 200.888 265.387C201.184 265.145 201.416 265.024 201.585 265.024C201.726 265.024 201.84 265.07 201.927 265.161C202.018 265.248 202.063 265.362 202.063 265.503C202.063 265.863 201.722 266.232 201.038 266.61C200.359 266.984 199.637 267.171 198.871 267.171C197.882 267.171 197.057 266.854 196.396 266.221C195.74 265.587 195.412 264.797 195.412 263.849C195.412 262.901 195.74 262.11 196.396 261.477C197.053 260.839 197.873 260.52 198.857 260.52C199.204 260.52 199.55 260.567 199.896 260.663C200.247 260.754 200.619 260.898 201.011 261.094ZM206.903 259.036H205.741C205.299 259.036 205.021 259.002 204.907 258.934C204.798 258.861 204.743 258.731 204.743 258.544C204.743 258.38 204.789 258.257 204.88 258.175C204.976 258.093 205.112 258.052 205.29 258.052H207.546C207.669 258.052 207.765 258.077 207.833 258.127C207.901 258.177 207.936 258.245 207.936 258.332V266.036H210.082C210.255 266.036 210.381 266.075 210.458 266.152C210.54 266.225 210.581 266.344 210.581 266.508C210.581 266.695 210.542 266.825 210.465 266.897C210.387 266.966 210.242 267 210.027 267H204.982C204.805 267 204.668 266.959 204.572 266.877C204.481 266.795 204.436 266.672 204.436 266.508C204.436 266.348 204.483 266.23 204.579 266.152C204.675 266.075 204.818 266.036 205.01 266.036H206.903V259.036ZM215.141 258.715C215.141 258.223 215.184 257.913 215.271 257.785C215.362 257.658 215.553 257.594 215.845 257.594C216.127 257.594 216.314 257.648 216.405 257.758C216.496 257.863 216.542 258.116 216.542 258.517C216.542 258.909 216.499 259.152 216.412 259.248C216.33 259.339 216.141 259.385 215.845 259.385C215.553 259.385 215.362 259.341 215.271 259.255C215.184 259.168 215.141 258.988 215.141 258.715ZM216.405 266.036H218.6C218.777 266.036 218.907 266.075 218.989 266.152C219.076 266.225 219.119 266.344 219.119 266.508C219.119 266.695 219.078 266.825 218.996 266.897C218.919 266.966 218.773 267 218.559 267H213.254C213.072 267 212.935 266.959 212.844 266.877C212.753 266.795 212.707 266.672 212.707 266.508C212.707 266.348 212.755 266.23 212.851 266.152C212.946 266.075 213.09 266.036 213.281 266.036H215.366V261.654H214.033C213.846 261.654 213.703 261.613 213.603 261.531C213.507 261.445 213.459 261.322 213.459 261.162C213.459 261.003 213.505 260.884 213.596 260.807C213.687 260.725 213.824 260.684 214.006 260.684H216.009C216.132 260.684 216.228 260.709 216.296 260.759C216.369 260.809 216.405 260.877 216.405 260.964V266.036ZM221.867 264.143C221.904 264.799 222.125 265.307 222.53 265.667C222.94 266.022 223.499 266.2 224.205 266.2C224.738 266.2 225.319 266.059 225.948 265.776C226.577 265.489 226.958 265.346 227.09 265.346C227.227 265.346 227.34 265.389 227.432 265.476C227.523 265.562 227.568 265.669 227.568 265.797C227.568 265.929 227.521 266.05 227.425 266.159C227.329 266.269 227.176 266.376 226.967 266.48C226.511 266.704 226.039 266.875 225.552 266.993C225.069 267.112 224.588 267.171 224.109 267.171C223.07 267.171 222.239 266.872 221.614 266.275C220.99 265.674 220.678 264.879 220.678 263.89C220.678 262.882 221.008 262.067 221.669 261.442C222.33 260.818 223.191 260.506 224.253 260.506C225.215 260.506 226.012 260.798 226.646 261.381C227.279 261.964 227.596 262.671 227.596 263.5C227.596 263.755 227.541 263.926 227.432 264.013C227.327 264.099 227.037 264.143 226.563 264.143H226.461H221.867ZM221.901 263.247H226.352C226.283 262.705 226.055 262.27 225.668 261.941C225.285 261.609 224.813 261.442 224.253 261.442C223.647 261.442 223.136 261.602 222.722 261.921C222.307 262.24 222.034 262.682 221.901 263.247ZM230.043 266.036V261.654H229.913C229.603 261.654 229.389 261.618 229.271 261.545C229.157 261.472 229.1 261.344 229.1 261.162C229.1 260.993 229.147 260.873 229.243 260.8C229.339 260.722 229.494 260.684 229.708 260.684H230.029H230.686C230.809 260.684 230.904 260.709 230.973 260.759C231.041 260.809 231.075 260.877 231.075 260.964V261.429C231.408 261.119 231.736 260.891 232.06 260.745C232.388 260.595 232.727 260.52 233.078 260.52C233.766 260.52 234.306 260.734 234.698 261.162C235.095 261.59 235.293 262.183 235.293 262.939V266.036H235.614C235.842 266.036 236.006 266.075 236.106 266.152C236.207 266.225 236.257 266.344 236.257 266.508C236.257 266.686 236.202 266.813 236.093 266.891C235.988 266.964 235.799 267 235.525 267H234.015C233.723 267 233.536 266.966 233.454 266.897C233.372 266.829 233.331 266.699 233.331 266.508C233.331 266.33 233.379 266.207 233.475 266.139C233.57 266.07 233.75 266.036 234.015 266.036H234.254V263.192C234.254 262.659 234.133 262.254 233.892 261.976C233.65 261.693 233.299 261.552 232.839 261.552C232.374 261.552 231.964 261.709 231.608 262.023C231.253 262.338 231.075 262.728 231.075 263.192V266.036H231.314C231.588 266.036 231.772 266.07 231.868 266.139C231.964 266.207 232.012 266.33 232.012 266.508C232.012 266.699 231.971 266.829 231.889 266.897C231.807 266.966 231.606 267 231.287 267H230.043H229.674C229.487 267 229.346 266.961 229.25 266.884C229.159 266.802 229.113 266.676 229.113 266.508C229.113 266.326 229.166 266.202 229.271 266.139C229.38 266.07 229.59 266.036 229.899 266.036H230.043ZM242.86 261.066C243.084 261.066 243.245 261.105 243.346 261.183C243.451 261.26 243.503 261.383 243.503 261.552C243.503 261.711 243.455 261.832 243.359 261.914C243.264 261.992 243.12 262.03 242.929 262.03H240.16V264.313C240.16 265.061 240.256 265.553 240.447 265.79C240.643 266.027 240.976 266.146 241.445 266.146C241.86 266.146 242.357 266.025 242.936 265.783C243.514 265.542 243.872 265.421 244.009 265.421C244.136 265.421 244.243 265.466 244.33 265.558C244.421 265.649 244.467 265.76 244.467 265.893C244.467 266.043 244.41 266.175 244.296 266.289C244.187 266.398 243.997 266.506 243.729 266.61C243.282 266.788 242.879 266.918 242.519 267C242.163 267.082 241.828 267.123 241.514 267.123C240.98 267.123 240.532 267.039 240.167 266.87C239.807 266.697 239.538 266.442 239.36 266.104C239.269 265.945 239.203 265.756 239.162 265.537C239.126 265.318 239.107 264.981 239.107 264.525V264.313V262.03H237.945C237.754 262.03 237.615 261.994 237.528 261.921C237.442 261.843 237.398 261.72 237.398 261.552C237.398 261.365 237.458 261.237 237.576 261.169C237.695 261.101 237.948 261.066 238.335 261.066H239.107V259.665V259.303C239.107 259.107 239.148 258.963 239.23 258.872C239.317 258.776 239.449 258.729 239.627 258.729C239.827 258.729 239.966 258.785 240.044 258.899C240.121 259.013 240.16 259.273 240.16 259.679V261.066H242.86Z" fill="black"/>
</svg>
