<svg width="15" height="20" viewBox="0 0 15 20" fill="none" xmlns="http://www.w3.org/2000/svg">
<path d="M12.3974 1.74248C12.6278 1.20734 12.456 0.582364 11.9834 0.238626C11.5109 -0.105112 10.8665 -0.0738627 10.4251 0.308936L0.427308 9.05863C0.0367676 9.40236 -0.103827 9.95313 0.079727 10.4375C0.263281 10.9218 0.73193 11.25 1.25135 11.25H5.60588L2.60262 18.2575C2.3722 18.7927 2.54404 19.4176 3.01659 19.7614C3.48915 20.1051 4.13354 20.0739 4.57485 19.6911L14.5727 10.9414C14.9632 10.5976 15.1038 10.0469 14.9203 9.56252C14.7367 9.07816 14.272 8.75395 13.7486 8.75395H9.39412L12.3974 1.74248Z" fill="#7DD0E9"/>
</svg>
