<?xml version="1.0" standalone="no"?>
<!DOCTYPE svg PUBLIC "-//W3C//DTD SVG 20010904//EN"
 "http://www.w3.org/TR/2001/REC-SVG-20010904/DTD/svg10.dtd">
<svg version="1.0" xmlns="http://www.w3.org/2000/svg"
 width="3386.000000pt" height="3386.000000pt" viewBox="0 0 3386.000000 3386.000000"
 preserveAspectRatio="xMidYMid meet">
<metadata>
Created by potrace 1.14, written by Peter Selinger 2001-2017
</metadata>
<g transform="translate(0.000000,3386.000000) scale(0.100000,-0.100000)"
fill="#000000" stroke="none">
<path d="M25112 33840 c-72 -26 -110 -51 -162 -107 -56 -60 -76 -95 -95 -169
-13 -50 -15 -198 -15 -1086 l0 -1028 -517 -1 c-285 0 -531 -3 -548 -5 -47 -8
-127 -44 -170 -78 -48 -37 -55 -44 -225 -262 -74 -94 -281 -357 -460 -584
-179 -227 -356 -451 -393 -499 -38 -47 -87 -111 -109 -141 -23 -30 -44 -57
-48 -60 -3 -3 -21 -25 -40 -50 -19 -25 -37 -47 -40 -50 -3 -3 -37 -45 -75 -95
-38 -49 -74 -95 -80 -102 -5 -6 -21 -26 -35 -44 -47 -61 -151 -194 -163 -209
-7 -8 -95 -121 -197 -250 -101 -129 -187 -237 -191 -240 -3 -3 -21 -26 -40
-51 -19 -26 -108 -141 -199 -255 -207 -263 -684 -868 -849 -1079 -69 -88 -131
-167 -138 -175 -7 -8 -85 -107 -173 -220 -88 -113 -166 -212 -173 -220 -20
-25 -339 -430 -380 -483 -21 -27 -147 -187 -280 -355 -402 -512 -618 -785
-646 -821 -14 -19 -39 -51 -56 -72 -41 -51 -83 -104 -385 -489 -145 -184 -296
-375 -335 -425 -39 -49 -172 -218 -295 -375 -123 -157 -341 -433 -484 -615
-142 -181 -273 -348 -290 -370 -17 -22 -33 -42 -36 -45 -3 -3 -71 -88 -150
-190 -80 -102 -150 -192 -157 -200 -39 -48 -285 -360 -380 -482 -110 -141
-329 -420 -383 -488 -15 -19 -92 -116 -169 -215 -78 -99 -147 -187 -154 -195
-7 -8 -78 -98 -157 -200 -80 -102 -150 -192 -157 -200 -7 -8 -53 -67 -103
-130 -50 -63 -96 -122 -103 -130 -7 -8 -95 -121 -196 -250 -101 -129 -196
-249 -210 -266 -14 -16 -37 -45 -51 -63 -14 -19 -155 -199 -313 -400 -158
-201 -299 -379 -311 -396 -93 -118 -310 -393 -319 -405 -7 -8 -171 -217 -366
-464 -194 -247 -357 -454 -362 -460 -5 -6 -28 -36 -51 -66 -24 -30 -45 -57
-48 -60 -3 -3 -37 -45 -75 -95 -38 -49 -75 -97 -82 -105 -7 -8 -60 -76 -118
-150 -58 -74 -116 -147 -130 -163 -14 -15 -25 -31 -25 -36 0 -5 -4 -11 -8 -13
-4 -1 -39 -43 -77 -93 -39 -49 -76 -97 -82 -105 -15 -18 -419 -531 -507 -643
-33 -44 -68 -87 -76 -97 -8 -9 -26 -32 -40 -50 -25 -33 -110 -142 -133 -170
-11 -14 -506 -643 -562 -715 -13 -16 -79 -100 -146 -185 -67 -85 -149 -189
-181 -230 -32 -41 -64 -82 -71 -90 -7 -8 -37 -47 -67 -85 -30 -39 -57 -72 -60
-75 -3 -3 -46 -57 -95 -120 -49 -63 -137 -176 -196 -250 -86 -108 -297 -377
-597 -760 -15 -19 -45 -57 -67 -85 -79 -98 -440 -557 -460 -583 -11 -15 -64
-83 -118 -152 -55 -69 -110 -138 -123 -155 -110 -141 -272 -347 -295 -375 -15
-19 -63 -80 -106 -135 -43 -55 -82 -105 -88 -111 -5 -6 -37 -46 -70 -89 -51
-66 -198 -253 -295 -375 -27 -34 -56 -71 -182 -232 -204 -259 -494 -628 -518
-658 -15 -19 -106 -134 -200 -255 -95 -121 -202 -256 -236 -300 -35 -44 -67
-84 -71 -90 -9 -11 -152 -192 -170 -215 -10 -13 -77 -98 -358 -455 -34 -44
-93 -118 -129 -165 -37 -47 -72 -92 -79 -100 -7 -8 -37 -47 -67 -85 -30 -38
-60 -77 -67 -85 -7 -8 -51 -64 -98 -125 -48 -60 -94 -119 -103 -130 -9 -11
-73 -92 -142 -180 -68 -88 -129 -165 -135 -171 -5 -7 -27 -34 -47 -60 -35 -46
-255 -325 -443 -564 -46 -58 -196 -249 -334 -425 -139 -176 -263 -335 -278
-353 -14 -18 -113 -144 -220 -280 -107 -136 -205 -260 -218 -277 -47 -58 -241
-304 -300 -381 -33 -42 -65 -82 -70 -88 -6 -6 -47 -58 -92 -116 -81 -104 -652
-831 -676 -860 -138 -168 -573 -733 -586 -764 -28 -62 -39 -119 -36 -185 7
-151 90 -274 231 -342 59 -28 81 -33 154 -35 89 -3 145 10 755 177 83 22 157
42 165 44 8 2 78 20 155 40 77 21 196 52 265 70 69 19 204 54 300 80 96 26
231 62 300 80 290 77 331 88 450 120 69 18 186 49 260 69 74 20 212 56 305 82
94 25 177 47 185 49 31 6 147 37 190 50 25 8 160 44 300 81 140 37 363 96 495
131 132 36 247 66 255 68 20 4 173 45 685 182 237 63 500 132 585 155 85 22
218 57 295 78 77 20 203 54 280 75 349 92 402 106 430 115 17 5 41 11 55 14
20 4 706 186 1280 340 69 18 206 55 305 81 99 26 252 67 339 90 l160 43 80
-33 c179 -73 339 -138 976 -397 366 -148 679 -276 695 -283 17 -7 64 -27 105
-43 376 -152 679 -274 695 -282 11 -5 121 -50 245 -100 124 -50 295 -120 380
-155 85 -34 457 -186 825 -335 369 -150 684 -278 700 -285 17 -7 161 -66 320
-130 160 -65 304 -123 320 -130 78 -35 114 -37 914 -38 l796 -2 1 -1480 c1
-814 4 -1502 8 -1530 16 -115 47 -196 99 -260 l25 -30 755 0 755 0 26 24 c39
37 75 118 94 214 44 215 -7 475 -107 546 -28 20 -41 21 -435 21 -380 0 -406 1
-406 18 -1 39 -2 2285 -1 2379 l1 101 1153 -1 1152 -2 1 -1475 c0 -811 4
-1500 8 -1530 17 -123 72 -237 127 -266 24 -12 144 -14 755 -14 706 0 728 1
759 20 48 30 97 133 120 255 7 38 7 220 -1 260 -23 125 -65 220 -114 255 -30
21 -37 21 -437 23 l-408 2 -1 1225 c0 674 2 1230 4 1237 2 8 206 11 802 11
693 0 805 2 852 16 105 30 77 4 809 747 112 114 475 480 806 815 330 335 690
700 800 811 109 110 473 479 810 820 336 340 707 715 823 833 117 118 483 489
814 823 330 335 698 707 816 827 118 120 483 490 811 822 1225 1238 1147 1157
1181 1227 41 82 50 196 22 287 -9 33 -18 64 -20 69 -1 6 -41 152 -89 325 -48
173 -95 347 -105 385 -23 89 -205 754 -225 820 -8 28 -35 127 -60 220 -26 94
-83 301 -126 460 -44 160 -82 297 -84 305 -4 17 -59 218 -80 295 -53 191 -177
645 -212 775 -14 52 -31 115 -38 140 -20 67 -66 233 -70 250 -3 13 -68 253
-110 405 -16 56 -88 321 -111 405 -8 30 -22 78 -30 106 -8 28 -16 60 -18 70
-2 11 -31 116 -64 234 -55 198 -71 259 -78 285 -4 19 -104 380 -114 415 -6 19
-46 166 -89 325 -44 160 -101 366 -126 460 -26 93 -48 177 -50 186 -2 9 -12
47 -24 85 -17 60 -48 171 -96 349 -7 28 -41 151 -75 275 -34 124 -81 297 -105
385 -24 88 -84 309 -134 490 -50 182 -104 380 -121 440 -17 61 -35 126 -40
145 -43 155 -61 220 -65 236 -4 19 -66 244 -145 529 -23 83 -43 157 -45 165
-12 50 -49 185 -65 240 -17 56 -205 739 -215 780 -2 8 -14 56 -27 105 l-23 90
0 1095 0 1095 121 60 c66 33 194 96 285 139 90 44 290 141 444 217 154 75 345
168 425 207 80 38 253 123 385 187 293 143 557 272 770 375 1062 514 1114 541
1168 584 172 138 183 421 23 582 -36 35 -104 78 -341 212 -257 145 -274 154
-365 207 -36 21 -85 49 -110 63 -25 14 -252 143 -505 287 -253 144 -480 273
-505 287 -25 14 -101 58 -168 97 -68 39 -126 71 -128 71 -2 0 -32 17 -66 38
-35 21 -70 41 -78 45 -8 4 -33 18 -55 32 -22 14 -46 28 -54 32 -12 5 -116 64
-306 173 -424 242 -696 396 -717 407 l-28 14 0 152 c-1 84 -1 530 -1 992 0
462 -5 862 -10 888 -26 142 -147 273 -290 314 -13 4 -585 10 -1270 13 l-1246
5 -1 798 c0 548 4 799 11 804 6 3 285 7 621 7 l611 1 1 398 1 397 -866 0
c-823 -1 -869 -2 -919 -20z m2544 -4115 c1 -971 0 -958 47 -1048 43 -84 110
-135 372 -283 138 -78 540 -307 895 -509 355 -202 665 -379 690 -393 25 -13
50 -28 55 -32 6 -4 35 -21 65 -37 53 -29 78 -43 166 -94 36 -21 429 -245 557
-318 23 -13 56 -31 72 -40 99 -55 165 -93 165 -97 0 -4 -406 -206 -420 -209
-3 -1 -99 -48 -215 -104 -115 -57 -277 -136 -360 -176 -82 -40 -258 -125 -390
-190 -132 -64 -303 -148 -380 -185 -77 -37 -243 -118 -370 -180 -951 -464
-892 -436 -1320 -615 -88 -37 -230 -96 -315 -132 -85 -35 -168 -71 -185 -78
-16 -8 -59 -26 -95 -40 -36 -14 -78 -32 -95 -39 -16 -8 -97 -42 -180 -76 -82
-34 -163 -68 -180 -75 -16 -8 -187 -79 -380 -160 -192 -80 -370 -155 -394
-166 -24 -11 -67 -29 -95 -40 -28 -11 -64 -26 -81 -33 -16 -8 -129 -55 -250
-106 -121 -51 -233 -98 -250 -105 -16 -8 -70 -30 -120 -50 -49 -20 -97 -40
-106 -45 -9 -4 -94 -40 -190 -80 -96 -39 -198 -82 -227 -96 -29 -13 -55 -24
-57 -24 -3 0 -24 -9 -48 -19 -23 -11 -391 -166 -817 -344 -1135 -477 -1611
-677 -1645 -692 -16 -7 -151 -64 -300 -126 -380 -158 -595 -248 -630 -264 -16
-7 -70 -30 -120 -50 -49 -21 -108 -45 -130 -55 -22 -10 -193 -82 -380 -160
-187 -78 -353 -147 -370 -155 -16 -7 -129 -54 -250 -105 -121 -51 -249 -104
-285 -120 -36 -15 -164 -69 -285 -120 -121 -50 -233 -97 -250 -105 -16 -7 -53
-23 -81 -34 -28 -11 -71 -29 -95 -39 -24 -11 -116 -50 -204 -87 -88 -36 -169
-70 -180 -75 -11 -5 -108 -46 -215 -91 -107 -45 -280 -117 -385 -161 -104 -44
-244 -102 -310 -130 -66 -27 -133 -56 -150 -63 -25 -11 -78 -33 -300 -125 -11
-5 -36 -15 -55 -24 -19 -8 -109 -46 -200 -84 -91 -39 -198 -84 -239 -101 -40
-17 -77 -31 -82 -31 -5 0 10 24 33 54 40 50 122 154 596 756 106 135 221 281
256 325 149 189 656 833 1086 1380 255 325 483 615 507 645 24 30 93 118 153
195 61 77 148 187 194 245 80 102 892 1135 985 1254 25 32 57 73 71 90 26 31
316 400 414 526 70 89 71 91 99 125 13 17 95 120 181 230 87 110 168 214 182
230 13 17 160 203 327 415 283 361 390 497 455 579 15 19 80 102 145 185 65
83 129 165 142 181 21 26 301 381 370 470 33 42 162 205 186 235 11 14 28 36
39 50 28 36 235 299 483 613 117 148 223 284 237 302 38 51 603 769 610 775 3
3 21 25 40 50 19 25 67 87 107 138 l73 92 1803 -2 1802 -3 1 -920z m-191
-6178 l1 -862 -122 -120 c-201 -198 -1175 -1158 -1344 -1325 -286 -282 -1252
-1235 -1410 -1390 -85 -83 -400 -394 -700 -690 -300 -296 -618 -610 -707 -697
-89 -87 -398 -392 -688 -678 -290 -286 -606 -598 -704 -693 -97 -96 -410 -405
-696 -687 -286 -282 -592 -584 -680 -670 -88 -87 -401 -395 -695 -685 -294
-290 -611 -603 -705 -695 -93 -92 -408 -402 -700 -690 -291 -287 -606 -598
-700 -690 -93 -92 -410 -404 -704 -694 -293 -289 -609 -600 -701 -691 -93 -91
-408 -401 -700 -690 -293 -289 -599 -590 -680 -670 -81 -80 -394 -389 -696
-686 -302 -298 -624 -615 -716 -705 -91 -90 -404 -399 -695 -685 -808 -798
-849 -838 -866 -853 -15 -12 -15 -9 -2 35 24 84 157 567 160 586 2 10 6 22 9
26 3 5 7 19 10 33 5 25 212 784 246 899 10 36 38 135 61 220 23 85 93 342 156
570 63 228 127 462 143 520 34 126 48 179 90 329 17 62 33 120 35 130 7 28 49
181 130 471 36 128 97 353 100 370 2 8 13 47 25 85 11 39 22 79 25 90 2 11 14
54 25 95 11 41 23 82 25 90 44 161 60 219 81 291 13 47 26 94 28 105 3 10 23
87 46 169 70 250 221 799 225 818 2 9 18 67 35 127 17 60 33 118 35 127 2 10
31 117 65 238 70 251 80 289 110 400 12 44 40 145 62 225 22 80 53 192 68 250
16 58 52 188 80 290 28 102 84 307 125 455 41 149 95 344 120 435 25 91 48
173 50 182 2 10 25 93 51 185 26 92 50 182 54 198 13 51 130 476 201 730 17
61 46 167 64 236 19 69 64 234 101 365 36 131 67 246 69 254 2 8 47 173 100
365 112 405 126 455 131 475 2 8 10 40 19 70 9 30 17 62 20 70 2 8 13 49 24
90 11 41 30 111 42 155 l22 80 141 59 c77 32 159 67 181 76 22 10 81 35 130
55 50 20 104 43 120 50 34 15 331 140 570 240 88 36 174 72 190 80 17 7 172
72 345 145 173 72 329 137 345 145 17 7 54 23 84 35 30 11 73 29 95 39 32 15
684 289 1036 436 36 15 79 33 95 40 17 7 172 72 345 145 173 72 329 137 345
145 17 7 102 43 190 80 88 37 174 73 190 80 17 7 86 37 155 65 69 29 193 80
275 115 144 61 862 363 1110 467 66 28 134 56 150 63 17 7 84 36 150 63 204
85 509 213 540 227 17 7 84 35 150 63 129 54 210 88 1035 435 294 124 603 253
685 287 83 34 168 70 190 80 22 10 67 28 100 41 33 13 65 26 70 30 6 4 78 34
160 68 83 34 164 68 180 76 17 7 199 84 405 170 206 86 431 181 500 210 69 29
251 105 405 169 154 65 309 130 345 146 36 16 94 40 130 55 36 14 74 30 85 35
30 14 131 56 475 200 173 73 387 163 475 200 88 37 162 65 165 63 3 -3 5 -392
5 -866z m300 -2177 c53 -195 103 -377 111 -405 7 -27 36 -133 64 -235 68 -246
100 -365 104 -385 1 -5 7 -26 13 -45 6 -19 25 -87 42 -150 17 -63 47 -173 67
-245 20 -71 49 -177 64 -235 16 -58 44 -163 64 -235 20 -71 45 -166 57 -210
12 -44 25 -91 30 -105 5 -14 11 -36 14 -50 2 -14 32 -122 65 -240 33 -118 62
-224 64 -235 3 -11 21 -78 41 -150 45 -163 43 -155 164 -600 56 -203 108 -392
116 -420 8 -27 26 -95 40 -150 14 -55 29 -107 32 -115 3 -8 7 -22 9 -30 1 -8
8 -31 13 -50 9 -29 176 -638 251 -915 10 -38 40 -144 65 -235 25 -91 47 -172
49 -180 2 -8 34 -125 71 -260 37 -135 73 -267 80 -295 14 -53 54 -196 84 -305
10 -36 30 -110 45 -165 47 -174 54 -197 90 -330 20 -71 40 -146 46 -165 27
-94 44 -156 46 -165 1 -6 12 -46 24 -90 12 -44 23 -87 25 -95 2 -8 11 -40 20
-70 9 -30 17 -62 19 -70 5 -20 71 -260 108 -390 16 -58 31 -112 33 -121 6 -28
147 -542 172 -629 13 -47 26 -92 28 -100 3 -14 41 -158 50 -190 2 -8 20 -73
40 -145 20 -71 43 -155 51 -185 9 -30 17 -62 19 -70 2 -8 15 -55 28 -104 l24
-88 -46 6 c-25 3 -57 8 -71 11 -14 2 -110 18 -215 35 -203 33 -229 37 -275 45
-16 3 -42 7 -57 9 -91 14 -417 68 -463 76 -30 6 -194 33 -365 60 -170 28 -326
53 -345 56 -19 4 -48 8 -65 10 -16 2 -55 9 -85 14 -30 6 -66 12 -80 15 -35 6
-220 36 -250 40 -29 4 -72 11 -155 26 -33 6 -69 12 -80 14 -71 10 -122 18
-137 20 -9 2 -38 7 -65 11 -26 5 -50 9 -53 9 -3 1 -27 5 -55 10 -27 4 -59 9
-70 11 -10 2 -37 6 -60 9 -22 4 -89 15 -150 25 -60 10 -128 21 -150 24 -22 4
-76 13 -120 21 -44 7 -98 16 -120 20 -22 3 -107 17 -189 30 -82 14 -166 27
-188 30 -22 3 -43 7 -47 9 -3 2 -28 6 -56 10 -27 3 -59 8 -70 10 -11 2 -40 7
-65 11 -25 4 -54 9 -65 11 -19 4 -42 8 -117 19 -34 5 -671 110 -723 119 -16 3
-75 12 -130 21 -55 8 -111 17 -125 20 -13 2 -42 8 -65 11 -22 4 -49 8 -60 10
-11 2 -35 5 -52 8 -38 6 -217 35 -253 42 -14 2 -43 7 -65 10 -22 3 -60 9 -85
14 -25 5 -67 12 -95 16 -27 4 -54 8 -60 9 -5 2 -98 17 -205 34 -107 17 -217
35 -245 41 -27 5 -68 12 -90 15 -23 3 -52 7 -65 10 -13 3 -42 7 -65 10 -22 4
-80 13 -130 21 -439 73 -642 107 -750 124 -66 11 -149 24 -185 30 -36 6 -76
13 -90 15 -38 5 -517 83 -580 95 -30 5 -71 12 -90 15 -19 3 -46 7 -60 9 -31 6
-214 36 -255 42 -16 2 -41 6 -55 9 -14 2 -45 7 -70 11 -24 3 -47 7 -50 9 -3 2
-33 7 -65 10 -33 4 -62 9 -65 10 -3 2 -26 6 -50 10 -37 5 -470 76 -547 90 -12
2 -57 9 -100 15 -43 7 -87 14 -98 16 -11 2 -49 9 -85 15 -36 5 -76 12 -90 14
-14 2 -43 7 -65 10 -22 4 -47 8 -55 10 -8 2 -35 7 -60 10 -25 3 -94 15 -155
25 -110 19 -144 24 -220 35 -22 3 -49 8 -61 10 -12 3 -39 7 -60 10 -21 4 -88
15 -148 26 -60 10 -114 19 -120 19 -6 0 81 90 194 201 113 110 444 436 735
724 292 288 604 596 695 685 91 89 405 399 699 689 293 289 606 598 696 686
89 88 403 397 696 686 294 290 616 607 716 705 99 99 414 409 698 689 284 281
596 588 693 683 98 96 420 413 717 706 570 563 905 893 1448 1428 183 180 335
324 338 320 4 -4 50 -167 104 -362z m-13936 -3785 c-17 -61 -50 -182 -74 -270
-24 -88 -80 -293 -125 -455 -45 -162 -88 -318 -95 -346 -8 -28 -46 -167 -85
-310 -39 -142 -123 -446 -185 -674 -62 -228 -139 -507 -170 -620 -32 -113 -59
-212 -61 -220 -1 -8 -28 -105 -59 -215 -31 -110 -58 -207 -60 -215 -1 -8 -42
-157 -90 -330 -74 -272 -115 -421 -131 -480 -2 -8 -22 -80 -44 -160 -23 -80
-43 -153 -45 -163 -2 -9 -18 -67 -35 -127 -17 -60 -33 -118 -35 -127 -2 -10
-24 -90 -49 -178 -24 -88 -63 -230 -86 -315 -23 -85 -58 -211 -77 -280 -19
-69 -36 -129 -37 -135 -2 -5 -8 -30 -15 -55 -7 -25 -15 -52 -16 -60 -2 -8 -24
-89 -50 -180 -25 -91 -57 -208 -71 -260 -14 -52 -32 -116 -40 -141 -8 -25 -17
-55 -19 -67 -3 -12 -7 -32 -10 -43 -2 -12 -9 -36 -14 -53 -8 -25 -252 -908
-266 -966 -3 -8 -13 -46 -24 -85 -10 -38 -33 -119 -49 -180 -17 -60 -74 -267
-127 -460 -53 -192 -99 -359 -102 -370 -3 -11 -47 -173 -99 -360 -51 -187
-102 -374 -113 -415 -11 -41 -32 -115 -46 -165 -14 -49 -27 -99 -29 -110 -2
-11 -7 -27 -10 -35 -6 -18 -95 -339 -101 -366 -2 -10 -11 -44 -20 -74 -9 -30
-17 -62 -19 -70 -2 -8 -23 -82 -46 -165 -66 -241 -252 -919 -254 -930 -2 -5
-8 -28 -14 -50 l-12 -40 -242 -64 c-134 -35 -297 -78 -363 -96 -66 -18 -201
-54 -300 -80 -229 -60 -519 -138 -660 -176 -60 -17 -117 -32 -125 -34 -20 -4
-257 -67 -440 -116 -80 -22 -152 -41 -160 -43 -14 -4 -534 -142 -645 -171 -27
-8 -135 -36 -240 -64 -104 -27 -300 -80 -435 -116 -135 -36 -254 -68 -265 -70
-11 -2 -60 -15 -110 -28 -49 -14 -254 -69 -455 -122 -546 -144 -582 -154 -620
-165 -32 -9 -226 -61 -475 -126 -55 -15 -149 -40 -209 -56 -59 -16 -116 -31
-126 -33 -9 -2 -48 -12 -86 -23 -38 -11 -150 -41 -249 -67 -240 -63 -392 -103
-620 -165 -104 -28 -198 -53 -208 -55 -23 -5 -153 -40 -302 -81 -53 -14 -67
-15 -59 -2 7 11 398 511 539 688 28 36 152 193 275 350 236 300 453 575 473
600 7 8 26 33 42 55 16 22 32 42 35 45 3 3 30 36 60 75 30 38 61 77 67 85 7 8
94 119 193 245 100 127 188 238 196 248 8 10 54 69 101 130 48 62 90 114 93
117 3 3 28 34 55 70 28 36 55 72 62 80 7 8 94 119 193 245 100 127 186 237
193 245 7 8 86 110 177 225 91 116 210 267 265 336 55 69 111 141 125 159 14
19 34 45 46 59 12 14 92 116 178 226 86 110 162 207 169 215 7 8 92 116 189
240 563 716 911 1159 932 1185 14 17 138 174 276 350 139 176 262 334 275 350
13 17 63 80 110 140 155 196 202 257 383 485 97 124 186 237 197 251 11 15
142 181 290 369 149 189 340 431 425 540 85 108 167 212 182 231 15 19 71 90
125 159 54 69 127 162 163 207 36 45 76 96 89 113 39 51 560 712 586 745 14
17 54 68 91 115 36 47 80 102 98 124 17 21 58 73 91 116 110 142 269 345 275
350 3 3 19 23 36 45 59 77 416 530 433 550 9 11 30 38 46 60 16 22 32 42 35
45 3 3 34 41 68 85 64 82 119 151 284 360 52 66 177 226 279 355 101 129 189
242 196 250 7 8 124 157 260 330 136 173 252 320 258 327 5 6 80 101 165 211
85 109 156 198 157 198 1 -1 -12 -51 -28 -111z m5456 -4859 c17 -3 48 -8 70
-11 23 -3 50 -7 60 -9 11 -2 45 -7 75 -12 30 -4 57 -8 60 -9 14 -3 144 -25
180 -30 14 -2 66 -10 115 -19 50 -8 108 -18 130 -21 22 -4 47 -8 55 -10 8 -3
35 -7 60 -10 43 -6 73 -10 115 -19 11 -2 56 -9 100 -16 44 -7 89 -14 100 -16
11 -2 43 -7 70 -10 28 -4 53 -8 56 -10 4 -2 26 -6 50 -9 24 -3 55 -8 69 -11
14 -3 39 -7 55 -9 39 -6 85 -14 110 -19 11 -2 42 -7 69 -10 27 -4 52 -9 55
-10 3 -2 33 -7 66 -11 32 -3 62 -8 65 -10 3 -1 25 -6 50 -9 25 -3 56 -8 70
-11 14 -2 68 -11 120 -20 52 -8 106 -17 120 -19 14 -3 43 -7 65 -11 22 -3 47
-7 55 -10 8 -2 35 -6 60 -9 25 -4 57 -8 73 -11 57 -10 81 -14 121 -20 23 -4
48 -8 56 -9 8 -2 31 -6 50 -9 19 -4 51 -9 70 -11 19 -3 105 -17 190 -31 85
-14 169 -28 185 -31 17 -2 55 -9 85 -14 30 -5 73 -12 95 -15 22 -3 51 -8 65
-11 14 -3 39 -8 55 -10 51 -6 127 -19 310 -50 17 -3 44 -7 60 -9 25 -4 117
-19 305 -50 14 -2 43 -7 65 -10 22 -3 63 -10 90 -15 28 -5 64 -12 80 -14 240
-39 480 -78 520 -86 48 -9 95 -16 160 -25 25 -4 455 -75 545 -90 14 -2 43 -7
65 -10 22 -4 47 -8 55 -10 8 -2 35 -7 60 -10 25 -3 82 -13 126 -20 45 -8 103
-17 130 -20 27 -4 56 -8 64 -10 8 -3 33 -7 55 -10 22 -3 63 -10 90 -15 28 -5
70 -12 95 -15 24 -4 47 -8 50 -10 3 -1 32 -6 65 -10 32 -3 62 -8 65 -10 3 -1
25 -6 50 -9 53 -7 118 -18 195 -32 55 -10 386 -63 425 -69 25 -3 52 -8 60 -10
8 -2 33 -7 55 -10 23 -3 50 -7 62 -9 11 -3 38 -7 59 -11 40 -6 61 -9 154 -25
30 -5 73 -11 95 -15 22 -3 51 -7 65 -10 38 -7 78 -14 150 -25 36 -6 76 -13 90
-15 14 -2 68 -11 120 -20 52 -9 106 -18 120 -20 14 -2 45 -7 70 -11 25 -4 54
-8 65 -10 11 -1 34 -5 50 -8 30 -5 60 -10 125 -21 19 -3 60 -10 90 -15 30 -5
73 -12 95 -15 22 -3 78 -12 125 -20 47 -8 103 -17 125 -20 22 -3 63 -10 90
-16 28 -5 176 -30 330 -55 154 -25 294 -48 310 -50 17 -3 41 -7 55 -9 14 -2
39 -6 55 -9 17 -3 48 -8 70 -10 22 -3 51 -8 65 -11 55 -11 77 -14 115 -20 22
-3 81 -12 130 -21 50 -8 101 -17 115 -19 14 -2 124 -20 245 -40 212 -35 236
-39 308 -50 17 -3 45 -8 61 -11 l29 -6 -29 -28 c-27 -25 -908 -917 -1350
-1366 -105 -107 -470 -476 -810 -820 -340 -344 -708 -717 -818 -827 -109 -111
-476 -483 -815 -826 -339 -343 -701 -710 -806 -816 -104 -106 -469 -475 -810
-820 -341 -345 -717 -725 -835 -846 l-215 -218 -43 82 c-23 45 -62 118 -85
162 -24 44 -72 134 -106 200 -35 66 -81 152 -101 190 -21 39 -61 115 -90 170
-117 223 -244 463 -270 510 -15 28 -55 104 -90 170 -34 66 -77 147 -95 180
-18 33 -56 105 -85 160 -29 55 -69 132 -90 170 -21 39 -79 149 -130 245 -51
96 -109 207 -130 245 -49 91 -158 298 -270 510 -29 55 -69 132 -90 170 -21 39
-65 124 -100 190 -34 66 -70 134 -80 150 -9 17 -45 84 -80 150 -65 125 -95
180 -228 430 -43 83 -108 204 -142 270 -34 66 -70 134 -80 150 -9 17 -45 84
-80 150 -35 66 -81 154 -103 195 -21 41 -64 122 -94 180 -31 58 -73 137 -93
175 -21 39 -61 115 -90 170 -74 141 -126 239 -170 320 -61 114 -200 376 -265
500 -78 148 -143 272 -225 425 -82 153 -146 274 -227 430 -54 101 -115 217
-168 315 -18 33 -58 110 -90 170 -112 213 -237 450 -280 530 -143 266 -157
297 -139 292 11 -3 33 -8 49 -11z m-895 -144 c0 -5 26 -58 58 -118 32 -60 85
-158 117 -219 32 -60 74 -141 95 -180 20 -38 61 -115 90 -170 29 -55 69 -131
90 -170 21 -38 61 -115 90 -170 29 -55 70 -131 90 -170 21 -38 63 -118 93
-176 31 -59 67 -126 80 -150 14 -24 53 -98 87 -164 69 -132 133 -253 190 -360
21 -38 58 -108 82 -155 25 -47 61 -114 80 -150 19 -36 66 -123 103 -195 37
-71 76 -143 85 -160 10 -16 50 -93 90 -170 40 -77 85 -162 100 -190 15 -27 51
-95 80 -150 29 -55 70 -131 90 -170 20 -38 61 -115 90 -170 29 -55 65 -122 80
-150 15 -27 60 -113 100 -190 41 -77 95 -180 122 -229 26 -49 60 -112 74 -140
14 -28 38 -73 53 -101 14 -27 57 -108 95 -180 38 -71 83 -157 101 -190 33 -61
81 -152 175 -330 105 -199 143 -270 257 -485 22 -41 66 -124 98 -185 32 -60
74 -141 95 -180 43 -81 100 -189 230 -435 51 -96 109 -206 130 -245 20 -38 59
-110 85 -160 26 -49 64 -121 85 -160 71 -133 127 -240 185 -350 32 -60 72
-137 90 -170 18 -33 56 -105 85 -160 29 -55 69 -131 90 -170 20 -38 63 -119
95 -180 32 -60 72 -137 90 -170 18 -33 58 -109 90 -170 32 -60 67 -125 77
-143 11 -18 18 -36 15 -39 -4 -3 -1411 -5 -3129 -5 l-3123 0 -175 72 c-96 39
-254 103 -350 142 -96 39 -188 76 -205 83 -56 24 -530 218 -575 235 -25 10
-112 46 -195 80 -82 34 -172 70 -200 80 -27 10 -70 27 -95 38 -25 11 -126 52
-225 92 -99 40 -193 78 -210 86 -29 12 -134 55 -760 309 -159 64 -303 123
-320 130 -16 8 -100 41 -185 75 -85 34 -168 68 -185 75 -16 7 -66 28 -110 45
-44 17 -93 38 -110 45 -16 7 -86 36 -155 63 -244 99 -735 300 -762 312 l-27
13 326 321 c179 176 398 392 487 480 88 87 402 396 696 686 294 290 616 607
715 705 99 97 414 408 700 690 286 282 599 591 697 686 97 96 409 404 693 684
284 281 595 587 690 680 95 94 411 405 701 691 816 804 897 884 906 884 4 0 8
-4 8 -8z"/>
<path d="M25045 29345 c-182 -45 -302 -112 -435 -245 -52 -53 -110 -121 -128
-152 -38 -65 -99 -201 -106 -238 -2 -14 -10 -47 -16 -75 -13 -54 -16 -238 -6
-295 55 -291 221 -520 476 -657 188 -101 466 -130 673 -69 196 58 359 169 483
331 71 92 145 258 159 361 4 27 9 58 11 69 3 11 5 52 5 90 3 411 -272 766
-676 876 -120 32 -319 34 -440 4z"/>
</g>
</svg>
