<svg width="485" height="330" viewBox="0 0 485 330" fill="none" xmlns="http://www.w3.org/2000/svg">
<path d="M297.5 40C278.393 40 259.472 43.7505 241.82 51.0375C224.167 58.3244 208.127 69.005 194.616 82.4695C181.105 95.934 170.388 111.919 163.076 129.511C155.763 147.103 152 165.958 152 185C152 204.042 155.763 222.897 163.076 240.489C170.388 258.081 181.105 274.066 194.616 287.53C208.127 300.995 224.167 311.676 241.82 318.963C259.472 326.249 278.393 330 297.5 330L297.5 185V40Z" fill="#A64F5C"/>
<path d="M297.5 330C316.607 330 335.528 326.249 353.18 318.963C370.833 311.676 386.873 300.995 400.384 287.53C413.895 274.066 424.612 258.081 431.924 240.489C439.237 222.897 443 204.042 443 185C443 165.958 439.237 147.103 431.924 129.511C424.612 111.919 413.895 95.934 400.384 82.4695C386.873 69.005 370.833 58.3244 353.18 51.0375C335.528 43.7505 316.607 40 297.5 40L297.5 185V330Z" fill="#4479C9"/>
<ellipse cx="297.5" cy="185" rx="83.5" ry="84" fill="#252E3A"/>
<rect x="223" width="60" height="22" rx="5" fill="#A64F5C"/>
<rect x="315" width="60" height="22" rx="5" fill="#4479C9"/>
<rect y="46" width="133" height="33" rx="5" fill="#6BB47F"/>
<path d="M399.331 7.21733H397.737C397.692 6.95597 397.608 6.72443 397.486 6.52273C397.364 6.31818 397.212 6.14489 397.03 6.00284C396.848 5.8608 396.641 5.75426 396.408 5.68324C396.178 5.60938 395.929 5.57244 395.662 5.57244C395.188 5.57244 394.767 5.69176 394.401 5.9304C394.034 6.16619 393.747 6.51278 393.54 6.97017C393.332 7.42472 393.229 7.98011 393.229 8.63636C393.229 9.30398 393.332 9.86648 393.54 10.3239C393.75 10.7784 394.037 11.1222 394.401 11.3551C394.767 11.5852 395.186 11.7003 395.658 11.7003C395.919 11.7003 396.163 11.6662 396.391 11.598C396.621 11.527 396.827 11.4233 397.009 11.2869C397.193 11.1506 397.348 10.983 397.473 10.7841C397.601 10.5852 397.689 10.358 397.737 10.1023L399.331 10.1108C399.271 10.5256 399.142 10.9148 398.943 11.2784C398.747 11.642 398.49 11.9631 398.172 12.2415C397.854 12.517 397.482 12.733 397.055 12.8892C396.629 13.0426 396.156 13.1193 395.636 13.1193C394.869 13.1193 394.185 12.9418 393.582 12.5866C392.98 12.2315 392.506 11.7188 392.159 11.0483C391.813 10.3778 391.639 9.57386 391.639 8.63636C391.639 7.69602 391.814 6.89205 392.163 6.22443C392.513 5.55398 392.989 5.04119 393.591 4.68608C394.193 4.33097 394.875 4.15341 395.636 4.15341C396.122 4.15341 396.574 4.22159 396.991 4.35795C397.409 4.49432 397.781 4.6946 398.108 4.95881C398.435 5.22017 398.703 5.54119 398.913 5.92188C399.126 6.29972 399.266 6.73153 399.331 7.21733ZM402.594 13.1321C402.179 13.1321 401.806 13.0582 401.473 12.9105C401.144 12.7599 400.882 12.5384 400.689 12.2457C400.499 11.9531 400.404 11.5923 400.404 11.1634C400.404 10.794 400.472 10.4886 400.608 10.2472C400.745 10.0057 400.931 9.8125 401.167 9.66761C401.402 9.52273 401.668 9.41335 401.963 9.33949C402.262 9.26278 402.57 9.20739 402.888 9.1733C403.272 9.13352 403.583 9.09801 403.821 9.06676C404.06 9.03267 404.233 8.98153 404.341 8.91335C404.452 8.84233 404.507 8.73295 404.507 8.58523V8.55966C404.507 8.23864 404.412 7.99006 404.222 7.81392C404.032 7.63778 403.757 7.54972 403.4 7.54972C403.022 7.54972 402.722 7.6321 402.5 7.79688C402.282 7.96165 402.134 8.15625 402.057 8.38068L400.617 8.17614C400.73 7.77841 400.918 7.44602 401.179 7.17898C401.441 6.90909 401.76 6.70739 402.138 6.57386C402.516 6.4375 402.934 6.36932 403.391 6.36932C403.706 6.36932 404.02 6.40625 404.333 6.48011C404.645 6.55398 404.931 6.67614 405.189 6.84659C405.448 7.0142 405.655 7.2429 405.811 7.53267C405.971 7.82244 406.05 8.18466 406.05 8.61932V13H404.567V12.1009H404.516C404.422 12.2827 404.29 12.4531 404.12 12.6122C403.952 12.7685 403.74 12.8949 403.485 12.9915C403.232 13.0852 402.935 13.1321 402.594 13.1321ZM402.995 11.9986C403.304 11.9986 403.573 11.9375 403.8 11.8153C404.027 11.6903 404.202 11.5256 404.324 11.321C404.449 11.1165 404.512 10.8935 404.512 10.652V9.88068C404.463 9.92045 404.381 9.95739 404.265 9.99148C404.151 10.0256 404.023 10.0554 403.881 10.081C403.739 10.1065 403.598 10.1293 403.459 10.1491C403.32 10.169 403.199 10.1861 403.097 10.2003C402.867 10.2315 402.661 10.2827 402.479 10.3537C402.297 10.4247 402.154 10.5241 402.049 10.652C401.944 10.777 401.891 10.9389 401.891 11.1378C401.891 11.4219 401.995 11.6364 402.202 11.7812C402.409 11.9261 402.674 11.9986 402.995 11.9986ZM410.456 13.1278C409.803 13.1278 409.242 12.9844 408.773 12.6974C408.307 12.4105 407.948 12.0142 407.695 11.5085C407.445 11 407.32 10.4148 407.32 9.75284C407.32 9.08807 407.448 8.50142 407.703 7.9929C407.959 7.48153 408.32 7.08381 408.786 6.79972C409.255 6.51278 409.809 6.36932 410.448 6.36932C410.979 6.36932 411.449 6.46733 411.858 6.66335C412.27 6.85653 412.598 7.13068 412.843 7.4858C413.087 7.83807 413.226 8.25 413.26 8.72159H411.786C411.726 8.40625 411.584 8.14347 411.36 7.93324C411.138 7.72017 410.841 7.61364 410.469 7.61364C410.154 7.61364 409.877 7.69886 409.638 7.86932C409.4 8.03693 409.213 8.27841 409.08 8.59375C408.949 8.90909 408.884 9.28693 408.884 9.72727C408.884 10.1733 408.949 10.5568 409.08 10.8778C409.211 11.196 409.394 11.4418 409.63 11.6151C409.868 11.7855 410.148 11.8707 410.469 11.8707C410.696 11.8707 410.9 11.8281 411.078 11.7429C411.26 11.6548 411.412 11.5284 411.534 11.3636C411.657 11.1989 411.74 10.9986 411.786 10.7628H413.26C413.223 11.2259 413.087 11.6364 412.851 11.9943C412.615 12.3494 412.294 12.6278 411.888 12.8295C411.482 13.0284 411.005 13.1278 410.456 13.1278ZM416.07 9.16477V13H414.527V4.27273H416.036V7.56676H416.112C416.266 7.19744 416.503 6.90625 416.824 6.69318C417.148 6.47727 417.56 6.36932 418.06 6.36932C418.514 6.36932 418.911 6.46449 419.249 6.65483C419.587 6.84517 419.848 7.12358 420.033 7.49006C420.22 7.85653 420.314 8.30398 420.314 8.83239V13H418.771V9.07102C418.771 8.63068 418.658 8.28835 418.43 8.04403C418.206 7.79687 417.891 7.6733 417.484 7.6733C417.212 7.6733 416.967 7.73295 416.751 7.85227C416.538 7.96875 416.371 8.13778 416.249 8.35938C416.129 8.58097 416.07 8.84943 416.07 9.16477ZM424.784 13.1278C424.128 13.1278 423.561 12.9915 423.084 12.7188C422.609 12.4432 422.244 12.054 421.989 11.5511C421.733 11.0455 421.605 10.4503 421.605 9.76562C421.605 9.09233 421.733 8.50142 421.989 7.9929C422.247 7.48153 422.608 7.08381 423.071 6.79972C423.534 6.51278 424.078 6.36932 424.703 6.36932C425.107 6.36932 425.487 6.43466 425.845 6.56534C426.206 6.69318 426.524 6.89205 426.8 7.16193C427.078 7.43182 427.297 7.77557 427.456 8.19318C427.615 8.60795 427.695 9.10227 427.695 9.67614V10.1491H422.33V9.10938H426.216C426.213 8.81392 426.149 8.55114 426.024 8.32102C425.899 8.08807 425.724 7.90483 425.5 7.77131C425.278 7.63778 425.02 7.57102 424.724 7.57102C424.409 7.57102 424.132 7.64773 423.893 7.80114C423.655 7.9517 423.469 8.15057 423.335 8.39773C423.205 8.64205 423.138 8.91051 423.135 9.20312V10.1108C423.135 10.4915 423.205 10.8182 423.344 11.0909C423.483 11.3608 423.678 11.5682 423.928 11.7131C424.178 11.8551 424.47 11.9261 424.805 11.9261C425.03 11.9261 425.233 11.8949 425.415 11.8324C425.597 11.767 425.754 11.6719 425.888 11.5469C426.021 11.4219 426.122 11.267 426.19 11.0824L427.631 11.2443C427.54 11.625 427.366 11.9574 427.111 12.2415C426.858 12.5227 426.534 12.7415 426.139 12.8977C425.744 13.0511 425.293 13.1278 424.784 13.1278ZM432.044 13V4.27273H433.625V7.96733H437.669V4.27273H439.255V13H437.669V9.29261H433.625V13H432.044ZM440.906 13V6.45455H442.449V13H440.906ZM441.681 5.52557C441.437 5.52557 441.227 5.4446 441.051 5.28267C440.875 5.1179 440.787 4.92045 440.787 4.69034C440.787 4.45739 440.875 4.25994 441.051 4.09801C441.227 3.93324 441.437 3.85085 441.681 3.85085C441.929 3.85085 442.139 3.93324 442.312 4.09801C442.488 4.25994 442.576 4.45739 442.576 4.69034C442.576 4.92045 442.488 5.1179 442.312 5.28267C442.139 5.4446 441.929 5.52557 441.681 5.52557ZM447.303 6.45455V7.64773H443.54V6.45455H447.303ZM444.469 4.88636H446.012V11.0312C446.012 11.2386 446.043 11.3977 446.106 11.5085C446.171 11.6165 446.256 11.6903 446.362 11.7301C446.467 11.7699 446.583 11.7898 446.711 11.7898C446.808 11.7898 446.896 11.7827 446.975 11.7685C447.058 11.7543 447.12 11.7415 447.163 11.7301L447.423 12.9361C447.34 12.9645 447.222 12.9957 447.069 13.0298C446.918 13.0639 446.734 13.0838 446.515 13.0895C446.129 13.1009 445.781 13.0426 445.471 12.9148C445.161 12.7841 444.915 12.5824 444.734 12.3097C444.555 12.0369 444.467 11.696 444.469 11.2869V4.88636Z" fill="white"/>
<path d="M17.6037 60.6719C17.5639 60.2997 17.3963 60.0099 17.1009 59.8026C16.8082 59.5952 16.4276 59.4915 15.9588 59.4915C15.6293 59.4915 15.3466 59.5412 15.1108 59.6406C14.875 59.7401 14.6946 59.875 14.5696 60.0455C14.4446 60.2159 14.3807 60.4105 14.3778 60.6293C14.3778 60.8111 14.419 60.9687 14.5014 61.1023C14.5866 61.2358 14.7017 61.3494 14.8466 61.4432C14.9915 61.5341 15.152 61.6108 15.3281 61.6733C15.5043 61.7358 15.6818 61.7884 15.8608 61.831L16.679 62.0355C17.0085 62.1122 17.3253 62.2159 17.6293 62.3466C17.9361 62.4773 18.2102 62.642 18.4517 62.8409C18.696 63.0398 18.8892 63.2798 19.0312 63.5611C19.1733 63.8423 19.2443 64.1719 19.2443 64.5497C19.2443 65.0611 19.1136 65.5114 18.8523 65.9006C18.5909 66.2869 18.2131 66.5895 17.7188 66.8082C17.2273 67.0241 16.6321 67.1321 15.9332 67.1321C15.2543 67.1321 14.6648 67.027 14.1648 66.8168C13.6676 66.6065 13.2784 66.2997 12.9972 65.8963C12.7188 65.4929 12.5682 65.0014 12.5455 64.4219H14.1009C14.1236 64.7259 14.2173 64.9787 14.3821 65.1804C14.5469 65.3821 14.7614 65.5327 15.0256 65.6321C15.2926 65.7315 15.5909 65.7812 15.9205 65.7812C16.2642 65.7812 16.5653 65.7301 16.8239 65.6278C17.0852 65.5227 17.2898 65.3778 17.4375 65.1932C17.5852 65.0057 17.6605 64.7869 17.6634 64.5369C17.6605 64.3097 17.5938 64.1222 17.4631 63.9744C17.3324 63.8239 17.1491 63.6989 16.9134 63.5994C16.6804 63.4972 16.4077 63.4062 16.0952 63.3267L15.1023 63.071C14.3835 62.8864 13.8153 62.6065 13.3977 62.2315C12.983 61.8537 12.7756 61.3523 12.7756 60.7273C12.7756 60.2131 12.9148 59.7628 13.1932 59.3764C13.4744 58.9901 13.8565 58.6903 14.3395 58.4773C14.8224 58.2614 15.3693 58.1534 15.9801 58.1534C16.5994 58.1534 17.142 58.2614 17.608 58.4773C18.0767 58.6903 18.4446 58.9872 18.7116 59.3679C18.9787 59.7457 19.1165 60.1804 19.125 60.6719H17.6037ZM24.7575 64.2472V60.4545H26.3001V67H24.8043V65.8366H24.7362C24.5884 66.2031 24.3455 66.5028 24.0075 66.7358C23.6722 66.9687 23.2589 67.0852 22.7674 67.0852C22.3384 67.0852 21.9592 66.9901 21.6296 66.7997C21.3029 66.6065 21.0472 66.3267 20.8626 65.9602C20.6779 65.5909 20.5856 65.1449 20.5856 64.6222V60.4545H22.1282V64.3835C22.1282 64.7983 22.2418 65.1278 22.4691 65.3722C22.6964 65.6165 22.9947 65.7386 23.364 65.7386C23.5913 65.7386 23.8114 65.6832 24.0245 65.5724C24.2376 65.4616 24.4123 65.2969 24.5487 65.0781C24.6879 64.8565 24.7575 64.5795 24.7575 64.2472ZM30.7415 67.1278C30.0881 67.1278 29.527 66.9844 29.0582 66.6974C28.5923 66.4105 28.233 66.0142 27.9801 65.5085C27.7301 65 27.6051 64.4148 27.6051 63.7528C27.6051 63.0881 27.733 62.5014 27.9886 61.9929C28.2443 61.4815 28.6051 61.0838 29.071 60.7997C29.5398 60.5128 30.0938 60.3693 30.733 60.3693C31.2642 60.3693 31.7344 60.4673 32.1435 60.6634C32.5554 60.8565 32.8835 61.1307 33.1278 61.4858C33.3722 61.8381 33.5114 62.25 33.5455 62.7216H32.071C32.0114 62.4062 31.8693 62.1435 31.6449 61.9332C31.4233 61.7202 31.1264 61.6136 30.7543 61.6136C30.4389 61.6136 30.1619 61.6989 29.9233 61.8693C29.6847 62.0369 29.4986 62.2784 29.3651 62.5938C29.2344 62.9091 29.169 63.2869 29.169 63.7273C29.169 64.1733 29.2344 64.5568 29.3651 64.8778C29.4957 65.196 29.679 65.4418 29.9148 65.6151C30.1534 65.7855 30.4332 65.8707 30.7543 65.8707C30.9815 65.8707 31.1847 65.8281 31.3636 65.7429C31.5455 65.6548 31.6974 65.5284 31.8196 65.3636C31.9418 65.1989 32.0256 64.9986 32.071 64.7628H33.5455C33.5085 65.2259 33.3722 65.6364 33.1364 65.9943C32.9006 66.3494 32.5795 66.6278 32.1733 66.8295C31.767 67.0284 31.2898 67.1278 30.7415 67.1278ZM37.6673 67.1278C37.0138 67.1278 36.4528 66.9844 35.984 66.6974C35.5181 66.4105 35.1587 66.0142 34.9059 65.5085C34.6559 65 34.5309 64.4148 34.5309 63.7528C34.5309 63.0881 34.6587 62.5014 34.9144 61.9929C35.1701 61.4815 35.5309 61.0838 35.9968 60.7997C36.4656 60.5128 37.0195 60.3693 37.6587 60.3693C38.19 60.3693 38.6602 60.4673 39.0692 60.6634C39.4812 60.8565 39.8093 61.1307 40.0536 61.4858C40.2979 61.8381 40.4371 62.25 40.4712 62.7216H38.9968C38.9371 62.4062 38.7951 62.1435 38.5707 61.9332C38.3491 61.7202 38.0522 61.6136 37.68 61.6136C37.3647 61.6136 37.0877 61.6989 36.8491 61.8693C36.6104 62.0369 36.4244 62.2784 36.2908 62.5938C36.1602 62.9091 36.0948 63.2869 36.0948 63.7273C36.0948 64.1733 36.1602 64.5568 36.2908 64.8778C36.4215 65.196 36.6048 65.4418 36.8406 65.6151C37.0792 65.7855 37.359 65.8707 37.68 65.8707C37.9073 65.8707 38.1104 65.8281 38.2894 65.7429C38.4712 65.6548 38.6232 65.5284 38.7454 65.3636C38.8675 65.1989 38.9513 64.9986 38.9968 64.7628H40.4712C40.4343 65.2259 40.2979 65.6364 40.0621 65.9943C39.8263 66.3494 39.5053 66.6278 39.0991 66.8295C38.6928 67.0284 38.2156 67.1278 37.6673 67.1278ZM44.6357 67.1278C43.9794 67.1278 43.4126 66.9915 42.9354 66.7188C42.4609 66.4432 42.0959 66.054 41.8402 65.5511C41.5845 65.0455 41.4567 64.4503 41.4567 63.7656C41.4567 63.0923 41.5845 62.5014 41.8402 61.9929C42.0987 61.4815 42.4595 61.0838 42.9226 60.7997C43.3857 60.5128 43.9297 60.3693 44.5547 60.3693C44.9581 60.3693 45.3388 60.4347 45.6967 60.5653C46.0575 60.6932 46.3757 60.892 46.6513 61.1619C46.9297 61.4318 47.1484 61.7756 47.3075 62.1932C47.4666 62.608 47.5462 63.1023 47.5462 63.6761V64.1491H42.1811V63.1094H46.0675C46.0646 62.8139 46.0007 62.5511 45.8757 62.321C45.7507 62.0881 45.576 61.9048 45.3516 61.7713C45.13 61.6378 44.8714 61.571 44.576 61.571C44.2607 61.571 43.9837 61.6477 43.745 61.8011C43.5064 61.9517 43.3203 62.1506 43.1868 62.3977C43.0561 62.642 42.9893 62.9105 42.9865 63.2031V64.1108C42.9865 64.4915 43.0561 64.8182 43.1953 65.0909C43.3345 65.3608 43.5291 65.5682 43.7791 65.7131C44.0291 65.8551 44.3217 65.9261 44.657 65.9261C44.8814 65.9261 45.0845 65.8949 45.2663 65.8324C45.4482 65.767 45.6058 65.6719 45.7393 65.5469C45.8729 65.4219 45.9737 65.267 46.0419 65.0824L47.4822 65.2443C47.3913 65.625 47.218 65.9574 46.9624 66.2415C46.7095 66.5227 46.3857 66.7415 45.9908 66.8977C45.5959 67.0511 45.1442 67.1278 44.6357 67.1278ZM54.0245 62.1847L52.6183 62.3381C52.5785 62.196 52.5089 62.0625 52.4094 61.9375C52.3129 61.8125 52.1822 61.7116 52.0174 61.6349C51.8526 61.5582 51.6509 61.5199 51.4123 61.5199C51.0913 61.5199 50.8214 61.5895 50.6026 61.7287C50.3867 61.8679 50.2802 62.0483 50.283 62.2699C50.2802 62.4602 50.3498 62.6151 50.4918 62.7344C50.6367 62.8537 50.8754 62.9517 51.2077 63.0284L52.3242 63.267C52.9435 63.4006 53.4038 63.6122 53.7049 63.902C54.0089 64.1918 54.1623 64.571 54.1651 65.0398C54.1623 65.4517 54.0415 65.8153 53.8029 66.1307C53.5671 66.4432 53.239 66.6875 52.8185 66.8636C52.3981 67.0398 51.9151 67.1278 51.3697 67.1278C50.5685 67.1278 49.9237 66.9602 49.435 66.625C48.9464 66.2869 48.6552 65.8168 48.5614 65.2145L50.0657 65.0696C50.1339 65.3651 50.2788 65.5881 50.5004 65.7386C50.7219 65.8892 51.0103 65.9645 51.3654 65.9645C51.7319 65.9645 52.0259 65.8892 52.2475 65.7386C52.4719 65.5881 52.5842 65.402 52.5842 65.1804C52.5842 64.9929 52.5117 64.8381 52.3668 64.7159C52.2248 64.5937 52.0032 64.5 51.7021 64.4347L50.5856 64.2003C49.9577 64.0696 49.4933 63.8494 49.1921 63.5398C48.891 63.2273 48.7418 62.8324 48.7447 62.3551C48.7418 61.9517 48.8512 61.6023 49.0728 61.3068C49.2972 61.0085 49.6083 60.7784 50.006 60.6165C50.4066 60.4517 50.8683 60.3693 51.391 60.3693C52.158 60.3693 52.7617 60.5327 53.2021 60.8594C53.6452 61.1861 53.9194 61.6278 54.0245 62.1847ZM60.6104 62.1847L59.2042 62.3381C59.1644 62.196 59.0948 62.0625 58.9954 61.9375C58.8988 61.8125 58.7681 61.7116 58.6033 61.6349C58.4386 61.5582 58.2369 61.5199 57.9982 61.5199C57.6772 61.5199 57.4073 61.5895 57.1886 61.7287C56.9727 61.8679 56.8661 62.0483 56.869 62.2699C56.8661 62.4602 56.9357 62.6151 57.0778 62.7344C57.2227 62.8537 57.4613 62.9517 57.7937 63.0284L58.9102 63.267C59.5295 63.4006 59.9897 63.6122 60.2908 63.902C60.5948 64.1918 60.7482 64.571 60.7511 65.0398C60.7482 65.4517 60.6275 65.8153 60.3888 66.1307C60.1531 66.4432 59.8249 66.6875 59.4045 66.8636C58.984 67.0398 58.5011 67.1278 57.9556 67.1278C57.1545 67.1278 56.5096 66.9602 56.021 66.625C55.5323 66.2869 55.2411 65.8168 55.1474 65.2145L56.6516 65.0696C56.7198 65.3651 56.8647 65.5881 57.0863 65.7386C57.3079 65.8892 57.5962 65.9645 57.9513 65.9645C58.3178 65.9645 58.6119 65.8892 58.8335 65.7386C59.0579 65.5881 59.1701 65.402 59.1701 65.1804C59.1701 64.9929 59.0977 64.8381 58.9528 64.7159C58.8107 64.5937 58.5891 64.5 58.288 64.4347L57.1715 64.2003C56.5437 64.0696 56.0792 63.8494 55.7781 63.5398C55.4769 63.2273 55.3278 62.8324 55.3306 62.3551C55.3278 61.9517 55.4371 61.6023 55.6587 61.3068C55.8832 61.0085 56.1942 60.7784 56.592 60.6165C56.9925 60.4517 57.4542 60.3693 57.9769 60.3693C58.744 60.3693 59.3477 60.5327 59.788 60.8594C60.2312 61.1861 60.5053 61.6278 60.6104 62.1847ZM65.3384 60.4545V61.6477H61.4691V60.4545H65.3384ZM62.4364 67V59.8366C62.4364 59.3963 62.5273 59.0298 62.7092 58.7372C62.8938 58.4446 63.141 58.2259 63.4506 58.081C63.7603 57.9361 64.104 57.8636 64.4819 57.8636C64.7489 57.8636 64.9862 57.8849 65.1935 57.9276C65.4009 57.9702 65.5543 58.0085 65.6538 58.0426L65.3469 59.2358C65.2816 59.2159 65.1992 59.196 65.0998 59.1761C65.0004 59.1534 64.8896 59.142 64.7674 59.142C64.4805 59.142 64.2773 59.2116 64.158 59.3509C64.0415 59.4872 63.9833 59.6832 63.9833 59.9389V67H62.4364ZM70.7184 64.2472V60.4545H72.261V67H70.7653V65.8366H70.6971C70.5494 66.2031 70.3065 66.5028 69.9684 66.7358C69.6332 66.9687 69.2198 67.0852 68.7283 67.0852C68.2994 67.0852 67.9201 66.9901 67.5906 66.7997C67.2638 66.6065 67.0082 66.3267 66.8235 65.9602C66.6388 65.5909 66.5465 65.1449 66.5465 64.6222V60.4545H68.0891V64.3835C68.0891 64.7983 68.2028 65.1278 68.43 65.3722C68.6573 65.6165 68.9556 65.7386 69.3249 65.7386C69.5522 65.7386 69.7724 65.6832 69.9854 65.5724C70.1985 65.4616 70.3732 65.2969 70.5096 65.0781C70.6488 64.8565 70.7184 64.5795 70.7184 64.2472ZM75.3899 58.2727V67H73.8473V58.2727H75.3899ZM83.2724 64.0682H84.7042L85.5522 65.1676L86.1573 65.8835L87.6104 67.75H86.0763L85.0877 66.4972L84.6658 65.9006L83.2724 64.0682ZM87.8192 62.6364C87.8192 63.5767 87.6431 64.3821 87.2908 65.0526C86.9414 65.7202 86.4641 66.2315 85.859 66.5866C85.2567 66.9418 84.5735 67.1193 83.8093 67.1193C83.0451 67.1193 82.3604 66.9418 81.7553 66.5866C81.1531 66.2287 80.6758 65.7159 80.3235 65.0483C79.9741 64.3778 79.7994 63.5739 79.7994 62.6364C79.7994 61.696 79.9741 60.892 80.3235 60.2244C80.6758 59.554 81.1531 59.0412 81.7553 58.6861C82.3604 58.331 83.0451 58.1534 83.8093 58.1534C84.5735 58.1534 85.2567 58.331 85.859 58.6861C86.4641 59.0412 86.9414 59.554 87.2908 60.2244C87.6431 60.892 87.8192 61.696 87.8192 62.6364ZM86.2298 62.6364C86.2298 61.9744 86.1261 61.4162 85.9187 60.9616C85.7141 60.5043 85.43 60.1591 85.0664 59.9261C84.7028 59.6903 84.2837 59.5724 83.8093 59.5724C83.3349 59.5724 82.9158 59.6903 82.5522 59.9261C82.1886 60.1591 81.9031 60.5043 81.6957 60.9616C81.4911 61.4162 81.3888 61.9744 81.3888 62.6364C81.3888 63.2983 81.4911 63.858 81.6957 64.3153C81.9031 64.7699 82.1886 65.1151 82.5522 65.3509C82.9158 65.5838 83.3349 65.7003 83.8093 65.7003C84.2837 65.7003 84.7028 65.5838 85.0664 65.3509C85.43 65.1151 85.7141 64.7699 85.9187 64.3153C86.1261 63.858 86.2298 63.2983 86.2298 62.6364ZM93.4293 64.2472V60.4545H94.9719V67H93.4762V65.8366H93.408C93.2603 66.2031 93.0174 66.5028 92.6793 66.7358C92.3441 66.9687 91.9308 67.0852 91.4393 67.0852C91.0103 67.0852 90.631 66.9901 90.3015 66.7997C89.9748 66.6065 89.7191 66.3267 89.5344 65.9602C89.3498 65.5909 89.2575 65.1449 89.2575 64.6222V60.4545H90.8001V64.3835C90.8001 64.7983 90.9137 65.1278 91.141 65.3722C91.3683 65.6165 91.6665 65.7386 92.0359 65.7386C92.2631 65.7386 92.4833 65.6832 92.6964 65.5724C92.9094 65.4616 93.0842 65.2969 93.2205 65.0781C93.3597 64.8565 93.4293 64.5795 93.4293 64.2472ZM99.456 67.1278C98.7997 67.1278 98.233 66.9915 97.7557 66.7188C97.2813 66.4432 96.9162 66.054 96.6605 65.5511C96.4048 65.0455 96.277 64.4503 96.277 63.7656C96.277 63.0923 96.4048 62.5014 96.6605 61.9929C96.919 61.4815 97.2798 61.0838 97.7429 60.7997C98.206 60.5128 98.75 60.3693 99.375 60.3693C99.7784 60.3693 100.159 60.4347 100.517 60.5653C100.878 60.6932 101.196 60.892 101.472 61.1619C101.75 61.4318 101.969 61.7756 102.128 62.1932C102.287 62.608 102.366 63.1023 102.366 63.6761V64.1491H97.0014V63.1094H100.888C100.885 62.8139 100.821 62.5511 100.696 62.321C100.571 62.0881 100.396 61.9048 100.172 61.7713C99.9503 61.6378 99.6918 61.571 99.3963 61.571C99.081 61.571 98.804 61.6477 98.5653 61.8011C98.3267 61.9517 98.1406 62.1506 98.0071 62.3977C97.8764 62.642 97.8097 62.9105 97.8068 63.2031V64.1108C97.8068 64.4915 97.8764 64.8182 98.0156 65.0909C98.1548 65.3608 98.3494 65.5682 98.5994 65.7131C98.8494 65.8551 99.142 65.9261 99.4773 65.9261C99.7017 65.9261 99.9048 65.8949 100.087 65.8324C100.268 65.767 100.426 65.6719 100.56 65.5469C100.693 65.4219 100.794 65.267 100.862 65.0824L102.303 65.2443C102.212 65.625 102.038 65.9574 101.783 66.2415C101.53 66.5227 101.206 66.7415 100.811 66.8977C100.416 67.0511 99.9645 67.1278 99.456 67.1278ZM103.672 67V60.4545H105.167V61.5455H105.235C105.355 61.1676 105.559 60.8764 105.849 60.6719C106.142 60.4645 106.475 60.3608 106.85 60.3608C106.936 60.3608 107.031 60.3651 107.136 60.3736C107.244 60.3793 107.333 60.3892 107.404 60.4034V61.8224C107.339 61.7997 107.235 61.7798 107.093 61.7628C106.954 61.7429 106.819 61.733 106.689 61.733C106.407 61.733 106.154 61.794 105.93 61.9162C105.708 62.0355 105.534 62.2017 105.406 62.4148C105.278 62.6278 105.214 62.8736 105.214 63.152V67H103.672ZM109.587 69.4545C109.377 69.4545 109.183 69.4375 109.004 69.4034C108.827 69.3722 108.687 69.3352 108.582 69.2926L108.94 68.0909C109.164 68.1563 109.364 68.1875 109.54 68.1847C109.717 68.1818 109.871 68.1264 110.005 68.0185C110.141 67.9134 110.256 67.7372 110.35 67.4901L110.482 67.1364L108.109 60.4545H109.745L111.254 65.3977H111.322L112.835 60.4545H114.475L111.854 67.7926C111.732 68.1392 111.57 68.4361 111.369 68.6832C111.167 68.9332 110.92 69.1236 110.627 69.2543C110.337 69.3878 109.991 69.4545 109.587 69.4545ZM117.43 58.2727L117.29 64.4347H115.918L115.781 58.2727H117.43ZM116.604 67.0938C116.345 67.0938 116.124 67.0028 115.939 66.821C115.757 66.6392 115.666 66.4176 115.666 66.1562C115.666 65.9006 115.757 65.6818 115.939 65.5C116.124 65.3182 116.345 65.2273 116.604 65.2273C116.857 65.2273 117.075 65.3182 117.26 65.5C117.447 65.6818 117.541 65.9006 117.541 66.1562C117.541 66.3295 117.497 66.4872 117.409 66.6293C117.324 66.7713 117.21 66.8849 117.068 66.9702C116.929 67.0526 116.774 67.0938 116.604 67.0938Z" fill="white"/>
<path d="M150.331 7.21733H148.737C148.692 6.95597 148.608 6.72443 148.486 6.52273C148.364 6.31818 148.212 6.14489 148.03 6.00284C147.848 5.8608 147.641 5.75426 147.408 5.68324C147.178 5.60938 146.929 5.57244 146.662 5.57244C146.188 5.57244 145.767 5.69176 145.401 5.9304C145.034 6.16619 144.747 6.51278 144.54 6.97017C144.332 7.42472 144.229 7.98011 144.229 8.63636C144.229 9.30398 144.332 9.86648 144.54 10.3239C144.75 10.7784 145.037 11.1222 145.401 11.3551C145.767 11.5852 146.186 11.7003 146.658 11.7003C146.919 11.7003 147.163 11.6662 147.391 11.598C147.621 11.527 147.827 11.4233 148.009 11.2869C148.193 11.1506 148.348 10.983 148.473 10.7841C148.601 10.5852 148.689 10.358 148.737 10.1023L150.331 10.1108C150.271 10.5256 150.142 10.9148 149.943 11.2784C149.747 11.642 149.49 11.9631 149.172 12.2415C148.854 12.517 148.482 12.733 148.055 12.8892C147.629 13.0426 147.156 13.1193 146.636 13.1193C145.869 13.1193 145.185 12.9418 144.582 12.5866C143.98 12.2315 143.506 11.7188 143.159 11.0483C142.813 10.3778 142.639 9.57386 142.639 8.63636C142.639 7.69602 142.814 6.89205 143.163 6.22443C143.513 5.55398 143.989 5.04119 144.591 4.68608C145.193 4.33097 145.875 4.15341 146.636 4.15341C147.122 4.15341 147.574 4.22159 147.991 4.35795C148.409 4.49432 148.781 4.6946 149.108 4.95881C149.435 5.22017 149.703 5.54119 149.913 5.92188C150.126 6.29972 150.266 6.73153 150.331 7.21733ZM153.594 13.1321C153.179 13.1321 152.806 13.0582 152.473 12.9105C152.144 12.7599 151.882 12.5384 151.689 12.2457C151.499 11.9531 151.404 11.5923 151.404 11.1634C151.404 10.794 151.472 10.4886 151.608 10.2472C151.745 10.0057 151.931 9.8125 152.167 9.66761C152.402 9.52273 152.668 9.41335 152.963 9.33949C153.262 9.26278 153.57 9.20739 153.888 9.1733C154.272 9.13352 154.583 9.09801 154.821 9.06676C155.06 9.03267 155.233 8.98153 155.341 8.91335C155.452 8.84233 155.507 8.73295 155.507 8.58523V8.55966C155.507 8.23864 155.412 7.99006 155.222 7.81392C155.032 7.63778 154.757 7.54972 154.4 7.54972C154.022 7.54972 153.722 7.6321 153.5 7.79688C153.282 7.96165 153.134 8.15625 153.057 8.38068L151.617 8.17614C151.73 7.77841 151.918 7.44602 152.179 7.17898C152.441 6.90909 152.76 6.70739 153.138 6.57386C153.516 6.4375 153.934 6.36932 154.391 6.36932C154.706 6.36932 155.02 6.40625 155.333 6.48011C155.645 6.55398 155.931 6.67614 156.189 6.84659C156.448 7.0142 156.655 7.2429 156.811 7.53267C156.971 7.82244 157.05 8.18466 157.05 8.61932V13H155.567V12.1009H155.516C155.422 12.2827 155.29 12.4531 155.12 12.6122C154.952 12.7685 154.74 12.8949 154.485 12.9915C154.232 13.0852 153.935 13.1321 153.594 13.1321ZM153.995 11.9986C154.304 11.9986 154.573 11.9375 154.8 11.8153C155.027 11.6903 155.202 11.5256 155.324 11.321C155.449 11.1165 155.512 10.8935 155.512 10.652V9.88068C155.463 9.92045 155.381 9.95739 155.265 9.99148C155.151 10.0256 155.023 10.0554 154.881 10.081C154.739 10.1065 154.598 10.1293 154.459 10.1491C154.32 10.169 154.199 10.1861 154.097 10.2003C153.867 10.2315 153.661 10.2827 153.479 10.3537C153.297 10.4247 153.154 10.5241 153.049 10.652C152.944 10.777 152.891 10.9389 152.891 11.1378C152.891 11.4219 152.995 11.6364 153.202 11.7812C153.409 11.9261 153.674 11.9986 153.995 11.9986ZM161.456 13.1278C160.803 13.1278 160.242 12.9844 159.773 12.6974C159.307 12.4105 158.948 12.0142 158.695 11.5085C158.445 11 158.32 10.4148 158.32 9.75284C158.32 9.08807 158.448 8.50142 158.703 7.9929C158.959 7.48153 159.32 7.08381 159.786 6.79972C160.255 6.51278 160.809 6.36932 161.448 6.36932C161.979 6.36932 162.449 6.46733 162.858 6.66335C163.27 6.85653 163.598 7.13068 163.843 7.4858C164.087 7.83807 164.226 8.25 164.26 8.72159H162.786C162.726 8.40625 162.584 8.14347 162.36 7.93324C162.138 7.72017 161.841 7.61364 161.469 7.61364C161.154 7.61364 160.877 7.69886 160.638 7.86932C160.4 8.03693 160.213 8.27841 160.08 8.59375C159.949 8.90909 159.884 9.28693 159.884 9.72727C159.884 10.1733 159.949 10.5568 160.08 10.8778C160.211 11.196 160.394 11.4418 160.63 11.6151C160.868 11.7855 161.148 11.8707 161.469 11.8707C161.696 11.8707 161.9 11.8281 162.078 11.7429C162.26 11.6548 162.412 11.5284 162.534 11.3636C162.657 11.1989 162.74 10.9986 162.786 10.7628H164.26C164.223 11.2259 164.087 11.6364 163.851 11.9943C163.615 12.3494 163.294 12.6278 162.888 12.8295C162.482 13.0284 162.005 13.1278 161.456 13.1278ZM167.07 9.16477V13H165.527V4.27273H167.036V7.56676H167.112C167.266 7.19744 167.503 6.90625 167.824 6.69318C168.148 6.47727 168.56 6.36932 169.06 6.36932C169.514 6.36932 169.911 6.46449 170.249 6.65483C170.587 6.84517 170.848 7.12358 171.033 7.49006C171.22 7.85653 171.314 8.30398 171.314 8.83239V13H169.771V9.07102C169.771 8.63068 169.658 8.28835 169.43 8.04403C169.206 7.79687 168.891 7.6733 168.484 7.6733C168.212 7.6733 167.967 7.73295 167.751 7.85227C167.538 7.96875 167.371 8.13778 167.249 8.35938C167.129 8.58097 167.07 8.84943 167.07 9.16477ZM175.784 13.1278C175.128 13.1278 174.561 12.9915 174.084 12.7188C173.609 12.4432 173.244 12.054 172.989 11.5511C172.733 11.0455 172.605 10.4503 172.605 9.76562C172.605 9.09233 172.733 8.50142 172.989 7.9929C173.247 7.48153 173.608 7.08381 174.071 6.79972C174.534 6.51278 175.078 6.36932 175.703 6.36932C176.107 6.36932 176.487 6.43466 176.845 6.56534C177.206 6.69318 177.524 6.89205 177.8 7.16193C178.078 7.43182 178.297 7.77557 178.456 8.19318C178.615 8.60795 178.695 9.10227 178.695 9.67614V10.1491H173.33V9.10938H177.216C177.213 8.81392 177.149 8.55114 177.024 8.32102C176.899 8.08807 176.724 7.90483 176.5 7.77131C176.278 7.63778 176.02 7.57102 175.724 7.57102C175.409 7.57102 175.132 7.64773 174.893 7.80114C174.655 7.9517 174.469 8.15057 174.335 8.39773C174.205 8.64205 174.138 8.91051 174.135 9.20312V10.1108C174.135 10.4915 174.205 10.8182 174.344 11.0909C174.483 11.3608 174.678 11.5682 174.928 11.7131C175.178 11.8551 175.47 11.9261 175.805 11.9261C176.03 11.9261 176.233 11.8949 176.415 11.8324C176.597 11.767 176.754 11.6719 176.888 11.5469C177.021 11.4219 177.122 11.267 177.19 11.0824L178.631 11.2443C178.54 11.625 178.366 11.9574 178.111 12.2415C177.858 12.5227 177.534 12.7415 177.139 12.8977C176.744 13.0511 176.293 13.1278 175.784 13.1278ZM183.044 4.27273H184.979L187.57 10.5966H187.672L190.263 4.27273H192.198V13H190.681V7.00426H190.6L188.188 12.9744H187.054L184.642 6.99148H184.561V13H183.044V4.27273ZM193.851 13V6.45455H195.394V13H193.851ZM194.627 5.52557C194.382 5.52557 194.172 5.4446 193.996 5.28267C193.82 5.1179 193.732 4.92045 193.732 4.69034C193.732 4.45739 193.82 4.25994 193.996 4.09801C194.172 3.93324 194.382 3.85085 194.627 3.85085C194.874 3.85085 195.084 3.93324 195.257 4.09801C195.434 4.25994 195.522 4.45739 195.522 4.69034C195.522 4.92045 195.434 5.1179 195.257 5.28267C195.084 5.4446 194.874 5.52557 194.627 5.52557ZM202.153 8.18466L200.747 8.33807C200.707 8.19602 200.638 8.0625 200.538 7.9375C200.442 7.8125 200.311 7.71165 200.146 7.63494C199.982 7.55824 199.78 7.51989 199.541 7.51989C199.22 7.51989 198.95 7.58949 198.732 7.72869C198.516 7.8679 198.409 8.0483 198.412 8.26989C198.409 8.46023 198.479 8.61506 198.621 8.73438C198.766 8.85369 199.004 8.9517 199.337 9.02841L200.453 9.26705C201.072 9.40057 201.533 9.61222 201.834 9.90199C202.138 10.1918 202.291 10.571 202.294 11.0398C202.291 11.4517 202.17 11.8153 201.932 12.1307C201.696 12.4432 201.368 12.6875 200.947 12.8636C200.527 13.0398 200.044 13.1278 199.499 13.1278C198.697 13.1278 198.053 12.9602 197.564 12.625C197.075 12.2869 196.784 11.8168 196.69 11.2145L198.195 11.0696C198.263 11.3651 198.408 11.5881 198.629 11.7386C198.851 11.8892 199.139 11.9645 199.494 11.9645C199.861 11.9645 200.155 11.8892 200.376 11.7386C200.601 11.5881 200.713 11.402 200.713 11.1804C200.713 10.9929 200.641 10.8381 200.496 10.7159C200.354 10.5937 200.132 10.5 199.831 10.4347L198.714 10.2003C198.087 10.0696 197.622 9.84943 197.321 9.53977C197.02 9.22727 196.871 8.83239 196.874 8.35511C196.871 7.9517 196.98 7.60227 197.202 7.30682C197.426 7.00852 197.737 6.77841 198.135 6.61648C198.536 6.4517 198.997 6.36932 199.52 6.36932C200.287 6.36932 200.891 6.53267 201.331 6.85938C201.774 7.18608 202.048 7.62784 202.153 8.18466ZM208.739 8.18466L207.333 8.33807C207.293 8.19602 207.224 8.0625 207.124 7.9375C207.028 7.8125 206.897 7.71165 206.732 7.63494C206.567 7.55824 206.366 7.51989 206.127 7.51989C205.806 7.51989 205.536 7.58949 205.317 7.72869C205.102 7.8679 204.995 8.0483 204.998 8.26989C204.995 8.46023 205.065 8.61506 205.207 8.73438C205.352 8.85369 205.59 8.9517 205.923 9.02841L207.039 9.26705C207.658 9.40057 208.119 9.61222 208.42 9.90199C208.724 10.1918 208.877 10.571 208.88 11.0398C208.877 11.4517 208.756 11.8153 208.518 12.1307C208.282 12.4432 207.954 12.6875 207.533 12.8636C207.113 13.0398 206.63 13.1278 206.085 13.1278C205.283 13.1278 204.638 12.9602 204.15 12.625C203.661 12.2869 203.37 11.8168 203.276 11.2145L204.781 11.0696C204.849 11.3651 204.994 11.5881 205.215 11.7386C205.437 11.8892 205.725 11.9645 206.08 11.9645C206.447 11.9645 206.741 11.8892 206.962 11.7386C207.187 11.5881 207.299 11.402 207.299 11.1804C207.299 10.9929 207.227 10.8381 207.082 10.7159C206.94 10.5937 206.718 10.5 206.417 10.4347L205.3 10.2003C204.673 10.0696 204.208 9.84943 203.907 9.53977C203.606 9.22727 203.457 8.83239 203.46 8.35511C203.457 7.9517 203.566 7.60227 203.788 7.30682C204.012 7.00852 204.323 6.77841 204.721 6.61648C205.121 6.4517 205.583 6.36932 206.106 6.36932C206.873 6.36932 207.477 6.53267 207.917 6.85938C208.36 7.18608 208.634 7.62784 208.739 8.18466Z" fill="white"/>
</svg>
