<svg width="530" height="348" viewBox="0 0 530 348" fill="none" xmlns="http://www.w3.org/2000/svg">
<rect width="530" height="348" fill="#252E3A"/>
<rect x="195" y="36" width="91" height="29" rx="5" fill="#D9D9D9"/>
<path d="M405 154C366.343 215.265 286.592 182.514 230 217" stroke="#7DD0E9"/>
<path d="M430 286C376.93 238.126 429.199 202.265 407.616 154" stroke="#7DD0E9"/>
<path d="M229 136C232.322 90.3726 228.577 94.8748 244.474 64.9992" stroke="#7DD0E9"/>
<path d="M79 131C134.142 98.1028 207.838 123.442 245.505 65C213.407 116.512 340.292 93.979 409 131" stroke="#7DD0E9"/>
<rect x="358" y="128" width="91" height="29" rx="5" fill="#D9D9D9"/>
<rect x="51" y="128" width="91" height="29" rx="5" fill="#D9D9D9"/>
<rect x="385" y="283" width="91" height="29" rx="5" fill="#D9D9D9"/>
<rect x="198" y="125" width="91" height="29" rx="5" fill="#D9D9D9"/>
<rect x="307" y="82" width="35" height="16" rx="5" fill="#7DD0E9"/>
<path d="M226.676 54.1321C226.261 54.1321 225.888 54.0582 225.555 53.9105C225.226 53.7599 224.964 53.5384 224.771 53.2457C224.581 52.9531 224.486 52.5923 224.486 52.1634C224.486 51.794 224.554 51.4886 224.69 51.2472C224.827 51.0057 225.013 50.8125 225.249 50.6676C225.484 50.5227 225.75 50.4134 226.045 50.3395C226.344 50.2628 226.652 50.2074 226.97 50.1733C227.354 50.1335 227.665 50.098 227.903 50.0668C228.142 50.0327 228.315 49.9815 228.423 49.9134C228.534 49.8423 228.589 49.733 228.589 49.5852V49.5597C228.589 49.2386 228.494 48.9901 228.304 48.8139C228.114 48.6378 227.839 48.5497 227.482 48.5497C227.104 48.5497 226.804 48.6321 226.582 48.7969C226.364 48.9616 226.216 49.1562 226.139 49.3807L224.699 49.1761C224.813 48.7784 225 48.446 225.261 48.179C225.523 47.9091 225.842 47.7074 226.22 47.5739C226.598 47.4375 227.016 47.3693 227.473 47.3693C227.788 47.3693 228.102 47.4062 228.415 47.4801C228.727 47.554 229.013 47.6761 229.271 47.8466C229.53 48.0142 229.737 48.2429 229.893 48.5327C230.053 48.8224 230.132 49.1847 230.132 49.6193V54H228.649V53.1009H228.598C228.504 53.2827 228.372 53.4531 228.202 53.6122C228.034 53.7685 227.822 53.8949 227.567 53.9915C227.314 54.0852 227.017 54.1321 226.676 54.1321ZM227.077 52.9986C227.386 52.9986 227.655 52.9375 227.882 52.8153C228.109 52.6903 228.284 52.5256 228.406 52.321C228.531 52.1165 228.594 51.8935 228.594 51.652V50.8807C228.545 50.9205 228.463 50.9574 228.347 50.9915C228.233 51.0256 228.105 51.0554 227.963 51.081C227.821 51.1065 227.68 51.1293 227.541 51.1491C227.402 51.169 227.281 51.1861 227.179 51.2003C226.949 51.2315 226.743 51.2827 226.561 51.3537C226.379 51.4247 226.236 51.5241 226.131 51.652C226.026 51.777 225.973 51.9389 225.973 52.1378C225.973 52.4219 226.077 52.6364 226.284 52.7812C226.491 52.9261 226.756 52.9986 227.077 52.9986ZM231.683 54V47.4545H233.179V48.5455H233.247C233.366 48.1676 233.571 47.8764 233.861 47.6719C234.153 47.4645 234.487 47.3608 234.862 47.3608C234.947 47.3608 235.043 47.3651 235.148 47.3736C235.256 47.3793 235.345 47.3892 235.416 47.4034V48.8224C235.351 48.7997 235.247 48.7798 235.105 48.7628C234.966 48.7429 234.831 48.733 234.7 48.733C234.419 48.733 234.166 48.794 233.942 48.9162C233.72 49.0355 233.545 49.2017 233.418 49.4148C233.29 49.6278 233.226 49.8736 233.226 50.152V54H231.683ZM240.061 47.4545V48.6477H236.298V47.4545H240.061ZM237.227 45.8864H238.77V52.0312C238.77 52.2386 238.801 52.3977 238.864 52.5085C238.929 52.6165 239.014 52.6903 239.119 52.7301C239.224 52.7699 239.341 52.7898 239.469 52.7898C239.565 52.7898 239.653 52.7827 239.733 52.7685C239.815 52.7543 239.878 52.7415 239.92 52.7301L240.18 53.9361C240.098 53.9645 239.98 53.9957 239.827 54.0298C239.676 54.0639 239.491 54.0838 239.273 54.0895C238.886 54.1009 238.538 54.0426 238.229 53.9148C237.919 53.7841 237.673 53.5824 237.491 53.3097C237.313 53.0369 237.224 52.696 237.227 52.2869V45.8864ZM241.351 54V47.4545H242.894V54H241.351ZM242.127 46.5256C241.882 46.5256 241.672 46.4446 241.496 46.2827C241.32 46.1179 241.232 45.9205 241.232 45.6903C241.232 45.4574 241.32 45.2599 241.496 45.098C241.672 44.9332 241.882 44.8509 242.127 44.8509C242.374 44.8509 242.584 44.9332 242.757 45.098C242.934 45.2599 243.022 45.4574 243.022 45.6903C243.022 45.9205 242.934 46.1179 242.757 46.2827C242.584 46.4446 242.374 46.5256 242.127 46.5256ZM249.653 49.1847L248.247 49.3381C248.207 49.196 248.138 49.0625 248.038 48.9375C247.942 48.8125 247.811 48.7116 247.646 48.6349C247.482 48.5582 247.28 48.5199 247.041 48.5199C246.72 48.5199 246.45 48.5895 246.232 48.7287C246.016 48.8679 245.909 49.0483 245.912 49.2699C245.909 49.4602 245.979 49.6151 246.121 49.7344C246.266 49.8537 246.504 49.9517 246.837 50.0284L247.953 50.267C248.572 50.4006 249.033 50.6122 249.334 50.902C249.638 51.1918 249.791 51.571 249.794 52.0398C249.791 52.4517 249.67 52.8153 249.432 53.1307C249.196 53.4432 248.868 53.6875 248.447 53.8636C248.027 54.0398 247.544 54.1278 246.999 54.1278C246.197 54.1278 245.553 53.9602 245.064 53.625C244.575 53.2869 244.284 52.8168 244.19 52.2145L245.695 52.0696C245.763 52.3651 245.908 52.5881 246.129 52.7386C246.351 52.8892 246.639 52.9645 246.994 52.9645C247.361 52.9645 247.655 52.8892 247.876 52.7386C248.101 52.5881 248.213 52.402 248.213 52.1804C248.213 51.9929 248.141 51.8381 247.996 51.7159C247.854 51.5937 247.632 51.5 247.331 51.4347L246.214 51.2003C245.587 51.0696 245.122 50.8494 244.821 50.5398C244.52 50.2273 244.371 49.8324 244.374 49.3551C244.371 48.9517 244.48 48.6023 244.702 48.3068C244.926 48.0085 245.237 47.7784 245.635 47.6165C246.036 47.4517 246.497 47.3693 247.02 47.3693C247.787 47.3693 248.391 47.5327 248.831 47.8594C249.274 48.1861 249.548 48.6278 249.653 49.1847ZM254.335 47.4545V48.6477H250.572V47.4545H254.335ZM251.501 45.8864H253.043V52.0312C253.043 52.2386 253.075 52.3977 253.137 52.5085C253.202 52.6165 253.288 52.6903 253.393 52.7301C253.498 52.7699 253.614 52.7898 253.742 52.7898C253.839 52.7898 253.927 52.7827 254.006 52.7685C254.089 52.7543 254.151 52.7415 254.194 52.7301L254.454 53.9361C254.371 53.9645 254.254 53.9957 254.1 54.0298C253.95 54.0639 253.765 54.0838 253.546 54.0895C253.16 54.1009 252.812 54.0426 252.502 53.9148C252.192 53.7841 251.947 53.5824 251.765 53.3097C251.586 53.0369 251.498 52.696 251.501 52.2869V45.8864Z" fill="black"/>
<path d="M318.456 92L320.003 88.9389V88.9141H318.208V88.3636H320.685V88.9265L319.14 92H318.456ZM322.511 92.0497C322.337 92.0485 322.167 92.0183 322.002 91.9592C321.836 91.8988 321.687 91.8011 321.554 91.6662C321.422 91.5301 321.316 91.3496 321.238 91.1246C321.16 90.8986 321.122 90.6186 321.123 90.2848C321.123 89.9735 321.156 89.6959 321.222 89.4521C321.289 89.2082 321.384 89.0022 321.508 88.8342C321.632 88.6649 321.782 88.5359 321.957 88.4471C322.134 88.3583 322.331 88.3139 322.549 88.3139C322.777 88.3139 322.979 88.3589 323.156 88.4489C323.333 88.5388 323.477 88.6619 323.585 88.8182C323.694 88.9732 323.762 89.1484 323.788 89.3438H323.14C323.107 89.2041 323.039 89.0928 322.936 89.0099C322.834 88.9259 322.705 88.8839 322.549 88.8839C322.296 88.8839 322.102 88.9934 321.966 89.2124C321.831 89.4313 321.763 89.732 321.762 90.1143H321.787C321.845 90.0102 321.92 89.9208 322.012 89.8462C322.105 89.7717 322.209 89.7143 322.325 89.674C322.442 89.6326 322.566 89.6119 322.696 89.6119C322.909 89.6119 323.1 89.6628 323.269 89.7646C323.44 89.8664 323.575 90.0066 323.674 90.1854C323.774 90.3629 323.823 90.5665 323.822 90.7962C323.823 91.0353 323.768 91.2501 323.658 91.4407C323.548 91.6301 323.395 91.7792 323.198 91.8881C323.002 91.997 322.773 92.0509 322.511 92.0497ZM322.508 91.517C322.637 91.517 322.752 91.4857 322.854 91.4229C322.956 91.3602 323.036 91.2756 323.095 91.169C323.155 91.0625 323.184 90.9429 323.182 90.8104C323.184 90.6802 323.155 90.5624 323.097 90.457C323.04 90.3517 322.962 90.2682 322.861 90.2067C322.76 90.1451 322.646 90.1143 322.517 90.1143C322.421 90.1143 322.331 90.1327 322.248 90.1694C322.166 90.2061 322.093 90.257 322.032 90.3221C321.97 90.386 321.922 90.4606 321.886 90.5458C321.852 90.6299 321.834 90.7198 321.833 90.8157C321.834 90.9424 321.864 91.0589 321.922 91.1655C321.98 91.272 322.06 91.3572 322.161 91.4212C322.263 91.4851 322.379 91.517 322.508 91.517ZM324.429 92V89.2727H325.043V89.7362H325.075C325.132 89.5799 325.226 89.458 325.358 89.3704C325.489 89.2816 325.646 89.2372 325.828 89.2372C326.013 89.2372 326.168 89.2822 326.295 89.3722C326.423 89.4609 326.513 89.5823 326.565 89.7362H326.593C326.654 89.5846 326.755 89.4639 326.899 89.3739C327.043 89.2828 327.214 89.2372 327.412 89.2372C327.663 89.2372 327.868 89.3165 328.026 89.4751C328.185 89.6338 328.264 89.8652 328.264 90.1694V92H327.62V90.2688C327.62 90.0996 327.575 89.9759 327.485 89.8977C327.395 89.8184 327.285 89.7788 327.154 89.7788C326.999 89.7788 326.878 89.8273 326.79 89.9244C326.704 90.0202 326.661 90.1451 326.661 90.299V92H326.03V90.2422C326.03 90.1013 325.988 89.9889 325.903 89.9048C325.819 89.8208 325.708 89.7788 325.572 89.7788C325.48 89.7788 325.396 89.8024 325.32 89.8498C325.244 89.896 325.184 89.9616 325.139 90.0469C325.094 90.1309 325.072 90.2292 325.072 90.3416V92H324.429ZM331.072 89.9936L330.486 90.0575C330.469 89.9983 330.44 89.9427 330.399 89.8906C330.359 89.8385 330.304 89.7965 330.235 89.7646C330.167 89.7326 330.083 89.7166 329.983 89.7166C329.85 89.7166 329.737 89.7456 329.646 89.8036C329.556 89.8616 329.512 89.9368 329.513 90.0291C329.512 90.1084 329.541 90.1729 329.6 90.2227C329.66 90.2724 329.76 90.3132 329.898 90.3452L330.363 90.4446C330.621 90.5002 330.813 90.5884 330.939 90.7092C331.065 90.8299 331.129 90.9879 331.13 91.1832C331.129 91.3549 331.079 91.5064 330.979 91.6378C330.881 91.768 330.744 91.8698 330.569 91.9432C330.394 92.0166 330.193 92.0533 329.966 92.0533C329.632 92.0533 329.363 91.9834 329.159 91.8438C328.956 91.7029 328.835 91.507 328.795 91.256L329.422 91.1957C329.451 91.3188 329.511 91.4117 329.603 91.4744C329.696 91.5372 329.816 91.5685 329.964 91.5685C330.116 91.5685 330.239 91.5372 330.331 91.4744C330.425 91.4117 330.472 91.3342 330.472 91.2418C330.472 91.1637 330.441 91.0992 330.381 91.0483C330.322 90.9974 330.23 90.9583 330.104 90.9311L329.639 90.8335C329.377 90.779 329.184 90.6873 329.058 90.5582C328.933 90.428 328.871 90.2635 328.872 90.0646C328.871 89.8965 328.916 89.7509 329.009 89.6278C329.102 89.5036 329.232 89.4077 329.397 89.3402C329.564 89.2715 329.757 89.2372 329.974 89.2372C330.294 89.2372 330.546 89.3053 330.729 89.4414C330.914 89.5775 331.028 89.7616 331.072 89.9936Z" fill="black"/>
<path d="M89.7926 147V140.455H91.3352V147H89.7926ZM90.5682 139.526C90.3239 139.526 90.1136 139.445 89.9375 139.283C89.7614 139.118 89.6733 138.92 89.6733 138.69C89.6733 138.457 89.7614 138.26 89.9375 138.098C90.1136 137.933 90.3239 137.851 90.5682 137.851C90.8153 137.851 91.0256 137.933 91.1989 138.098C91.375 138.26 91.4631 138.457 91.4631 138.69C91.4631 138.92 91.375 139.118 91.1989 139.283C91.0256 139.445 90.8153 139.526 90.5682 139.526ZM95.3505 147.115C94.8363 147.115 94.3761 146.983 93.9698 146.719C93.5636 146.455 93.2425 146.071 93.0067 145.568C92.771 145.065 92.6531 144.455 92.6531 143.736C92.6531 143.009 92.7724 142.395 93.011 141.895C93.2525 141.392 93.5778 141.013 93.9869 140.757C94.396 140.499 94.8519 140.369 95.3548 140.369C95.7383 140.369 96.0536 140.435 96.3008 140.565C96.5479 140.693 96.744 140.848 96.8888 141.03C97.0337 141.209 97.146 141.378 97.2255 141.537H97.2894V138.273H98.8363V147H97.3192V145.969H97.2255C97.146 146.128 97.0309 146.297 96.8803 146.476C96.7298 146.652 96.5309 146.803 96.2837 146.928C96.0366 147.053 95.7255 147.115 95.3505 147.115ZM95.7809 145.849C96.1076 145.849 96.386 145.761 96.6161 145.585C96.8462 145.406 97.021 145.158 97.1403 144.839C97.2596 144.521 97.3192 144.151 97.3192 143.727C97.3192 143.304 97.2596 142.936 97.1403 142.624C97.0238 142.311 96.8505 142.068 96.6204 141.895C96.3931 141.722 96.1133 141.635 95.7809 141.635C95.4371 141.635 95.1502 141.724 94.9201 141.903C94.69 142.082 94.5167 142.33 94.4002 142.645C94.2837 142.96 94.2255 143.321 94.2255 143.727C94.2255 144.136 94.2837 144.501 94.4002 144.822C94.5195 145.141 94.6942 145.392 94.9244 145.577C95.1573 145.759 95.4428 145.849 95.7809 145.849Z" fill="black"/>
<path d="M227.335 139.165V143H225.793V136.455H227.267V137.567H227.344C227.494 137.2 227.734 136.909 228.064 136.693C228.396 136.477 228.807 136.369 229.295 136.369C229.747 136.369 230.141 136.466 230.476 136.659C230.814 136.852 231.075 137.132 231.26 137.499C231.447 137.865 231.54 138.31 231.537 138.832V143H229.994V139.071C229.994 138.634 229.881 138.291 229.653 138.044C229.429 137.797 229.118 137.673 228.72 137.673C228.45 137.673 228.21 137.733 228 137.852C227.793 137.969 227.629 138.138 227.51 138.359C227.393 138.581 227.335 138.849 227.335 139.165ZM234.989 143.132C234.574 143.132 234.2 143.058 233.868 142.911C233.538 142.76 233.277 142.538 233.084 142.246C232.893 141.953 232.798 141.592 232.798 141.163C232.798 140.794 232.866 140.489 233.003 140.247C233.139 140.006 233.325 139.812 233.561 139.668C233.797 139.523 234.063 139.413 234.358 139.339C234.656 139.263 234.964 139.207 235.283 139.173C235.666 139.134 235.977 139.098 236.216 139.067C236.455 139.033 236.628 138.982 236.736 138.913C236.847 138.842 236.902 138.733 236.902 138.585V138.56C236.902 138.239 236.807 137.99 236.616 137.814C236.426 137.638 236.152 137.55 235.794 137.55C235.416 137.55 235.116 137.632 234.895 137.797C234.676 137.962 234.528 138.156 234.452 138.381L233.011 138.176C233.125 137.778 233.313 137.446 233.574 137.179C233.835 136.909 234.155 136.707 234.533 136.574C234.911 136.438 235.328 136.369 235.786 136.369C236.101 136.369 236.415 136.406 236.727 136.48C237.04 136.554 237.325 136.676 237.584 136.847C237.842 137.014 238.05 137.243 238.206 137.533C238.365 137.822 238.445 138.185 238.445 138.619V143H236.962V142.101H236.911C236.817 142.283 236.685 142.453 236.514 142.612C236.347 142.768 236.135 142.895 235.879 142.991C235.626 143.085 235.33 143.132 234.989 143.132ZM235.389 141.999C235.699 141.999 235.967 141.937 236.195 141.815C236.422 141.69 236.597 141.526 236.719 141.321C236.844 141.116 236.906 140.893 236.906 140.652V139.881C236.858 139.92 236.776 139.957 236.659 139.991C236.545 140.026 236.418 140.055 236.276 140.081C236.134 140.107 235.993 140.129 235.854 140.149C235.714 140.169 235.594 140.186 235.491 140.2C235.261 140.232 235.055 140.283 234.874 140.354C234.692 140.425 234.548 140.524 234.443 140.652C234.338 140.777 234.286 140.939 234.286 141.138C234.286 141.422 234.389 141.636 234.597 141.781C234.804 141.926 235.068 141.999 235.389 141.999ZM239.996 143V136.455H241.47V137.567H241.547C241.683 137.192 241.909 136.899 242.224 136.689C242.54 136.476 242.916 136.369 243.354 136.369C243.797 136.369 244.17 136.477 244.474 136.693C244.781 136.906 244.997 137.197 245.122 137.567H245.19C245.335 137.203 245.58 136.913 245.923 136.697C246.27 136.479 246.68 136.369 247.155 136.369C247.757 136.369 248.249 136.56 248.629 136.94C249.01 137.321 249.2 137.876 249.2 138.607V143H247.653V138.845C247.653 138.439 247.545 138.142 247.33 137.955C247.114 137.764 246.849 137.669 246.537 137.669C246.165 137.669 245.874 137.786 245.663 138.018C245.456 138.249 245.352 138.548 245.352 138.918V143H243.839V138.781C243.839 138.443 243.737 138.173 243.533 137.972C243.331 137.77 243.067 137.669 242.74 137.669C242.518 137.669 242.317 137.726 242.135 137.839C241.953 137.95 241.808 138.108 241.7 138.312C241.592 138.514 241.538 138.75 241.538 139.02V143H239.996ZM253.663 143.128C253.007 143.128 252.44 142.991 251.963 142.719C251.488 142.443 251.123 142.054 250.868 141.551C250.612 141.045 250.484 140.45 250.484 139.766C250.484 139.092 250.612 138.501 250.868 137.993C251.126 137.482 251.487 137.084 251.95 136.8C252.413 136.513 252.957 136.369 253.582 136.369C253.985 136.369 254.366 136.435 254.724 136.565C255.085 136.693 255.403 136.892 255.679 137.162C255.957 137.432 256.176 137.776 256.335 138.193C256.494 138.608 256.574 139.102 256.574 139.676V140.149H251.208V139.109H255.095C255.092 138.814 255.028 138.551 254.903 138.321C254.778 138.088 254.603 137.905 254.379 137.771C254.157 137.638 253.899 137.571 253.603 137.571C253.288 137.571 253.011 137.648 252.772 137.801C252.534 137.952 252.348 138.151 252.214 138.398C252.083 138.642 252.017 138.911 252.014 139.203V140.111C252.014 140.491 252.083 140.818 252.223 141.091C252.362 141.361 252.556 141.568 252.806 141.713C253.056 141.855 253.349 141.926 253.684 141.926C253.909 141.926 254.112 141.895 254.294 141.832C254.475 141.767 254.633 141.672 254.767 141.547C254.9 141.422 255.001 141.267 255.069 141.082L256.51 141.244C256.419 141.625 256.245 141.957 255.99 142.241C255.737 142.523 255.413 142.741 255.018 142.898C254.623 143.051 254.172 143.128 253.663 143.128Z" fill="black"/>
<path d="M387.676 146.132C387.261 146.132 386.888 146.058 386.555 145.911C386.226 145.76 385.964 145.538 385.771 145.246C385.581 144.953 385.486 144.592 385.486 144.163C385.486 143.794 385.554 143.489 385.69 143.247C385.827 143.006 386.013 142.812 386.249 142.668C386.484 142.523 386.75 142.413 387.045 142.339C387.344 142.263 387.652 142.207 387.97 142.173C388.354 142.134 388.665 142.098 388.903 142.067C389.142 142.033 389.315 141.982 389.423 141.913C389.534 141.842 389.589 141.733 389.589 141.585V141.56C389.589 141.239 389.494 140.99 389.304 140.814C389.114 140.638 388.839 140.55 388.482 140.55C388.104 140.55 387.804 140.632 387.582 140.797C387.364 140.962 387.216 141.156 387.139 141.381L385.699 141.176C385.813 140.778 386 140.446 386.261 140.179C386.523 139.909 386.842 139.707 387.22 139.574C387.598 139.438 388.016 139.369 388.473 139.369C388.788 139.369 389.102 139.406 389.415 139.48C389.727 139.554 390.013 139.676 390.271 139.847C390.53 140.014 390.737 140.243 390.893 140.533C391.053 140.822 391.132 141.185 391.132 141.619V146H389.649V145.101H389.598C389.504 145.283 389.372 145.453 389.202 145.612C389.034 145.768 388.822 145.895 388.567 145.991C388.314 146.085 388.017 146.132 387.676 146.132ZM388.077 144.999C388.386 144.999 388.655 144.937 388.882 144.815C389.109 144.69 389.284 144.526 389.406 144.321C389.531 144.116 389.594 143.893 389.594 143.652V142.881C389.545 142.92 389.463 142.957 389.347 142.991C389.233 143.026 389.105 143.055 388.963 143.081C388.821 143.107 388.68 143.129 388.541 143.149C388.402 143.169 388.281 143.186 388.179 143.2C387.949 143.232 387.743 143.283 387.561 143.354C387.379 143.425 387.236 143.524 387.131 143.652C387.026 143.777 386.973 143.939 386.973 144.138C386.973 144.422 387.077 144.636 387.284 144.781C387.491 144.926 387.756 144.999 388.077 144.999ZM394.226 137.273V146H392.683V137.273H394.226ZM395.88 146V137.273H397.423V140.537H397.487C397.566 140.378 397.679 140.209 397.824 140.03C397.968 139.848 398.164 139.693 398.412 139.565C398.659 139.435 398.974 139.369 399.358 139.369C399.863 139.369 400.319 139.499 400.725 139.757C401.135 140.013 401.458 140.392 401.697 140.895C401.939 141.395 402.059 142.009 402.059 142.736C402.059 143.455 401.941 144.065 401.706 144.568C401.47 145.071 401.149 145.455 400.743 145.719C400.336 145.983 399.876 146.115 399.362 146.115C398.987 146.115 398.676 146.053 398.429 145.928C398.181 145.803 397.983 145.652 397.832 145.476C397.684 145.297 397.569 145.128 397.487 144.969H397.397V146H395.88ZM397.393 142.727C397.393 143.151 397.453 143.521 397.572 143.839C397.694 144.158 397.869 144.406 398.096 144.585C398.326 144.761 398.605 144.849 398.931 144.849C399.272 144.849 399.558 144.759 399.788 144.577C400.018 144.392 400.191 144.141 400.308 143.822C400.427 143.501 400.487 143.136 400.487 142.727C400.487 142.321 400.429 141.96 400.312 141.645C400.196 141.33 400.022 141.082 399.792 140.903C399.562 140.724 399.275 140.635 398.931 140.635C398.602 140.635 398.322 140.722 398.092 140.895C397.862 141.068 397.687 141.311 397.568 141.624C397.451 141.936 397.393 142.304 397.393 142.727ZM407.543 143.247V139.455H409.085V146H407.589V144.837H407.521C407.374 145.203 407.131 145.503 406.793 145.736C406.457 145.969 406.044 146.085 405.553 146.085C405.124 146.085 404.744 145.99 404.415 145.8C404.088 145.607 403.832 145.327 403.648 144.96C403.463 144.591 403.371 144.145 403.371 143.622V139.455H404.913V143.384C404.913 143.798 405.027 144.128 405.254 144.372C405.482 144.616 405.78 144.739 406.149 144.739C406.376 144.739 406.597 144.683 406.81 144.572C407.023 144.462 407.197 144.297 407.334 144.078C407.473 143.857 407.543 143.58 407.543 143.247ZM410.672 146V139.455H412.146V140.567H412.223C412.359 140.192 412.585 139.899 412.9 139.689C413.216 139.476 413.592 139.369 414.029 139.369C414.473 139.369 414.846 139.477 415.15 139.693C415.457 139.906 415.673 140.197 415.798 140.567H415.866C416.011 140.203 416.255 139.913 416.599 139.697C416.946 139.479 417.356 139.369 417.831 139.369C418.433 139.369 418.924 139.56 419.305 139.94C419.686 140.321 419.876 140.876 419.876 141.607V146H418.329V141.845C418.329 141.439 418.221 141.142 418.005 140.955C417.789 140.764 417.525 140.669 417.213 140.669C416.841 140.669 416.549 140.786 416.339 141.018C416.132 141.249 416.028 141.548 416.028 141.918V146H414.515V141.781C414.515 141.443 414.413 141.173 414.208 140.972C414.007 140.77 413.743 140.669 413.416 140.669C413.194 140.669 412.993 140.726 412.811 140.839C412.629 140.95 412.484 141.108 412.376 141.312C412.268 141.514 412.214 141.75 412.214 142.02V146H410.672ZM426.614 141.185L425.208 141.338C425.168 141.196 425.099 141.062 424.999 140.938C424.903 140.812 424.772 140.712 424.607 140.635C424.442 140.558 424.241 140.52 424.002 140.52C423.681 140.52 423.411 140.589 423.192 140.729C422.977 140.868 422.87 141.048 422.873 141.27C422.87 141.46 422.94 141.615 423.082 141.734C423.227 141.854 423.465 141.952 423.798 142.028L424.914 142.267C425.533 142.401 425.994 142.612 426.295 142.902C426.599 143.192 426.752 143.571 426.755 144.04C426.752 144.452 426.631 144.815 426.393 145.131C426.157 145.443 425.829 145.687 425.408 145.864C424.988 146.04 424.505 146.128 423.96 146.128C423.158 146.128 422.513 145.96 422.025 145.625C421.536 145.287 421.245 144.817 421.151 144.214L422.656 144.07C422.724 144.365 422.869 144.588 423.09 144.739C423.312 144.889 423.6 144.964 423.955 144.964C424.322 144.964 424.616 144.889 424.837 144.739C425.062 144.588 425.174 144.402 425.174 144.18C425.174 143.993 425.102 143.838 424.957 143.716C424.815 143.594 424.593 143.5 424.292 143.435L423.175 143.2C422.548 143.07 422.083 142.849 421.782 142.54C421.481 142.227 421.332 141.832 421.335 141.355C421.332 140.952 421.441 140.602 421.663 140.307C421.887 140.009 422.198 139.778 422.596 139.616C422.996 139.452 423.458 139.369 423.981 139.369C424.748 139.369 425.352 139.533 425.792 139.859C426.235 140.186 426.509 140.628 426.614 141.185Z" fill="black"/>
<path d="M418.335 298.165V302H416.793V295.455H418.267V296.567H418.344C418.494 296.2 418.734 295.909 419.064 295.693C419.396 295.477 419.807 295.369 420.295 295.369C420.747 295.369 421.141 295.466 421.476 295.659C421.814 295.852 422.075 296.132 422.26 296.499C422.447 296.865 422.54 297.31 422.537 297.832V302H420.994V298.071C420.994 297.634 420.881 297.291 420.653 297.044C420.429 296.797 420.118 296.673 419.72 296.673C419.45 296.673 419.21 296.733 419 296.852C418.793 296.969 418.629 297.138 418.51 297.359C418.393 297.581 418.335 297.849 418.335 298.165ZM425.989 302.132C425.574 302.132 425.2 302.058 424.868 301.911C424.538 301.76 424.277 301.538 424.084 301.246C423.893 300.953 423.798 300.592 423.798 300.163C423.798 299.794 423.866 299.489 424.003 299.247C424.139 299.006 424.325 298.812 424.561 298.668C424.797 298.523 425.063 298.413 425.358 298.339C425.656 298.263 425.964 298.207 426.283 298.173C426.666 298.134 426.977 298.098 427.216 298.067C427.455 298.033 427.628 297.982 427.736 297.913C427.847 297.842 427.902 297.733 427.902 297.585V297.56C427.902 297.239 427.807 296.99 427.616 296.814C427.426 296.638 427.152 296.55 426.794 296.55C426.416 296.55 426.116 296.632 425.895 296.797C425.676 296.962 425.528 297.156 425.452 297.381L424.011 297.176C424.125 296.778 424.313 296.446 424.574 296.179C424.835 295.909 425.155 295.707 425.533 295.574C425.911 295.438 426.328 295.369 426.786 295.369C427.101 295.369 427.415 295.406 427.727 295.48C428.04 295.554 428.325 295.676 428.584 295.847C428.842 296.014 429.05 296.243 429.206 296.533C429.365 296.822 429.445 297.185 429.445 297.619V302H427.962V301.101H427.911C427.817 301.283 427.685 301.453 427.514 301.612C427.347 301.768 427.135 301.895 426.879 301.991C426.626 302.085 426.33 302.132 425.989 302.132ZM426.389 300.999C426.699 300.999 426.967 300.937 427.195 300.815C427.422 300.69 427.597 300.526 427.719 300.321C427.844 300.116 427.906 299.893 427.906 299.652V298.881C427.858 298.92 427.776 298.957 427.659 298.991C427.545 299.026 427.418 299.055 427.276 299.081C427.134 299.107 426.993 299.129 426.854 299.149C426.714 299.169 426.594 299.186 426.491 299.2C426.261 299.232 426.055 299.283 425.874 299.354C425.692 299.425 425.548 299.524 425.443 299.652C425.338 299.777 425.286 299.939 425.286 300.138C425.286 300.422 425.389 300.636 425.597 300.781C425.804 300.926 426.068 300.999 426.389 300.999ZM430.996 302V295.455H432.47V296.567H432.547C432.683 296.192 432.909 295.899 433.224 295.689C433.54 295.476 433.916 295.369 434.354 295.369C434.797 295.369 435.17 295.477 435.474 295.693C435.781 295.906 435.997 296.197 436.122 296.567H436.19C436.335 296.203 436.58 295.913 436.923 295.697C437.27 295.479 437.68 295.369 438.155 295.369C438.757 295.369 439.249 295.56 439.629 295.94C440.01 296.321 440.2 296.876 440.2 297.607V302H438.653V297.845C438.653 297.439 438.545 297.142 438.33 296.955C438.114 296.764 437.849 296.669 437.537 296.669C437.165 296.669 436.874 296.786 436.663 297.018C436.456 297.249 436.352 297.548 436.352 297.918V302H434.839V297.781C434.839 297.443 434.737 297.173 434.533 296.972C434.331 296.77 434.067 296.669 433.74 296.669C433.518 296.669 433.317 296.726 433.135 296.839C432.953 296.95 432.808 297.108 432.7 297.312C432.592 297.514 432.538 297.75 432.538 298.02V302H430.996ZM444.663 302.128C444.007 302.128 443.44 301.991 442.963 301.719C442.488 301.443 442.123 301.054 441.868 300.551C441.612 300.045 441.484 299.45 441.484 298.766C441.484 298.092 441.612 297.501 441.868 296.993C442.126 296.482 442.487 296.084 442.95 295.8C443.413 295.513 443.957 295.369 444.582 295.369C444.985 295.369 445.366 295.435 445.724 295.565C446.085 295.693 446.403 295.892 446.679 296.162C446.957 296.432 447.176 296.776 447.335 297.193C447.494 297.608 447.574 298.102 447.574 298.676V299.149H442.208V298.109H446.095C446.092 297.814 446.028 297.551 445.903 297.321C445.778 297.088 445.603 296.905 445.379 296.771C445.157 296.638 444.899 296.571 444.603 296.571C444.288 296.571 444.011 296.648 443.772 296.801C443.534 296.952 443.348 297.151 443.214 297.398C443.083 297.642 443.017 297.911 443.014 298.203V299.111C443.014 299.491 443.083 299.818 443.223 300.091C443.362 300.361 443.556 300.568 443.806 300.713C444.056 300.855 444.349 300.926 444.684 300.926C444.909 300.926 445.112 300.895 445.294 300.832C445.475 300.767 445.633 300.672 445.767 300.547C445.9 300.422 446.001 300.267 446.069 300.082L447.51 300.244C447.419 300.625 447.245 300.957 446.99 301.241C446.737 301.523 446.413 301.741 446.018 301.898C445.623 302.051 445.172 302.128 444.663 302.128Z" fill="black"/>
<rect x="198" y="214" width="91" height="29" rx="5" fill="#D9D9D9"/>
<path d="M234.793 233V226.455H236.335V233H234.793ZM235.568 225.526C235.324 225.526 235.114 225.445 234.938 225.283C234.761 225.118 234.673 224.92 234.673 224.69C234.673 224.457 234.761 224.26 234.938 224.098C235.114 223.933 235.324 223.851 235.568 223.851C235.815 223.851 236.026 223.933 236.199 224.098C236.375 224.26 236.463 224.457 236.463 224.69C236.463 224.92 236.375 225.118 236.199 225.283C236.026 225.445 235.815 225.526 235.568 225.526ZM240.35 233.115C239.836 233.115 239.376 232.983 238.97 232.719C238.564 232.455 238.243 232.071 238.007 231.568C237.771 231.065 237.653 230.455 237.653 229.736C237.653 229.009 237.772 228.395 238.011 227.895C238.252 227.392 238.578 227.013 238.987 226.757C239.396 226.499 239.852 226.369 240.355 226.369C240.738 226.369 241.054 226.435 241.301 226.565C241.548 226.693 241.744 226.848 241.889 227.03C242.034 227.209 242.146 227.378 242.225 227.537H242.289V224.273H243.836V233H242.319V231.969H242.225C242.146 232.128 242.031 232.297 241.88 232.476C241.73 232.652 241.531 232.803 241.284 232.928C241.037 233.053 240.725 233.115 240.35 233.115ZM240.781 231.849C241.108 231.849 241.386 231.761 241.616 231.585C241.846 231.406 242.021 231.158 242.14 230.839C242.26 230.521 242.319 230.151 242.319 229.727C242.319 229.304 242.26 228.936 242.14 228.624C242.024 228.311 241.85 228.068 241.62 227.895C241.393 227.722 241.113 227.635 240.781 227.635C240.437 227.635 240.15 227.724 239.92 227.903C239.69 228.082 239.517 228.33 239.4 228.645C239.284 228.96 239.225 229.321 239.225 229.727C239.225 230.136 239.284 230.501 239.4 230.822C239.52 231.141 239.694 231.392 239.924 231.577C240.157 231.759 240.443 231.849 240.781 231.849Z" fill="black"/>
</svg>
