<svg width="339" height="110" viewBox="0 0 339 110" fill="none" xmlns="http://www.w3.org/2000/svg">
<g clip-path="url(#clip0_169_62)">
<path d="M89.5133 15.1941L88.8223 16.2429L98.6979 21.255L88.2514 25.7851C87.7816 25.9883 87.4825 26.4118 87.4825 26.8717V34.5035C87.4825 34.6045 87.5002 34.7213 87.5303 34.8187L97.8908 68.5241L73.511 90.513H50.445L31.9624 83.8145C31.6783 83.7111 31.3724 83.694 31.0761 83.7646L4.99042 89.9435L75.8136 9.76103H88.1326V15.1953C88.1326 15.6285 88.3948 16.0276 88.8223 16.2442L89.5133 15.1953H90.8941V8.55031C90.8941 8.23151 90.7466 7.91879 90.4898 7.69369C90.2331 7.46858 89.8766 7.33838 89.5133 7.33838H75.1376C74.7087 7.33838 74.3099 7.50995 74.0463 7.80806L0.289545 91.3124C-0.0737416 91.7225 -0.0969591 92.2944 0.230818 92.7264C0.558596 93.1583 1.16772 93.3603 1.73996 93.224L31.3424 86.2116L49.6447 92.8444C49.814 92.9064 49.9875 92.9357 50.1718 92.9357H74.0941C74.4683 92.9357 74.8221 92.8042 75.0829 92.5694L100.417 69.719C100.759 69.4112 100.889 68.9719 100.762 68.5582L90.244 34.3417V27.6237L102.232 22.4243C102.69 22.226 102.984 21.8256 103 21.3779C103.016 20.9301 102.753 20.5139 102.312 20.2888L90.2044 14.144L89.5133 15.1928V15.1941Z" fill="#7DD0E9"/>
<path d="M83.0233 16.3829C83.0233 17.8844 81.6371 19.1012 79.9272 19.1012C78.2173 19.1012 76.8311 17.8844 76.8311 16.3829C76.8311 14.8814 78.2173 13.6646 79.9272 13.6646C81.6371 13.6646 83.0233 14.8814 83.0233 16.3829Z" fill="#7DD0E9"/>
<path d="M55.4286 92.0547V101.643C55.4286 102.312 56.0459 102.855 56.8094 102.855C57.5728 102.855 58.1901 102.312 58.1901 101.643V92.0547C58.1901 91.3855 57.5714 90.8428 56.8094 90.8428C56.0473 90.8428 55.4286 91.3855 55.4286 92.0547Z" fill="#7DD0E9"/>
<path d="M66.0745 92.0547V101.643C66.0745 102.312 66.6918 102.855 67.4552 102.855C68.2187 102.855 68.836 102.312 68.836 101.643V92.0547C68.836 91.3855 68.2173 90.8428 67.4552 90.8428C66.6931 90.8428 66.0745 91.3855 66.0745 92.0547Z" fill="#7DD0E9"/>
<path d="M87.8868 33.6468L34.1217 80.8637L45.3358 44.4849L89.4041 27.9875C90.1047 27.7247 90.4311 27.0128 90.132 26.3971C89.8329 25.7814 89.0217 25.4955 88.3211 25.7583L43.6368 42.4869C43.2462 42.6329 42.9566 42.9262 42.846 43.2851L30.1037 84.62C29.9398 85.1493 30.2034 85.7102 30.7442 85.9852C31.285 86.2602 31.9693 86.1811 32.4118 85.793L89.8384 35.3613C90.3779 34.888 90.3765 34.1214 89.8384 33.6481C89.2989 33.1747 88.4249 33.1747 87.8868 33.6481V33.6468Z" fill="#7DD0E9"/>
<path d="M75.3165 91.1652L59.3128 64.247L99.2006 70.0707C99.9531 70.1802 100.663 69.7348 100.789 69.0741C100.915 68.4146 100.407 67.7904 99.654 67.6796L57.0347 61.4569C56.5185 61.3815 55.9981 61.5689 55.6908 61.9412C55.3835 62.3135 55.3426 62.8051 55.5843 63.2128L72.8677 92.2858C73.2201 92.8796 74.0546 93.1096 74.7306 92.7993C75.4067 92.4903 75.6689 91.7578 75.3165 91.1652Z" fill="#7DD0E9"/>
<path d="M84.0653 7.3374H81.3052V9.76006H84.0653V7.3374Z" fill="#7DD0E9"/>
<path d="M85.539 0V2.42387H81.2847V8.92647H78.5232V1.19247C78.5232 0.534177 79.1309 0 79.8821 0H85.539Z" fill="#7DD0E9"/>
<path d="M66.6863 102.937H71.5238C71.8611 102.937 72.1356 102.387 72.1356 101.707C72.1356 101.027 71.8625 100.477 71.5238 100.477H66.6863C66.349 100.477 66.0745 101.028 66.0745 101.707C66.0745 102.386 66.3476 102.937 66.6863 102.937Z" fill="#7DD0E9"/>
<path d="M56.0404 103H60.8779C61.2152 103 61.4897 102.45 61.4897 101.77C61.4897 101.09 61.2166 100.54 60.8779 100.54H56.0404C55.7031 100.54 55.4286 101.091 55.4286 101.77C55.4286 102.449 55.7017 103 56.0404 103Z" fill="#7DD0E9"/>
</g>
<g clip-path="url(#clip1_169_62)">
<path d="M286.945 83.9412C301.225 83.9412 312.803 72.3651 312.803 58.0834C312.803 43.8017 301.227 32.2256 286.945 32.2256C272.663 32.2256 261.087 43.8017 261.087 58.0834C261.087 72.3651 272.663 83.9412 286.945 83.9412Z" fill="white"/>
<path d="M264.551 71.0164L242.162 32.2378C237.622 40.0987 235.232 49.0159 235.232 58.0936C235.232 67.1712 237.62 76.0884 242.16 83.9494C246.7 91.8103 253.228 98.3367 261.091 102.875C268.954 107.412 277.872 109.799 286.949 109.797L309.338 71.0164V71.0103C307.071 74.9428 303.807 78.209 299.876 80.48C295.946 82.7509 291.487 83.9473 286.947 83.9473C282.407 83.9473 277.949 82.7529 274.016 80.484C270.084 78.2151 266.82 74.9489 264.551 71.0164Z" fill="url(#paint0_linear_169_62)"/>
<path d="M309.336 71.0162L286.947 109.795C296.025 109.797 304.942 107.408 312.803 102.868C320.664 98.3304 327.192 91.802 331.73 83.9411C336.268 76.0801 338.657 67.1609 338.655 58.0832C338.653 49.0056 336.262 40.0884 331.72 32.2295H286.943L286.937 32.2336C291.477 32.2315 295.937 33.4239 299.868 35.6928C303.8 37.9617 307.065 41.2259 309.336 45.1564C311.607 49.0868 312.801 53.5475 312.801 58.0873C312.803 62.6251 311.607 67.0837 309.336 71.0162Z" fill="url(#paint1_linear_169_62)"/>
<path d="M286.945 78.5581C298.251 78.5581 307.416 69.3931 307.416 58.0871C307.416 46.7812 298.251 37.6162 286.945 37.6162C275.639 37.6162 266.474 46.7812 266.474 58.0871C266.474 69.3931 275.639 78.5581 286.945 78.5581Z" fill="#1A73E8"/>
<path d="M286.945 32.2313H331.724C327.186 24.3684 320.658 17.8399 312.797 13.3021C304.936 8.76229 296.019 6.37354 286.941 6.37354C277.863 6.37354 268.946 8.76432 261.085 13.3042C253.224 17.844 246.698 24.3745 242.162 32.2354L264.551 71.016L264.557 71.0201C262.286 67.0896 261.087 62.631 261.087 58.0912C261.087 53.5513 262.28 49.0907 264.549 45.1603C266.818 41.2278 270.082 37.9635 274.014 35.6946C277.945 33.4237 282.405 32.2293 286.945 32.2313Z" fill="url(#paint2_linear_169_62)"/>
</g>
<g clip-path="url(#clip2_169_62)">
<path d="M153 49H185" stroke="#D9D9D9" stroke-width="4" stroke-miterlimit="10"/>
<path d="M169 33V65" stroke="#D9D9D9" stroke-width="4" stroke-miterlimit="10"/>
</g>
<defs>
<linearGradient id="paint0_linear_169_62" x1="292.542" y1="106.567" x2="247.762" y2="29.0046" gradientUnits="userSpaceOnUse">
<stop stop-color="#1E8E3E"/>
<stop offset="1" stop-color="#34A853"/>
</linearGradient>
<linearGradient id="paint1_linear_169_62" x1="279.401" y1="109.932" x2="324.182" y2="32.3697" gradientUnits="userSpaceOnUse">
<stop stop-color="#FCC934"/>
<stop offset="1" stop-color="#FBBC04"/>
</linearGradient>
<linearGradient id="paint2_linear_169_62" x1="242.162" y1="38.6968" x2="331.724" y2="38.6968" gradientUnits="userSpaceOnUse">
<stop stop-color="#D93025"/>
<stop offset="1" stop-color="#EA4335"/>
</linearGradient>
<clipPath id="clip0_169_62">
<rect width="103" height="103" fill="white"/>
</clipPath>
<clipPath id="clip1_169_62">
<rect width="104" height="104" fill="white" transform="translate(235 6)"/>
</clipPath>
<clipPath id="clip2_169_62">
<rect width="50" height="50" fill="white" transform="translate(144 24)"/>
</clipPath>
</defs>
</svg>
