<svg width="566" height="378" viewBox="0 0 566 378" fill="none" xmlns="http://www.w3.org/2000/svg">
<rect width="566" height="378" fill="#252E3A"/>
<g clip-path="url(#clip0_169_64)">
<path d="M195.513 139.194L194.822 140.243L204.698 145.255L194.251 149.785C193.782 149.988 193.482 150.412 193.482 150.872V158.504C193.482 158.605 193.5 158.721 193.53 158.819L203.891 192.524L179.511 214.513H156.445L137.962 207.814C137.678 207.711 137.372 207.694 137.076 207.765L110.99 213.944L181.814 133.761H194.133V139.195C194.133 139.628 194.395 140.028 194.822 140.244L195.513 139.195H196.894V132.55C196.894 132.232 196.747 131.919 196.49 131.694C196.233 131.469 195.877 131.338 195.513 131.338H181.138C180.709 131.338 180.31 131.51 180.046 131.808L106.29 215.312C105.926 215.722 105.903 216.294 106.231 216.726C106.559 217.158 107.168 217.36 107.74 217.224L137.342 210.212L155.645 216.844C155.814 216.906 155.987 216.936 156.172 216.936H180.094C180.468 216.936 180.822 216.804 181.083 216.569L206.417 193.719C206.759 193.411 206.889 192.972 206.762 192.558L196.244 158.342V151.624L208.232 146.424C208.69 146.226 208.984 145.826 209 145.378C209.016 144.93 208.753 144.514 208.312 144.289L196.204 138.144L195.513 139.193V139.194Z" fill="#7DD0E9"/>
<path d="M189.023 140.383C189.023 141.884 187.637 143.101 185.927 143.101C184.217 143.101 182.831 141.884 182.831 140.383C182.831 138.881 184.217 137.665 185.927 137.665C187.637 137.665 189.023 138.881 189.023 140.383Z" fill="#7DD0E9"/>
<path d="M161.429 216.055V225.643C161.429 226.312 162.046 226.855 162.809 226.855C163.573 226.855 164.19 226.312 164.19 225.643V216.055C164.19 215.385 163.571 214.843 162.809 214.843C162.047 214.843 161.429 215.385 161.429 216.055Z" fill="#7DD0E9"/>
<path d="M172.074 216.055V225.643C172.074 226.312 172.692 226.855 173.455 226.855C174.219 226.855 174.836 226.312 174.836 225.643V216.055C174.836 215.385 174.217 214.843 173.455 214.843C172.693 214.843 172.074 215.385 172.074 216.055Z" fill="#7DD0E9"/>
<path d="M193.887 157.647L140.122 204.864L151.336 168.485L195.404 151.987C196.105 151.725 196.431 151.013 196.132 150.397C195.833 149.781 195.022 149.495 194.321 149.758L149.637 166.487C149.246 166.633 148.957 166.926 148.846 167.285L136.104 208.62C135.94 209.149 136.203 209.71 136.744 209.985C137.285 210.26 137.969 210.181 138.412 209.793L195.838 159.361C196.378 158.888 196.377 158.121 195.838 157.648C195.299 157.175 194.425 157.175 193.887 157.648V157.647Z" fill="#7DD0E9"/>
<path d="M181.317 215.165L165.313 188.247L205.201 194.071C205.953 194.18 206.663 193.735 206.789 193.074C206.915 192.415 206.407 191.79 205.654 191.68L163.035 185.457C162.518 185.381 161.998 185.569 161.691 185.941C161.384 186.314 161.343 186.805 161.584 187.213L178.868 216.286C179.22 216.88 180.055 217.11 180.731 216.799C181.407 216.49 181.669 215.758 181.317 215.165Z" fill="#7DD0E9"/>
<path d="M190.065 131.337H187.305V133.76H190.065V131.337Z" fill="#7DD0E9"/>
<path d="M191.539 124V126.424H187.285V132.926H184.523V125.192C184.523 124.534 185.131 124 185.882 124H191.539Z" fill="#7DD0E9"/>
<path d="M172.686 226.937H177.524C177.861 226.937 178.136 226.387 178.136 225.707C178.136 225.027 177.862 224.477 177.524 224.477H172.686C172.349 224.477 172.074 225.028 172.074 225.707C172.074 226.386 172.348 226.937 172.686 226.937Z" fill="#7DD0E9"/>
<path d="M162.04 227H166.878C167.215 227 167.49 226.45 167.49 225.77C167.49 225.09 167.217 224.54 166.878 224.54H162.04C161.703 224.54 161.429 225.091 161.429 225.77C161.429 226.449 161.702 227 162.04 227Z" fill="#7DD0E9"/>
</g>
<g clip-path="url(#clip1_169_64)">
<path d="M392.945 207.941C407.225 207.941 418.803 196.365 418.803 182.083C418.803 167.802 407.227 156.226 392.945 156.226C378.663 156.226 367.087 167.802 367.087 182.083C367.087 196.365 378.663 207.941 392.945 207.941Z" fill="white"/>
<path d="M370.551 195.016L348.162 156.238C343.622 164.099 341.232 173.016 341.232 182.094C341.232 191.171 343.62 200.088 348.16 207.949C352.7 215.81 359.228 222.337 367.091 226.875C374.954 231.412 383.872 233.799 392.949 233.797L415.338 195.016V195.01C413.071 198.943 409.807 202.209 405.876 204.48C401.946 206.751 397.487 207.947 392.947 207.947C388.407 207.947 383.949 206.753 380.016 204.484C376.084 202.215 372.82 198.949 370.551 195.016Z" fill="url(#paint0_linear_169_64)"/>
<path d="M415.336 195.016L392.947 233.795C402.025 233.797 410.942 231.408 418.803 226.868C426.664 222.33 433.192 215.802 437.73 207.941C442.268 200.08 444.657 191.161 444.655 182.083C444.653 173.006 442.262 164.088 437.72 156.229H392.943L392.937 156.234C397.477 156.232 401.937 157.424 405.868 159.693C409.8 161.962 413.065 165.226 415.336 169.156C417.607 173.087 418.801 177.547 418.801 182.087C418.803 186.625 417.607 191.084 415.336 195.016Z" fill="url(#paint1_linear_169_64)"/>
<path d="M392.945 202.558C404.251 202.558 413.416 193.393 413.416 182.087C413.416 170.781 404.251 161.616 392.945 161.616C381.639 161.616 372.474 170.781 372.474 182.087C372.474 193.393 381.639 202.558 392.945 202.558Z" fill="#1A73E8"/>
<path d="M392.945 156.231H437.724C433.186 148.368 426.658 141.84 418.797 137.302C410.936 132.762 402.019 130.374 392.941 130.374C383.863 130.374 374.946 132.764 367.085 137.304C359.224 141.844 352.698 148.374 348.162 156.235L370.551 195.016L370.557 195.02C368.286 191.09 367.087 186.631 367.087 182.091C367.087 177.551 368.28 173.091 370.549 169.16C372.818 165.228 376.082 161.964 380.014 159.695C383.945 157.424 388.405 156.229 392.945 156.231Z" fill="url(#paint2_linear_169_64)"/>
</g>
<g clip-path="url(#clip2_169_64)">
<path d="M259 173H291" stroke="#D9D9D9" stroke-width="4" stroke-miterlimit="10"/>
<path d="M275 157V189" stroke="#D9D9D9" stroke-width="4" stroke-miterlimit="10"/>
</g>
<defs>
<linearGradient id="paint0_linear_169_64" x1="398.542" y1="230.567" x2="353.762" y2="153.005" gradientUnits="userSpaceOnUse">
<stop stop-color="#1E8E3E"/>
<stop offset="1" stop-color="#34A853"/>
</linearGradient>
<linearGradient id="paint1_linear_169_64" x1="385.401" y1="233.932" x2="430.182" y2="156.37" gradientUnits="userSpaceOnUse">
<stop stop-color="#FCC934"/>
<stop offset="1" stop-color="#FBBC04"/>
</linearGradient>
<linearGradient id="paint2_linear_169_64" x1="348.162" y1="162.697" x2="437.724" y2="162.697" gradientUnits="userSpaceOnUse">
<stop stop-color="#D93025"/>
<stop offset="1" stop-color="#EA4335"/>
</linearGradient>
<clipPath id="clip0_169_64">
<rect width="103" height="103" fill="white" transform="translate(106 124)"/>
</clipPath>
<clipPath id="clip1_169_64">
<rect width="104" height="104" fill="white" transform="translate(341 130)"/>
</clipPath>
<clipPath id="clip2_169_64">
<rect width="50" height="50" fill="white" transform="translate(250 148)"/>
</clipPath>
</defs>
</svg>
