<svg width="388" height="392" viewBox="0 0 388 392" fill="none" xmlns="http://www.w3.org/2000/svg">
<path d="M17.3521 290.16L31.7277 298.46L191.878 21.0802L177.502 12.7802L17.3521 290.16Z" fill="#E535AB"/>
<path d="M334.36 268H14.0601V284.6H334.36V268Z" fill="#E535AB"/>
<path d="M20.398 277.326L180.608 369.826L188.908 355.45L28.698 262.95L20.398 277.326Z" fill="#E535AB"/>
<path d="M159.572 36.2466L319.782 128.747L328.082 114.371L167.872 21.871L159.572 36.2466Z" fill="#E535AB"/>
<path d="M20.4424 114.308L28.7424 128.684L188.952 36.1836L180.652 21.808L20.4424 114.308Z" fill="#E535AB"/>
<path d="M156.678 21.0831L316.828 298.463L331.204 290.163L171.054 12.7831L156.678 21.0831Z" fill="#E535AB"/>
<path d="M43.3601 103.3H26.7601V288.3H43.3601V103.3Z" fill="#E535AB"/>
<path d="M321.76 103.3H305.16V288.3H321.76V103.3Z" fill="#E535AB"/>
<path d="M170.532 350.242L177.782 362.799L317.121 282.349L309.871 269.792L170.532 350.242Z" fill="#E535AB"/>
<path d="M343.76 293.7C334.16 310.4 312.76 316.1 296.06 306.5C279.36 296.9 273.66 275.5 283.26 258.8C292.86 242.1 314.26 236.4 330.96 246C347.76 255.7 353.46 277 343.76 293.7Z" fill="#E535AB"/>
<path d="M65.1601 132.8C55.5601 149.5 34.1601 155.2 17.4601 145.6C0.760067 136 -4.93993 114.6 4.66007 97.9C14.2601 81.2 35.6601 75.5 52.3601 85.1C69.0601 94.8 74.7601 116.1 65.1601 132.8Z" fill="#E535AB"/>
<path d="M4.76007 293.7C-4.83993 277 0.860071 255.7 17.5601 246C34.2601 236.4 55.5601 242.1 65.2601 258.8C74.8601 275.5 69.1601 296.8 52.4601 306.5C35.6601 316.1 14.3601 310.4 4.76007 293.7Z" fill="#E535AB"/>
<path d="M283.36 132.8C273.76 116.1 279.46 94.8 296.16 85.1C312.86 75.5 334.16 81.2 343.86 97.9C353.46 114.6 347.76 135.9 331.06 145.6C314.36 155.2 292.96 149.5 283.36 132.8Z" fill="#E535AB"/>
<path d="M174.26 391.6C154.96 391.6 139.36 376 139.36 356.7C139.36 337.4 154.96 321.8 174.26 321.8C193.56 321.8 209.16 337.4 209.16 356.7C209.16 375.9 193.56 391.6 174.26 391.6Z" fill="#E535AB"/>
<path d="M174.26 69.8C154.96 69.8 139.36 54.2 139.36 34.9C139.36 15.6 154.96 0 174.26 0C193.56 0 209.16 15.6 209.16 34.9C209.16 54.2 193.56 69.8 174.26 69.8Z" fill="#E535AB"/>
<g clip-path="url(#clip0_188_216)">
<path d="M286.153 218.894V234.925H339.367V218.894C339.367 204.131 327.461 192.175 312.76 192.175C298.06 192.175 286.153 204.131 286.153 218.894ZM264.867 234.925V218.894C264.867 192.342 286.319 170.8 312.76 170.8C339.201 170.8 360.653 192.342 360.653 218.894V234.925H365.974C377.715 234.925 387.26 244.51 387.26 256.3V320.425C387.26 332.214 377.715 341.8 365.974 341.8H259.546C247.805 341.8 238.26 332.214 238.26 320.425V256.3C238.26 244.51 247.805 234.925 259.546 234.925H264.867Z" fill="#252E3A"/>
<g clip-path="url(#clip1_188_216)">
<path d="M330.834 258.326L330.365 259.039L337.076 262.445L329.977 265.524C329.657 265.662 329.454 265.95 329.454 266.262V271.449C329.454 271.518 329.466 271.597 329.487 271.663L336.528 294.57L319.959 309.514H304.283L291.722 304.961C291.529 304.891 291.321 304.879 291.12 304.927L273.392 309.127L321.524 254.634H329.896V258.327C329.896 258.621 330.074 258.893 330.365 259.04L330.834 258.327H331.773V253.811C331.773 253.594 331.672 253.382 331.498 253.229C331.323 253.076 331.081 252.987 330.834 252.987H321.064C320.773 252.987 320.502 253.104 320.323 253.307L270.197 310.057C269.95 310.336 269.934 310.724 270.157 311.018C270.38 311.312 270.794 311.449 271.182 311.356L291.301 306.59L303.739 311.098C303.854 311.14 303.972 311.16 304.097 311.16H320.355C320.61 311.16 320.85 311.071 321.027 310.911L338.245 295.382C338.477 295.173 338.565 294.874 338.479 294.593L331.331 271.339V266.773L339.478 263.24C339.789 263.105 339.989 262.833 340 262.529C340.011 262.224 339.832 261.942 339.532 261.789L331.304 257.612L330.834 258.325V258.326Z" fill="#7DD0E9"/>
<path d="M326.424 259.134C326.424 260.154 325.482 260.981 324.319 260.981C323.157 260.981 322.215 260.154 322.215 259.134C322.215 258.114 323.157 257.287 324.319 257.287C325.482 257.287 326.424 258.114 326.424 259.134Z" fill="#7DD0E9"/>
<path d="M307.67 310.561V317.078C307.67 317.533 308.089 317.901 308.608 317.901C309.127 317.901 309.547 317.533 309.547 317.078V310.561C309.547 310.107 309.126 309.738 308.608 309.738C308.09 309.738 307.67 310.107 307.67 310.561Z" fill="#7DD0E9"/>
<path d="M314.905 310.561V317.078C314.905 317.533 315.325 317.901 315.843 317.901C316.362 317.901 316.782 317.533 316.782 317.078V310.561C316.782 310.107 316.361 309.738 315.843 309.738C315.325 309.738 314.905 310.107 314.905 310.561Z" fill="#7DD0E9"/>
<path d="M329.729 270.867L293.189 302.956L300.811 278.233L330.76 267.021C331.236 266.842 331.458 266.358 331.255 265.94C331.052 265.522 330.5 265.327 330.024 265.506L299.656 276.875C299.391 276.974 299.194 277.173 299.119 277.417L290.459 305.509C290.347 305.869 290.527 306.25 290.894 306.437C291.262 306.624 291.727 306.57 292.027 306.306L331.055 272.032C331.422 271.71 331.421 271.189 331.055 270.868C330.689 270.546 330.095 270.546 329.729 270.868V270.867Z" fill="#7DD0E9"/>
<path d="M321.186 309.957L310.31 291.663L337.418 295.621C337.929 295.695 338.412 295.393 338.497 294.944C338.583 294.496 338.237 294.071 337.726 293.996L308.761 289.767C308.411 289.716 308.057 289.843 307.848 290.096C307.639 290.349 307.611 290.683 307.776 290.96L319.522 310.719C319.761 311.122 320.328 311.279 320.788 311.068C321.247 310.858 321.425 310.36 321.186 309.957Z" fill="#7DD0E9"/>
<path d="M327.132 252.986H325.256V254.633H327.132V252.986Z" fill="#7DD0E9"/>
<path d="M328.133 248V249.647H325.242V254.067H323.365V248.81C323.365 248.363 323.778 248 324.289 248H328.133Z" fill="#7DD0E9"/>
<path d="M315.321 317.957H318.608C318.838 317.957 319.024 317.583 319.024 317.121C319.024 316.658 318.839 316.285 318.608 316.285H315.321C315.092 316.285 314.905 316.659 314.905 317.121C314.905 317.582 315.091 317.957 315.321 317.957Z" fill="#7DD0E9"/>
<path d="M308.086 318H311.373C311.603 318 311.789 317.626 311.789 317.164C311.789 316.702 311.604 316.328 311.373 316.328H308.086C307.856 316.328 307.67 316.703 307.67 317.164C307.67 317.626 307.856 318 308.086 318Z" fill="#7DD0E9"/>
</g>
</g>
<defs>
<clipPath id="clip0_188_216">
<rect width="149" height="171" fill="white" transform="translate(238.26 170.8)"/>
</clipPath>
<clipPath id="clip1_188_216">
<rect width="70" height="70" fill="white" transform="translate(270 248)"/>
</clipPath>
</defs>
</svg>
