<svg width="425" height="276" viewBox="0 0 425 276" fill="none" xmlns="http://www.w3.org/2000/svg">
<rect x="144" width="91" height="29" rx="5" fill="#D9D9D9"/>
<path d="M354 118C315.343 179.265 235.592 146.514 179 181" stroke="#7DD0E9"/>
<path d="M379 250C325.93 202.126 378.199 166.265 356.616 118" stroke="#7DD0E9"/>
<path d="M178 100C181.322 54.3726 177.577 58.8748 193.474 28.9992" stroke="#7DD0E9"/>
<path d="M28 95C83.1422 62.1028 156.838 87.4425 194.505 29C162.407 80.5122 289.292 57.979 358 95" stroke="#7DD0E9"/>
<rect x="307" y="92" width="91" height="29" rx="5" fill="#D9D9D9"/>
<rect y="92" width="91" height="29" rx="5" fill="#D9D9D9"/>
<rect x="334" y="247" width="91" height="29" rx="5" fill="#D9D9D9"/>
<rect x="147" y="89" width="91" height="29" rx="5" fill="#D9D9D9"/>
<rect x="256" y="46" width="35" height="16" rx="5" fill="#7DD0E9"/>
<path d="M175.676 18.1321C175.261 18.1321 174.888 18.0582 174.555 17.9105C174.226 17.7599 173.964 17.5384 173.771 17.2457C173.581 16.9531 173.486 16.5923 173.486 16.1634C173.486 15.794 173.554 15.4886 173.69 15.2472C173.827 15.0057 174.013 14.8125 174.249 14.6676C174.484 14.5227 174.75 14.4134 175.045 14.3395C175.344 14.2628 175.652 14.2074 175.97 14.1733C176.354 14.1335 176.665 14.098 176.903 14.0668C177.142 14.0327 177.315 13.9815 177.423 13.9134C177.534 13.8423 177.589 13.733 177.589 13.5852V13.5597C177.589 13.2386 177.494 12.9901 177.304 12.8139C177.114 12.6378 176.839 12.5497 176.482 12.5497C176.104 12.5497 175.804 12.6321 175.582 12.7969C175.364 12.9616 175.216 13.1562 175.139 13.3807L173.699 13.1761C173.813 12.7784 174 12.446 174.261 12.179C174.523 11.9091 174.842 11.7074 175.22 11.5739C175.598 11.4375 176.016 11.3693 176.473 11.3693C176.788 11.3693 177.102 11.4062 177.415 11.4801C177.727 11.554 178.013 11.6761 178.271 11.8466C178.53 12.0142 178.737 12.2429 178.893 12.5327C179.053 12.8224 179.132 13.1847 179.132 13.6193V18H177.649V17.1009H177.598C177.504 17.2827 177.372 17.4531 177.202 17.6122C177.034 17.7685 176.822 17.8949 176.567 17.9915C176.314 18.0852 176.017 18.1321 175.676 18.1321ZM176.077 16.9986C176.386 16.9986 176.655 16.9375 176.882 16.8153C177.109 16.6903 177.284 16.5256 177.406 16.321C177.531 16.1165 177.594 15.8935 177.594 15.652V14.8807C177.545 14.9205 177.463 14.9574 177.347 14.9915C177.233 15.0256 177.105 15.0554 176.963 15.081C176.821 15.1065 176.68 15.1293 176.541 15.1491C176.402 15.169 176.281 15.1861 176.179 15.2003C175.949 15.2315 175.743 15.2827 175.561 15.3537C175.379 15.4247 175.236 15.5241 175.131 15.652C175.026 15.777 174.973 15.9389 174.973 16.1378C174.973 16.4219 175.077 16.6364 175.284 16.7812C175.491 16.9261 175.756 16.9986 176.077 16.9986ZM180.683 18V11.4545H182.179V12.5455H182.247C182.366 12.1676 182.571 11.8764 182.861 11.6719C183.153 11.4645 183.487 11.3608 183.862 11.3608C183.947 11.3608 184.043 11.3651 184.148 11.3736C184.256 11.3793 184.345 11.3892 184.416 11.4034V12.8224C184.351 12.7997 184.247 12.7798 184.105 12.7628C183.966 12.7429 183.831 12.733 183.7 12.733C183.419 12.733 183.166 12.794 182.942 12.9162C182.72 13.0355 182.545 13.2017 182.418 13.4148C182.29 13.6278 182.226 13.8736 182.226 14.152V18H180.683ZM189.061 11.4545V12.6477H185.298V11.4545H189.061ZM186.227 9.88636H187.77V16.0312C187.77 16.2386 187.801 16.3977 187.864 16.5085C187.929 16.6165 188.014 16.6903 188.119 16.7301C188.224 16.7699 188.341 16.7898 188.469 16.7898C188.565 16.7898 188.653 16.7827 188.733 16.7685C188.815 16.7543 188.878 16.7415 188.92 16.7301L189.18 17.9361C189.098 17.9645 188.98 17.9957 188.827 18.0298C188.676 18.0639 188.491 18.0838 188.273 18.0895C187.886 18.1009 187.538 18.0426 187.229 17.9148C186.919 17.7841 186.673 17.5824 186.491 17.3097C186.313 17.0369 186.224 16.696 186.227 16.2869V9.88636ZM190.351 18V11.4545H191.894V18H190.351ZM191.127 10.5256C190.882 10.5256 190.672 10.4446 190.496 10.2827C190.32 10.1179 190.232 9.92045 190.232 9.69034C190.232 9.45739 190.32 9.25994 190.496 9.09801C190.672 8.93324 190.882 8.85085 191.127 8.85085C191.374 8.85085 191.584 8.93324 191.757 9.09801C191.934 9.25994 192.022 9.45739 192.022 9.69034C192.022 9.92045 191.934 10.1179 191.757 10.2827C191.584 10.4446 191.374 10.5256 191.127 10.5256ZM198.653 13.1847L197.247 13.3381C197.207 13.196 197.138 13.0625 197.038 12.9375C196.942 12.8125 196.811 12.7116 196.646 12.6349C196.482 12.5582 196.28 12.5199 196.041 12.5199C195.72 12.5199 195.45 12.5895 195.232 12.7287C195.016 12.8679 194.909 13.0483 194.912 13.2699C194.909 13.4602 194.979 13.6151 195.121 13.7344C195.266 13.8537 195.504 13.9517 195.837 14.0284L196.953 14.267C197.572 14.4006 198.033 14.6122 198.334 14.902C198.638 15.1918 198.791 15.571 198.794 16.0398C198.791 16.4517 198.67 16.8153 198.432 17.1307C198.196 17.4432 197.868 17.6875 197.447 17.8636C197.027 18.0398 196.544 18.1278 195.999 18.1278C195.197 18.1278 194.553 17.9602 194.064 17.625C193.575 17.2869 193.284 16.8168 193.19 16.2145L194.695 16.0696C194.763 16.3651 194.908 16.5881 195.129 16.7386C195.351 16.8892 195.639 16.9645 195.994 16.9645C196.361 16.9645 196.655 16.8892 196.876 16.7386C197.101 16.5881 197.213 16.402 197.213 16.1804C197.213 15.9929 197.141 15.8381 196.996 15.7159C196.854 15.5937 196.632 15.5 196.331 15.4347L195.214 15.2003C194.587 15.0696 194.122 14.8494 193.821 14.5398C193.52 14.2273 193.371 13.8324 193.374 13.3551C193.371 12.9517 193.48 12.6023 193.702 12.3068C193.926 12.0085 194.237 11.7784 194.635 11.6165C195.036 11.4517 195.497 11.3693 196.02 11.3693C196.787 11.3693 197.391 11.5327 197.831 11.8594C198.274 12.1861 198.548 12.6278 198.653 13.1847ZM203.335 11.4545V12.6477H199.572V11.4545H203.335ZM200.501 9.88636H202.043V16.0312C202.043 16.2386 202.075 16.3977 202.137 16.5085C202.202 16.6165 202.288 16.6903 202.393 16.7301C202.498 16.7699 202.614 16.7898 202.742 16.7898C202.839 16.7898 202.927 16.7827 203.006 16.7685C203.089 16.7543 203.151 16.7415 203.194 16.7301L203.454 17.9361C203.371 17.9645 203.254 17.9957 203.1 18.0298C202.95 18.0639 202.765 18.0838 202.546 18.0895C202.16 18.1009 201.812 18.0426 201.502 17.9148C201.192 17.7841 200.947 17.5824 200.765 17.3097C200.586 17.0369 200.498 16.696 200.501 16.2869V9.88636Z" fill="black"/>
<path d="M267.456 56L269.003 52.9389V52.9141H267.208V52.3636H269.685V52.9265L268.14 56H267.456ZM271.511 56.0497C271.337 56.0485 271.167 56.0183 271.002 55.9592C270.836 55.8988 270.687 55.8011 270.554 55.6662C270.422 55.5301 270.316 55.3496 270.238 55.1246C270.16 54.8986 270.122 54.6186 270.123 54.2848C270.123 53.9735 270.156 53.6959 270.222 53.4521C270.289 53.2082 270.384 53.0022 270.508 52.8342C270.632 52.6649 270.782 52.5359 270.957 52.4471C271.134 52.3583 271.331 52.3139 271.549 52.3139C271.777 52.3139 271.979 52.3589 272.156 52.4489C272.333 52.5388 272.477 52.6619 272.585 52.8182C272.694 52.9732 272.762 53.1484 272.788 53.3438H272.14C272.107 53.2041 272.039 53.0928 271.936 53.0099C271.834 52.9259 271.705 52.8839 271.549 52.8839C271.296 52.8839 271.102 52.9934 270.966 53.2124C270.831 53.4313 270.763 53.732 270.762 54.1143H270.787C270.845 54.0102 270.92 53.9208 271.012 53.8462C271.105 53.7717 271.209 53.7143 271.325 53.674C271.442 53.6326 271.566 53.6119 271.696 53.6119C271.909 53.6119 272.1 53.6628 272.269 53.7646C272.44 53.8664 272.575 54.0066 272.674 54.1854C272.774 54.3629 272.823 54.5665 272.822 54.7962C272.823 55.0353 272.768 55.2501 272.658 55.4407C272.548 55.6301 272.395 55.7792 272.198 55.8881C272.002 55.997 271.773 56.0509 271.511 56.0497ZM271.508 55.517C271.637 55.517 271.752 55.4857 271.854 55.4229C271.956 55.3602 272.036 55.2756 272.095 55.169C272.155 55.0625 272.184 54.9429 272.182 54.8104C272.184 54.6802 272.155 54.5624 272.097 54.457C272.04 54.3517 271.962 54.2682 271.861 54.2067C271.76 54.1451 271.646 54.1143 271.517 54.1143C271.421 54.1143 271.331 54.1327 271.248 54.1694C271.166 54.2061 271.093 54.257 271.032 54.3221C270.97 54.386 270.922 54.4606 270.886 54.5458C270.852 54.6299 270.834 54.7198 270.833 54.8157C270.834 54.9424 270.864 55.0589 270.922 55.1655C270.98 55.272 271.06 55.3572 271.161 55.4212C271.263 55.4851 271.379 55.517 271.508 55.517ZM273.429 56V53.2727H274.043V53.7362H274.075C274.132 53.5799 274.226 53.458 274.358 53.3704C274.489 53.2816 274.646 53.2372 274.828 53.2372C275.013 53.2372 275.168 53.2822 275.295 53.3722C275.423 53.4609 275.513 53.5823 275.565 53.7362H275.593C275.654 53.5846 275.755 53.4639 275.899 53.3739C276.043 53.2828 276.214 53.2372 276.412 53.2372C276.663 53.2372 276.868 53.3165 277.026 53.4751C277.185 53.6338 277.264 53.8652 277.264 54.1694V56H276.62V54.2688C276.62 54.0996 276.575 53.9759 276.485 53.8977C276.395 53.8184 276.285 53.7788 276.154 53.7788C275.999 53.7788 275.878 53.8273 275.79 53.9244C275.704 54.0202 275.661 54.1451 275.661 54.299V56H275.03V54.2422C275.03 54.1013 274.988 53.9889 274.903 53.9048C274.819 53.8208 274.708 53.7788 274.572 53.7788C274.48 53.7788 274.396 53.8024 274.32 53.8498C274.244 53.896 274.184 53.9616 274.139 54.0469C274.094 54.1309 274.072 54.2292 274.072 54.3416V56H273.429ZM280.072 53.9936L279.486 54.0575C279.469 53.9983 279.44 53.9427 279.399 53.8906C279.359 53.8385 279.304 53.7965 279.235 53.7646C279.167 53.7326 279.083 53.7166 278.983 53.7166C278.85 53.7166 278.737 53.7456 278.646 53.8036C278.556 53.8616 278.512 53.9368 278.513 54.0291C278.512 54.1084 278.541 54.1729 278.6 54.2227C278.66 54.2724 278.76 54.3132 278.898 54.3452L279.363 54.4446C279.621 54.5002 279.813 54.5884 279.939 54.7092C280.065 54.8299 280.129 54.9879 280.13 55.1832C280.129 55.3549 280.079 55.5064 279.979 55.6378C279.881 55.768 279.744 55.8698 279.569 55.9432C279.394 56.0166 279.193 56.0533 278.966 56.0533C278.632 56.0533 278.363 55.9834 278.159 55.8438C277.956 55.7029 277.835 55.507 277.795 55.256L278.422 55.1957C278.451 55.3188 278.511 55.4117 278.603 55.4744C278.696 55.5372 278.816 55.5685 278.964 55.5685C279.116 55.5685 279.239 55.5372 279.331 55.4744C279.425 55.4117 279.472 55.3342 279.472 55.2418C279.472 55.1637 279.441 55.0992 279.381 55.0483C279.322 54.9974 279.23 54.9583 279.104 54.9311L278.639 54.8335C278.377 54.779 278.184 54.6873 278.058 54.5582C277.933 54.428 277.871 54.2635 277.872 54.0646C277.871 53.8965 277.916 53.7509 278.009 53.6278C278.102 53.5036 278.232 53.4077 278.397 53.3402C278.564 53.2715 278.757 53.2372 278.974 53.2372C279.294 53.2372 279.546 53.3053 279.729 53.4414C279.914 53.5775 280.028 53.7616 280.072 53.9936Z" fill="black"/>
<path d="M38.7926 111V104.455H40.3352V111H38.7926ZM39.5682 103.526C39.3239 103.526 39.1136 103.445 38.9375 103.283C38.7614 103.118 38.6733 102.92 38.6733 102.69C38.6733 102.457 38.7614 102.26 38.9375 102.098C39.1136 101.933 39.3239 101.851 39.5682 101.851C39.8153 101.851 40.0256 101.933 40.1989 102.098C40.375 102.26 40.4631 102.457 40.4631 102.69C40.4631 102.92 40.375 103.118 40.1989 103.283C40.0256 103.445 39.8153 103.526 39.5682 103.526ZM44.3505 111.115C43.8363 111.115 43.3761 110.983 42.9698 110.719C42.5636 110.455 42.2425 110.071 42.0067 109.568C41.771 109.065 41.6531 108.455 41.6531 107.736C41.6531 107.009 41.7724 106.395 42.011 105.895C42.2525 105.392 42.5778 105.013 42.9869 104.757C43.396 104.499 43.8519 104.369 44.3548 104.369C44.7383 104.369 45.0536 104.435 45.3008 104.565C45.5479 104.693 45.744 104.848 45.8888 105.03C46.0337 105.209 46.146 105.378 46.2255 105.537H46.2894V102.273H47.8363V111H46.3192V109.969H46.2255C46.146 110.128 46.0309 110.297 45.8803 110.476C45.7298 110.652 45.5309 110.803 45.2837 110.928C45.0366 111.053 44.7255 111.115 44.3505 111.115ZM44.7809 109.849C45.1076 109.849 45.386 109.761 45.6161 109.585C45.8462 109.406 46.021 109.158 46.1403 108.839C46.2596 108.521 46.3192 108.151 46.3192 107.727C46.3192 107.304 46.2596 106.936 46.1403 106.624C46.0238 106.311 45.8505 106.068 45.6204 105.895C45.3931 105.722 45.1133 105.635 44.7809 105.635C44.4371 105.635 44.1502 105.724 43.9201 105.903C43.69 106.082 43.5167 106.33 43.4002 106.645C43.2837 106.96 43.2255 107.321 43.2255 107.727C43.2255 108.136 43.2837 108.501 43.4002 108.822C43.5195 109.141 43.6942 109.392 43.9244 109.577C44.1573 109.759 44.4428 109.849 44.7809 109.849Z" fill="black"/>
<path d="M176.335 103.165V107H174.793V100.455H176.267V101.567H176.344C176.494 101.2 176.734 100.909 177.064 100.693C177.396 100.477 177.807 100.369 178.295 100.369C178.747 100.369 179.141 100.466 179.476 100.659C179.814 100.852 180.075 101.132 180.26 101.499C180.447 101.865 180.54 102.31 180.537 102.832V107H178.994V103.071C178.994 102.634 178.881 102.291 178.653 102.044C178.429 101.797 178.118 101.673 177.72 101.673C177.45 101.673 177.21 101.733 177 101.852C176.793 101.969 176.629 102.138 176.51 102.359C176.393 102.581 176.335 102.849 176.335 103.165ZM183.989 107.132C183.574 107.132 183.2 107.058 182.868 106.911C182.538 106.76 182.277 106.538 182.084 106.246C181.893 105.953 181.798 105.592 181.798 105.163C181.798 104.794 181.866 104.489 182.003 104.247C182.139 104.006 182.325 103.812 182.561 103.668C182.797 103.523 183.063 103.413 183.358 103.339C183.656 103.263 183.964 103.207 184.283 103.173C184.666 103.134 184.977 103.098 185.216 103.067C185.455 103.033 185.628 102.982 185.736 102.913C185.847 102.842 185.902 102.733 185.902 102.585V102.56C185.902 102.239 185.807 101.99 185.616 101.814C185.426 101.638 185.152 101.55 184.794 101.55C184.416 101.55 184.116 101.632 183.895 101.797C183.676 101.962 183.528 102.156 183.452 102.381L182.011 102.176C182.125 101.778 182.313 101.446 182.574 101.179C182.835 100.909 183.155 100.707 183.533 100.574C183.911 100.438 184.328 100.369 184.786 100.369C185.101 100.369 185.415 100.406 185.727 100.48C186.04 100.554 186.325 100.676 186.584 100.847C186.842 101.014 187.05 101.243 187.206 101.533C187.365 101.822 187.445 102.185 187.445 102.619V107H185.962V106.101H185.911C185.817 106.283 185.685 106.453 185.514 106.612C185.347 106.768 185.135 106.895 184.879 106.991C184.626 107.085 184.33 107.132 183.989 107.132ZM184.389 105.999C184.699 105.999 184.967 105.937 185.195 105.815C185.422 105.69 185.597 105.526 185.719 105.321C185.844 105.116 185.906 104.893 185.906 104.652V103.881C185.858 103.92 185.776 103.957 185.659 103.991C185.545 104.026 185.418 104.055 185.276 104.081C185.134 104.107 184.993 104.129 184.854 104.149C184.714 104.169 184.594 104.186 184.491 104.2C184.261 104.232 184.055 104.283 183.874 104.354C183.692 104.425 183.548 104.524 183.443 104.652C183.338 104.777 183.286 104.939 183.286 105.138C183.286 105.422 183.389 105.636 183.597 105.781C183.804 105.926 184.068 105.999 184.389 105.999ZM188.996 107V100.455H190.47V101.567H190.547C190.683 101.192 190.909 100.899 191.224 100.689C191.54 100.476 191.916 100.369 192.354 100.369C192.797 100.369 193.17 100.477 193.474 100.693C193.781 100.906 193.997 101.197 194.122 101.567H194.19C194.335 101.203 194.58 100.913 194.923 100.697C195.27 100.479 195.68 100.369 196.155 100.369C196.757 100.369 197.249 100.56 197.629 100.94C198.01 101.321 198.2 101.876 198.2 102.607V107H196.653V102.845C196.653 102.439 196.545 102.142 196.33 101.955C196.114 101.764 195.849 101.669 195.537 101.669C195.165 101.669 194.874 101.786 194.663 102.018C194.456 102.249 194.352 102.548 194.352 102.918V107H192.839V102.781C192.839 102.443 192.737 102.173 192.533 101.972C192.331 101.77 192.067 101.669 191.74 101.669C191.518 101.669 191.317 101.726 191.135 101.839C190.953 101.95 190.808 102.108 190.7 102.312C190.592 102.514 190.538 102.75 190.538 103.02V107H188.996ZM202.663 107.128C202.007 107.128 201.44 106.991 200.963 106.719C200.488 106.443 200.123 106.054 199.868 105.551C199.612 105.045 199.484 104.45 199.484 103.766C199.484 103.092 199.612 102.501 199.868 101.993C200.126 101.482 200.487 101.084 200.95 100.8C201.413 100.513 201.957 100.369 202.582 100.369C202.985 100.369 203.366 100.435 203.724 100.565C204.085 100.693 204.403 100.892 204.679 101.162C204.957 101.432 205.176 101.776 205.335 102.193C205.494 102.608 205.574 103.102 205.574 103.676V104.149H200.208V103.109H204.095C204.092 102.814 204.028 102.551 203.903 102.321C203.778 102.088 203.603 101.905 203.379 101.771C203.157 101.638 202.899 101.571 202.603 101.571C202.288 101.571 202.011 101.648 201.772 101.801C201.534 101.952 201.348 102.151 201.214 102.398C201.083 102.642 201.017 102.911 201.014 103.203V104.111C201.014 104.491 201.083 104.818 201.223 105.091C201.362 105.361 201.556 105.568 201.806 105.713C202.056 105.855 202.349 105.926 202.684 105.926C202.909 105.926 203.112 105.895 203.294 105.832C203.475 105.767 203.633 105.672 203.767 105.547C203.9 105.422 204.001 105.267 204.069 105.082L205.51 105.244C205.419 105.625 205.245 105.957 204.99 106.241C204.737 106.523 204.413 106.741 204.018 106.898C203.623 107.051 203.172 107.128 202.663 107.128Z" fill="black"/>
<path d="M336.676 110.132C336.261 110.132 335.888 110.058 335.555 109.911C335.226 109.76 334.964 109.538 334.771 109.246C334.581 108.953 334.486 108.592 334.486 108.163C334.486 107.794 334.554 107.489 334.69 107.247C334.827 107.006 335.013 106.812 335.249 106.668C335.484 106.523 335.75 106.413 336.045 106.339C336.344 106.263 336.652 106.207 336.97 106.173C337.354 106.134 337.665 106.098 337.903 106.067C338.142 106.033 338.315 105.982 338.423 105.913C338.534 105.842 338.589 105.733 338.589 105.585V105.56C338.589 105.239 338.494 104.99 338.304 104.814C338.114 104.638 337.839 104.55 337.482 104.55C337.104 104.55 336.804 104.632 336.582 104.797C336.364 104.962 336.216 105.156 336.139 105.381L334.699 105.176C334.813 104.778 335 104.446 335.261 104.179C335.523 103.909 335.842 103.707 336.22 103.574C336.598 103.438 337.016 103.369 337.473 103.369C337.788 103.369 338.102 103.406 338.415 103.48C338.727 103.554 339.013 103.676 339.271 103.847C339.53 104.014 339.737 104.243 339.893 104.533C340.053 104.822 340.132 105.185 340.132 105.619V110H338.649V109.101H338.598C338.504 109.283 338.372 109.453 338.202 109.612C338.034 109.768 337.822 109.895 337.567 109.991C337.314 110.085 337.017 110.132 336.676 110.132ZM337.077 108.999C337.386 108.999 337.655 108.937 337.882 108.815C338.109 108.69 338.284 108.526 338.406 108.321C338.531 108.116 338.594 107.893 338.594 107.652V106.881C338.545 106.92 338.463 106.957 338.347 106.991C338.233 107.026 338.105 107.055 337.963 107.081C337.821 107.107 337.68 107.129 337.541 107.149C337.402 107.169 337.281 107.186 337.179 107.2C336.949 107.232 336.743 107.283 336.561 107.354C336.379 107.425 336.236 107.524 336.131 107.652C336.026 107.777 335.973 107.939 335.973 108.138C335.973 108.422 336.077 108.636 336.284 108.781C336.491 108.926 336.756 108.999 337.077 108.999ZM343.226 101.273V110H341.683V101.273H343.226ZM344.88 110V101.273H346.423V104.537H346.487C346.566 104.378 346.679 104.209 346.824 104.03C346.968 103.848 347.164 103.693 347.412 103.565C347.659 103.435 347.974 103.369 348.358 103.369C348.863 103.369 349.319 103.499 349.725 103.757C350.135 104.013 350.458 104.392 350.697 104.895C350.939 105.395 351.059 106.009 351.059 106.736C351.059 107.455 350.941 108.065 350.706 108.568C350.47 109.071 350.149 109.455 349.743 109.719C349.336 109.983 348.876 110.115 348.362 110.115C347.987 110.115 347.676 110.053 347.429 109.928C347.181 109.803 346.983 109.652 346.832 109.476C346.684 109.297 346.569 109.128 346.487 108.969H346.397V110H344.88ZM346.393 106.727C346.393 107.151 346.453 107.521 346.572 107.839C346.694 108.158 346.869 108.406 347.096 108.585C347.326 108.761 347.605 108.849 347.931 108.849C348.272 108.849 348.558 108.759 348.788 108.577C349.018 108.392 349.191 108.141 349.308 107.822C349.427 107.501 349.487 107.136 349.487 106.727C349.487 106.321 349.429 105.96 349.312 105.645C349.196 105.33 349.022 105.082 348.792 104.903C348.562 104.724 348.275 104.635 347.931 104.635C347.602 104.635 347.322 104.722 347.092 104.895C346.862 105.068 346.687 105.311 346.568 105.624C346.451 105.936 346.393 106.304 346.393 106.727ZM356.543 107.247V103.455H358.085V110H356.589V108.837H356.521C356.374 109.203 356.131 109.503 355.793 109.736C355.457 109.969 355.044 110.085 354.553 110.085C354.124 110.085 353.744 109.99 353.415 109.8C353.088 109.607 352.832 109.327 352.648 108.96C352.463 108.591 352.371 108.145 352.371 107.622V103.455H353.913V107.384C353.913 107.798 354.027 108.128 354.254 108.372C354.482 108.616 354.78 108.739 355.149 108.739C355.376 108.739 355.597 108.683 355.81 108.572C356.023 108.462 356.197 108.297 356.334 108.078C356.473 107.857 356.543 107.58 356.543 107.247ZM359.672 110V103.455H361.146V104.567H361.223C361.359 104.192 361.585 103.899 361.9 103.689C362.216 103.476 362.592 103.369 363.029 103.369C363.473 103.369 363.846 103.477 364.15 103.693C364.457 103.906 364.673 104.197 364.798 104.567H364.866C365.011 104.203 365.255 103.913 365.599 103.697C365.946 103.479 366.356 103.369 366.831 103.369C367.433 103.369 367.924 103.56 368.305 103.94C368.686 104.321 368.876 104.876 368.876 105.607V110H367.329V105.845C367.329 105.439 367.221 105.142 367.005 104.955C366.789 104.764 366.525 104.669 366.213 104.669C365.841 104.669 365.549 104.786 365.339 105.018C365.132 105.249 365.028 105.548 365.028 105.918V110H363.515V105.781C363.515 105.443 363.413 105.173 363.208 104.972C363.007 104.77 362.743 104.669 362.416 104.669C362.194 104.669 361.993 104.726 361.811 104.839C361.629 104.95 361.484 105.108 361.376 105.312C361.268 105.514 361.214 105.75 361.214 106.02V110H359.672ZM375.614 105.185L374.208 105.338C374.168 105.196 374.099 105.062 373.999 104.938C373.903 104.812 373.772 104.712 373.607 104.635C373.442 104.558 373.241 104.52 373.002 104.52C372.681 104.52 372.411 104.589 372.192 104.729C371.977 104.868 371.87 105.048 371.873 105.27C371.87 105.46 371.94 105.615 372.082 105.734C372.227 105.854 372.465 105.952 372.798 106.028L373.914 106.267C374.533 106.401 374.994 106.612 375.295 106.902C375.599 107.192 375.752 107.571 375.755 108.04C375.752 108.452 375.631 108.815 375.393 109.131C375.157 109.443 374.829 109.687 374.408 109.864C373.988 110.04 373.505 110.128 372.96 110.128C372.158 110.128 371.513 109.96 371.025 109.625C370.536 109.287 370.245 108.817 370.151 108.214L371.656 108.07C371.724 108.365 371.869 108.588 372.09 108.739C372.312 108.889 372.6 108.964 372.955 108.964C373.322 108.964 373.616 108.889 373.837 108.739C374.062 108.588 374.174 108.402 374.174 108.18C374.174 107.993 374.102 107.838 373.957 107.716C373.815 107.594 373.593 107.5 373.292 107.435L372.175 107.2C371.548 107.07 371.083 106.849 370.782 106.54C370.481 106.227 370.332 105.832 370.335 105.355C370.332 104.952 370.441 104.602 370.663 104.307C370.887 104.009 371.198 103.778 371.596 103.616C371.996 103.452 372.458 103.369 372.981 103.369C373.748 103.369 374.352 103.533 374.792 103.859C375.235 104.186 375.509 104.628 375.614 105.185Z" fill="black"/>
<path d="M367.335 262.165V266H365.793V259.455H367.267V260.567H367.344C367.494 260.2 367.734 259.909 368.064 259.693C368.396 259.477 368.807 259.369 369.295 259.369C369.747 259.369 370.141 259.466 370.476 259.659C370.814 259.852 371.075 260.132 371.26 260.499C371.447 260.865 371.54 261.31 371.537 261.832V266H369.994V262.071C369.994 261.634 369.881 261.291 369.653 261.044C369.429 260.797 369.118 260.673 368.72 260.673C368.45 260.673 368.21 260.733 368 260.852C367.793 260.969 367.629 261.138 367.51 261.359C367.393 261.581 367.335 261.849 367.335 262.165ZM374.989 266.132C374.574 266.132 374.2 266.058 373.868 265.911C373.538 265.76 373.277 265.538 373.084 265.246C372.893 264.953 372.798 264.592 372.798 264.163C372.798 263.794 372.866 263.489 373.003 263.247C373.139 263.006 373.325 262.812 373.561 262.668C373.797 262.523 374.063 262.413 374.358 262.339C374.656 262.263 374.964 262.207 375.283 262.173C375.666 262.134 375.977 262.098 376.216 262.067C376.455 262.033 376.628 261.982 376.736 261.913C376.847 261.842 376.902 261.733 376.902 261.585V261.56C376.902 261.239 376.807 260.99 376.616 260.814C376.426 260.638 376.152 260.55 375.794 260.55C375.416 260.55 375.116 260.632 374.895 260.797C374.676 260.962 374.528 261.156 374.452 261.381L373.011 261.176C373.125 260.778 373.313 260.446 373.574 260.179C373.835 259.909 374.155 259.707 374.533 259.574C374.911 259.438 375.328 259.369 375.786 259.369C376.101 259.369 376.415 259.406 376.727 259.48C377.04 259.554 377.325 259.676 377.584 259.847C377.842 260.014 378.05 260.243 378.206 260.533C378.365 260.822 378.445 261.185 378.445 261.619V266H376.962V265.101H376.911C376.817 265.283 376.685 265.453 376.514 265.612C376.347 265.768 376.135 265.895 375.879 265.991C375.626 266.085 375.33 266.132 374.989 266.132ZM375.389 264.999C375.699 264.999 375.967 264.937 376.195 264.815C376.422 264.69 376.597 264.526 376.719 264.321C376.844 264.116 376.906 263.893 376.906 263.652V262.881C376.858 262.92 376.776 262.957 376.659 262.991C376.545 263.026 376.418 263.055 376.276 263.081C376.134 263.107 375.993 263.129 375.854 263.149C375.714 263.169 375.594 263.186 375.491 263.2C375.261 263.232 375.055 263.283 374.874 263.354C374.692 263.425 374.548 263.524 374.443 263.652C374.338 263.777 374.286 263.939 374.286 264.138C374.286 264.422 374.389 264.636 374.597 264.781C374.804 264.926 375.068 264.999 375.389 264.999ZM379.996 266V259.455H381.47V260.567H381.547C381.683 260.192 381.909 259.899 382.224 259.689C382.54 259.476 382.916 259.369 383.354 259.369C383.797 259.369 384.17 259.477 384.474 259.693C384.781 259.906 384.997 260.197 385.122 260.567H385.19C385.335 260.203 385.58 259.913 385.923 259.697C386.27 259.479 386.68 259.369 387.155 259.369C387.757 259.369 388.249 259.56 388.629 259.94C389.01 260.321 389.2 260.876 389.2 261.607V266H387.653V261.845C387.653 261.439 387.545 261.142 387.33 260.955C387.114 260.764 386.849 260.669 386.537 260.669C386.165 260.669 385.874 260.786 385.663 261.018C385.456 261.249 385.352 261.548 385.352 261.918V266H383.839V261.781C383.839 261.443 383.737 261.173 383.533 260.972C383.331 260.77 383.067 260.669 382.74 260.669C382.518 260.669 382.317 260.726 382.135 260.839C381.953 260.95 381.808 261.108 381.7 261.312C381.592 261.514 381.538 261.75 381.538 262.02V266H379.996ZM393.663 266.128C393.007 266.128 392.44 265.991 391.963 265.719C391.488 265.443 391.123 265.054 390.868 264.551C390.612 264.045 390.484 263.45 390.484 262.766C390.484 262.092 390.612 261.501 390.868 260.993C391.126 260.482 391.487 260.084 391.95 259.8C392.413 259.513 392.957 259.369 393.582 259.369C393.985 259.369 394.366 259.435 394.724 259.565C395.085 259.693 395.403 259.892 395.679 260.162C395.957 260.432 396.176 260.776 396.335 261.193C396.494 261.608 396.574 262.102 396.574 262.676V263.149H391.208V262.109H395.095C395.092 261.814 395.028 261.551 394.903 261.321C394.778 261.088 394.603 260.905 394.379 260.771C394.157 260.638 393.899 260.571 393.603 260.571C393.288 260.571 393.011 260.648 392.772 260.801C392.534 260.952 392.348 261.151 392.214 261.398C392.083 261.642 392.017 261.911 392.014 262.203V263.111C392.014 263.491 392.083 263.818 392.223 264.091C392.362 264.361 392.556 264.568 392.806 264.713C393.056 264.855 393.349 264.926 393.684 264.926C393.909 264.926 394.112 264.895 394.294 264.832C394.475 264.767 394.633 264.672 394.767 264.547C394.9 264.422 395.001 264.267 395.069 264.082L396.51 264.244C396.419 264.625 396.245 264.957 395.99 265.241C395.737 265.523 395.413 265.741 395.018 265.898C394.623 266.051 394.172 266.128 393.663 266.128Z" fill="black"/>
<rect x="147" y="178" width="91" height="29" rx="5" fill="#D9D9D9"/>
<path d="M183.793 197V190.455H185.335V197H183.793ZM184.568 189.526C184.324 189.526 184.114 189.445 183.938 189.283C183.761 189.118 183.673 188.92 183.673 188.69C183.673 188.457 183.761 188.26 183.938 188.098C184.114 187.933 184.324 187.851 184.568 187.851C184.815 187.851 185.026 187.933 185.199 188.098C185.375 188.26 185.463 188.457 185.463 188.69C185.463 188.92 185.375 189.118 185.199 189.283C185.026 189.445 184.815 189.526 184.568 189.526ZM189.35 197.115C188.836 197.115 188.376 196.983 187.97 196.719C187.564 196.455 187.243 196.071 187.007 195.568C186.771 195.065 186.653 194.455 186.653 193.736C186.653 193.009 186.772 192.395 187.011 191.895C187.252 191.392 187.578 191.013 187.987 190.757C188.396 190.499 188.852 190.369 189.355 190.369C189.738 190.369 190.054 190.435 190.301 190.565C190.548 190.693 190.744 190.848 190.889 191.03C191.034 191.209 191.146 191.378 191.225 191.537H191.289V188.273H192.836V197H191.319V195.969H191.225C191.146 196.128 191.031 196.297 190.88 196.476C190.73 196.652 190.531 196.803 190.284 196.928C190.037 197.053 189.725 197.115 189.35 197.115ZM189.781 195.849C190.108 195.849 190.386 195.761 190.616 195.585C190.846 195.406 191.021 195.158 191.14 194.839C191.26 194.521 191.319 194.151 191.319 193.727C191.319 193.304 191.26 192.936 191.14 192.624C191.024 192.311 190.85 192.068 190.62 191.895C190.393 191.722 190.113 191.635 189.781 191.635C189.437 191.635 189.15 191.724 188.92 191.903C188.69 192.082 188.517 192.33 188.4 192.645C188.284 192.96 188.225 193.321 188.225 193.727C188.225 194.136 188.284 194.501 188.4 194.822C188.52 195.141 188.694 195.392 188.924 195.577C189.157 195.759 189.443 195.849 189.781 195.849Z" fill="black"/>
</svg>
